<svg width="137" height="40" viewBox="0 0 137 40" fill="none" xmlns="http://www.w3.org/2000/svg">
<rect x="0.705078" y="0.5" width="135.488" height="38.1563" rx="5.5" fill="black" stroke="#C0C1C1"/>
<path d="M28.3963 30.568C26.8146 31.9259 25.0876 31.7115 23.4252 31.0683C21.6659 30.4108 20.0519 30.3822 18.1958 31.0683C15.8716 31.9545 14.645 31.6972 13.2569 30.568C5.38059 23.3785 6.54268 12.4298 15.4843 12.0296C17.6632 12.1296 19.1803 13.0873 20.4554 13.173C22.3599 12.83 24.1838 11.8438 26.2174 11.9724C28.6546 12.1439 30.4945 13.0015 31.705 14.5452C26.6693 17.2181 27.8637 23.0926 32.4798 24.7364C31.5598 26.8804 30.3654 29.0101 28.3802 30.5823L28.3963 30.568ZM20.294 11.9438C20.0519 8.7564 22.9733 6.12642 26.3304 5.86914C26.7985 9.55682 22.5536 12.3011 20.294 11.9438Z" fill="white"/>
<path d="M46.4281 28.8717L45.5902 26.4928H42.3148L41.4769 28.8717H39.9945L43.182 20.2701H44.7406L47.9222 28.8717H46.4281ZM45.2269 25.2858L44.4125 22.942C44.3812 22.8405 44.3363 22.6979 44.2777 22.5143C44.2191 22.3268 44.1605 22.1373 44.1019 21.9459C44.0433 21.7506 43.9945 21.5865 43.9554 21.4537C43.9164 21.6139 43.8676 21.7936 43.809 21.9928C43.7543 22.1881 43.6996 22.3717 43.6449 22.5436C43.5941 22.7155 43.5551 22.8483 43.5277 22.942L42.7074 25.2858H45.2269ZM52.2406 22.2623C53.0101 22.2623 53.6273 22.5436 54.0922 23.1061C54.5609 23.6686 54.7953 24.5045 54.7953 25.6139C54.7953 26.3483 54.6859 26.9674 54.4672 27.4713C54.2523 27.9713 53.9496 28.3502 53.559 28.608C53.1722 28.8619 52.7211 28.9889 52.2054 28.9889C51.8773 28.9889 51.5922 28.9459 51.35 28.86C51.1078 28.774 50.9008 28.6627 50.7289 28.526C50.557 28.3854 50.4125 28.233 50.2953 28.069H50.2133C50.2328 28.2252 50.2504 28.399 50.266 28.5905C50.2855 28.778 50.2953 28.9498 50.2953 29.1061V31.7487H48.9125V22.3854H50.0375L50.2308 23.2819H50.2953C50.4164 23.0983 50.5629 22.9283 50.7347 22.7721C50.9105 22.6158 51.1215 22.4928 51.3676 22.403C51.6176 22.3092 51.9086 22.2623 52.2406 22.2623ZM51.8715 23.3873C51.4926 23.3873 51.1879 23.4635 50.9574 23.6158C50.7308 23.7643 50.5648 23.9889 50.4594 24.2897C50.3578 24.5905 50.3031 24.9674 50.2953 25.4205V25.6139C50.2953 26.0944 50.3441 26.5026 50.4418 26.8385C50.5433 27.1705 50.7094 27.4244 50.9398 27.6002C51.1742 27.7721 51.4906 27.858 51.889 27.858C52.225 27.858 52.5023 27.7662 52.7211 27.5826C52.9437 27.399 53.1097 27.1373 53.2191 26.7975C53.3285 26.4576 53.3832 26.0573 53.3832 25.5963C53.3832 24.8971 53.2582 24.3541 53.0082 23.9674C52.7621 23.5807 52.3832 23.3873 51.8715 23.3873ZM59.7172 22.2623C60.4867 22.2623 61.1039 22.5436 61.5687 23.1061C62.0375 23.6686 62.2719 24.5045 62.2719 25.6139C62.2719 26.3483 62.1625 26.9674 61.9437 27.4713C61.7289 27.9713 61.4261 28.3502 61.0355 28.608C60.6488 28.8619 60.1976 28.9889 59.682 28.9889C59.3539 28.9889 59.0687 28.9459 58.8265 28.86C58.5844 28.774 58.3773 28.6627 58.2054 28.526C58.0336 28.3854 57.889 28.233 57.7719 28.069H57.6898C57.7094 28.2252 57.7269 28.399 57.7426 28.5905C57.7621 28.778 57.7719 28.9498 57.7719 29.1061V31.7487H56.389V22.3854H57.514L57.7074 23.2819H57.7719C57.8929 23.0983 58.0394 22.9283 58.2113 22.7721C58.3871 22.6158 58.598 22.4928 58.8441 22.403C59.0941 22.3092 59.3851 22.2623 59.7172 22.2623ZM59.348 23.3873C58.9691 23.3873 58.6644 23.4635 58.434 23.6158C58.2074 23.7643 58.0414 23.9889 57.9359 24.2897C57.8344 24.5905 57.7797 24.9674 57.7719 25.4205V25.6139C57.7719 26.0944 57.8207 26.5026 57.9183 26.8385C58.0199 27.1705 58.1859 27.4244 58.4164 27.6002C58.6508 27.7721 58.9672 27.858 59.3656 27.858C59.7015 27.858 59.9789 27.7662 60.1976 27.5826C60.4203 27.399 60.5863 27.1373 60.6957 26.7975C60.8051 26.4576 60.8597 26.0573 60.8597 25.5963C60.8597 24.8971 60.7347 24.3541 60.4847 23.9674C60.2386 23.5807 59.8597 23.3873 59.348 23.3873ZM72.0687 26.5397C72.0687 27.0475 71.9437 27.485 71.6937 27.8522C71.4476 28.2194 71.0922 28.5006 70.6273 28.6959C70.1664 28.8912 69.6156 28.9889 68.975 28.9889C68.6625 28.9889 68.3636 28.9713 68.0785 28.9362C67.7933 28.901 67.5238 28.8502 67.2699 28.7838C67.0199 28.7135 66.7914 28.6295 66.5844 28.5319V27.2076C66.932 27.36 67.3207 27.4987 67.7504 27.6237C68.1801 27.7448 68.6176 27.8053 69.0629 27.8053C69.4261 27.8053 69.7269 27.7584 69.9652 27.6647C70.2074 27.567 70.3871 27.4303 70.5043 27.2545C70.6215 27.0748 70.6801 26.8658 70.6801 26.6276C70.6801 26.3737 70.6117 26.1588 70.475 25.983C70.3383 25.8073 70.1312 25.6471 69.8539 25.5026C69.5804 25.3541 69.2367 25.1959 68.8226 25.028C68.5414 24.9147 68.2719 24.7858 68.014 24.6412C67.7601 24.4967 67.5336 24.3268 67.3344 24.1315C67.1351 23.9362 66.9769 23.7057 66.8597 23.4401C66.7465 23.1705 66.6898 22.8541 66.6898 22.4908C66.6898 22.0065 66.8051 21.5924 67.0355 21.2487C67.2699 20.9049 67.598 20.6412 68.0199 20.4576C68.4457 20.274 68.9418 20.1823 69.5082 20.1823C69.9574 20.1823 70.3793 20.2291 70.7738 20.3229C71.1722 20.4166 71.5629 20.5494 71.9457 20.7213L71.5004 21.8522C71.1488 21.7076 70.807 21.5924 70.475 21.5065C70.1469 21.4205 69.8109 21.3776 69.4672 21.3776C69.1703 21.3776 68.9183 21.4225 68.7113 21.5123C68.5043 21.6022 68.3461 21.7291 68.2367 21.8932C68.1312 22.0533 68.0785 22.2448 68.0785 22.4674C68.0785 22.7174 68.139 22.9283 68.2601 23.1002C68.3851 23.2682 68.5765 23.4225 68.8344 23.5631C69.0961 23.7037 69.432 23.86 69.8422 24.0319C70.3148 24.2272 70.7152 24.4323 71.0433 24.6471C71.3754 24.8619 71.6293 25.1198 71.8051 25.4205C71.9808 25.7174 72.0687 26.0905 72.0687 26.5397ZM75.9945 27.8756C76.1742 27.8756 76.3519 27.86 76.5277 27.8287C76.7035 27.7936 76.8636 27.7526 77.0082 27.7057V28.7487C76.8558 28.8151 76.6586 28.8717 76.4164 28.9186C76.1742 28.9655 75.9222 28.9889 75.6605 28.9889C75.2933 28.9889 74.9633 28.9283 74.6703 28.8073C74.3773 28.6823 74.1449 28.4694 73.973 28.1686C73.8011 27.8678 73.7152 27.4518 73.7152 26.9205V23.4342H72.8304V22.819L73.7797 22.3326L74.2308 20.944H75.098V22.3854H76.9554V23.4342H75.098V26.903C75.098 27.2311 75.1801 27.4752 75.3441 27.6354C75.5082 27.7955 75.725 27.8756 75.9945 27.8756ZM84.0687 25.6139C84.0687 26.153 83.9984 26.6315 83.8578 27.0494C83.7172 27.4674 83.5121 27.8209 83.2426 28.11C82.973 28.3951 82.6488 28.6139 82.2699 28.7662C81.891 28.9147 81.4633 28.9889 80.9867 28.9889C80.5414 28.9889 80.1332 28.9147 79.7621 28.7662C79.391 28.6139 79.0687 28.3951 78.7953 28.11C78.5258 27.8209 78.3168 27.4674 78.1683 27.0494C78.0199 26.6315 77.9457 26.153 77.9457 25.6139C77.9457 24.899 78.0687 24.2936 78.3148 23.7975C78.5648 23.2975 78.9203 22.9166 79.3812 22.6549C79.8422 22.3932 80.391 22.2623 81.0277 22.2623C81.6254 22.2623 82.1527 22.3932 82.6097 22.6549C83.0668 22.9166 83.4242 23.2975 83.682 23.7975C83.9398 24.2975 84.0687 24.903 84.0687 25.6139ZM79.3636 25.6139C79.3636 26.0865 79.4203 26.4908 79.5336 26.8268C79.6508 27.1627 79.8304 27.4205 80.0726 27.6002C80.3148 27.776 80.6273 27.8639 81.0101 27.8639C81.3929 27.8639 81.7054 27.776 81.9476 27.6002C82.1898 27.4205 82.3676 27.1627 82.4808 26.8268C82.5941 26.4908 82.6508 26.0865 82.6508 25.6139C82.6508 25.1412 82.5941 24.7408 82.4808 24.4127C82.3676 24.0807 82.1898 23.8287 81.9476 23.6569C81.7054 23.4811 81.391 23.3932 81.0043 23.3932C80.434 23.3932 80.0179 23.5846 79.7562 23.9674C79.4945 24.3502 79.3636 24.899 79.3636 25.6139ZM88.9379 22.2623C89.0472 22.2623 89.1664 22.2682 89.2953 22.2799C89.4242 22.2916 89.5355 22.3073 89.6293 22.3268L89.5004 23.6158C89.4183 23.5924 89.3168 23.5748 89.1957 23.5631C89.0785 23.5514 88.973 23.5455 88.8793 23.5455C88.6332 23.5455 88.3988 23.5865 88.1761 23.6686C87.9535 23.7467 87.7562 23.8678 87.5844 24.0319C87.4125 24.192 87.2777 24.3932 87.1801 24.6354C87.0824 24.8776 87.0336 25.1588 87.0336 25.4791V28.8717H85.6508V22.3854H86.7289L86.9164 23.528H86.9808C87.1097 23.2975 87.2699 23.0865 87.4613 22.8951C87.6527 22.7037 87.8715 22.5514 88.1176 22.4381C88.3676 22.3209 88.641 22.2623 88.9379 22.2623ZM93.4144 22.2623C93.9926 22.2623 94.4886 22.3815 94.9027 22.6198C95.3168 22.858 95.6351 23.1959 95.8578 23.6334C96.0804 24.0709 96.1918 24.5944 96.1918 25.2037V25.942H91.8617C91.8773 26.5709 92.0453 27.0553 92.3656 27.3951C92.6898 27.735 93.1429 27.9049 93.725 27.9049C94.139 27.9049 94.5101 27.8658 94.8383 27.7877C95.1703 27.7057 95.5121 27.5865 95.8636 27.4303V28.5494C95.5394 28.7018 95.2094 28.8131 94.8734 28.8834C94.5375 28.9537 94.1351 28.9889 93.6664 28.9889C93.0297 28.9889 92.4691 28.8658 91.9847 28.6198C91.5043 28.3698 91.1273 27.9987 90.8539 27.5065C90.5844 27.0143 90.4496 26.403 90.4496 25.6725C90.4496 24.9459 90.5726 24.3287 90.8187 23.8209C91.0648 23.3131 91.4105 22.9264 91.8558 22.6608C92.3011 22.3951 92.8207 22.2623 93.4144 22.2623ZM93.4144 23.2994C92.9808 23.2994 92.6293 23.4401 92.3597 23.7213C92.0941 24.0026 91.9379 24.4147 91.891 24.9576H94.8441C94.8402 24.6334 94.7855 24.3463 94.6801 24.0963C94.5785 23.8463 94.4222 23.651 94.2113 23.5104C94.0043 23.3698 93.7386 23.2994 93.4144 23.2994Z" fill="white"/>
<path d="M45.5161 12.3623C45.5161 13.1663 45.3696 13.8385 45.0767 14.3789C44.7837 14.916 44.3589 15.3213 43.8022 15.5947C43.2489 15.8649 42.5767 16 41.7856 16H39.8472V8.86133H42.0005C42.7264 8.86133 43.3514 8.99479 43.8755 9.26172C44.3996 9.52539 44.8032 9.91764 45.0864 10.4385C45.3729 10.9561 45.5161 11.5973 45.5161 12.3623ZM44.6421 12.3916C44.6421 11.7503 44.5347 11.2214 44.3198 10.8047C44.1082 10.388 43.7957 10.0788 43.3823 9.87695C42.9722 9.67188 42.4692 9.56934 41.8735 9.56934H40.6772V15.2871H41.688C42.6711 15.2871 43.4084 15.0446 43.8999 14.5596C44.3947 14.0745 44.6421 13.3519 44.6421 12.3916ZM51.5952 13.3145C51.5952 13.7539 51.5382 14.1462 51.4243 14.4912C51.3104 14.8363 51.146 15.1276 50.9312 15.3652C50.7163 15.6029 50.4559 15.7852 50.1499 15.9121C49.8472 16.0358 49.5037 16.0977 49.1196 16.0977C48.7616 16.0977 48.4328 16.0358 48.1333 15.9121C47.8371 15.7852 47.5799 15.6029 47.3618 15.3652C47.147 15.1276 46.9793 14.8363 46.8589 14.4912C46.7417 14.1462 46.6831 13.7539 46.6831 13.3145C46.6831 12.7285 46.7824 12.2305 46.981 11.8203C47.1795 11.4069 47.4627 11.0928 47.8306 10.8779C48.2017 10.6598 48.6427 10.5508 49.1538 10.5508C49.6421 10.5508 50.0685 10.6598 50.4331 10.8779C50.8009 11.096 51.0858 11.4118 51.2876 11.8252C51.4927 12.2354 51.5952 12.7318 51.5952 13.3145ZM47.5229 13.3145C47.5229 13.7441 47.5799 14.1169 47.6938 14.4326C47.8078 14.7484 47.9836 14.9925 48.2212 15.165C48.4588 15.3376 48.7648 15.4238 49.1392 15.4238C49.5103 15.4238 49.8146 15.3376 50.0522 15.165C50.2931 14.9925 50.4705 14.7484 50.5845 14.4326C50.6984 14.1169 50.7554 13.7441 50.7554 13.3145C50.7554 12.888 50.6984 12.5202 50.5845 12.2109C50.4705 11.8984 50.2948 11.6576 50.0571 11.4883C49.8195 11.319 49.5119 11.2344 49.1343 11.2344C48.5776 11.2344 48.1691 11.4183 47.9087 11.7861C47.6515 12.154 47.5229 12.6634 47.5229 13.3145ZM57.3521 15.9902L56.3999 12.875C56.3576 12.7415 56.3169 12.6113 56.2778 12.4844C56.242 12.3542 56.2078 12.2305 56.1753 12.1133C56.146 11.9928 56.1183 11.8822 56.0923 11.7812C56.0695 11.6771 56.05 11.5876 56.0337 11.5127H55.9995C55.9865 11.5876 55.9686 11.6771 55.9458 11.7812C55.923 11.8822 55.8953 11.9928 55.8628 12.1133C55.8335 12.2337 55.8009 12.3607 55.7651 12.4941C55.7293 12.6243 55.6886 12.7562 55.6431 12.8896L54.647 15.9902H53.7339L52.2593 10.6387H53.0991L53.8706 13.5928C53.9227 13.7881 53.9715 13.9818 54.0171 14.1738C54.0659 14.3626 54.1066 14.5417 54.1392 14.7109C54.175 14.877 54.201 15.0218 54.2173 15.1455H54.2563C54.2759 15.0641 54.297 14.9665 54.3198 14.8525C54.3459 14.7386 54.3735 14.6182 54.4028 14.4912C54.4354 14.361 54.4696 14.2324 54.5054 14.1055C54.5412 13.9753 54.577 13.8532 54.6128 13.7393L55.5991 10.6387H56.4731L57.4253 13.7344C57.4741 13.8906 57.5213 14.0534 57.5669 14.2227C57.6157 14.3919 57.6597 14.5563 57.6987 14.7158C57.7378 14.8721 57.7655 15.012 57.7817 15.1357H57.8208C57.8338 15.0251 57.8582 14.8883 57.894 14.7256C57.9299 14.5628 57.9705 14.3838 58.0161 14.1885C58.0649 13.9932 58.1154 13.7946 58.1675 13.5928L58.9487 10.6387H59.7739L58.2944 15.9902H57.3521ZM63.2847 10.5508C63.9194 10.5508 64.3996 10.707 64.7251 11.0195C65.0506 11.3288 65.2134 11.8268 65.2134 12.5137V16H64.4126V12.5674C64.4126 12.1214 64.3101 11.7878 64.105 11.5664C63.9032 11.3451 63.5923 11.2344 63.1724 11.2344C62.5799 11.2344 62.1632 11.402 61.9224 11.7373C61.6815 12.0726 61.561 12.5592 61.561 13.1973V16H60.7505V10.6484H61.4048L61.5269 11.4199H61.5708C61.6847 11.2311 61.8296 11.0732 62.0054 10.9463C62.1812 10.8161 62.3781 10.7184 62.5962 10.6533C62.8143 10.585 63.0438 10.5508 63.2847 10.5508ZM67.6987 16H66.8833V8.40234H67.6987V16ZM74.0269 13.3145C74.0269 13.7539 73.9699 14.1462 73.856 14.4912C73.742 14.8363 73.5776 15.1276 73.3628 15.3652C73.1479 15.6029 72.8875 15.7852 72.5815 15.9121C72.2788 16.0358 71.9354 16.0977 71.5513 16.0977C71.1932 16.0977 70.8644 16.0358 70.5649 15.9121C70.2687 15.7852 70.0116 15.6029 69.7935 15.3652C69.5786 15.1276 69.411 14.8363 69.2905 14.4912C69.1733 14.1462 69.1147 13.7539 69.1147 13.3145C69.1147 12.7285 69.214 12.2305 69.4126 11.8203C69.6112 11.4069 69.8944 11.0928 70.2622 10.8779C70.6333 10.6598 71.0744 10.5508 71.5854 10.5508C72.0737 10.5508 72.5002 10.6598 72.8647 10.8779C73.2326 11.096 73.5174 11.4118 73.7192 11.8252C73.9243 12.2354 74.0269 12.7318 74.0269 13.3145ZM69.9546 13.3145C69.9546 13.7441 70.0116 14.1169 70.1255 14.4326C70.2394 14.7484 70.4152 14.9925 70.6528 15.165C70.8905 15.3376 71.1965 15.4238 71.5708 15.4238C71.9419 15.4238 72.2463 15.3376 72.4839 15.165C72.7248 14.9925 72.9022 14.7484 73.0161 14.4326C73.13 14.1169 73.187 13.7441 73.187 13.3145C73.187 12.888 73.13 12.5202 73.0161 12.2109C72.9022 11.8984 72.7264 11.6576 72.4888 11.4883C72.2511 11.319 71.9435 11.2344 71.5659 11.2344C71.0093 11.2344 70.6007 11.4183 70.3403 11.7861C70.0832 12.154 69.9546 12.6634 69.9546 13.3145ZM77.4302 10.5605C78.0682 10.5605 78.5418 10.7038 78.8511 10.9902C79.1603 11.2767 79.3149 11.734 79.3149 12.3623V16H78.7241L78.5679 15.209H78.5288C78.3791 15.4043 78.2228 15.5687 78.0601 15.7021C77.8973 15.8324 77.7085 15.9316 77.4937 16C77.2821 16.0651 77.0216 16.0977 76.7124 16.0977C76.3869 16.0977 76.0972 16.0407 75.8433 15.9268C75.5926 15.8128 75.394 15.6403 75.2476 15.4092C75.1043 15.1781 75.0327 14.8851 75.0327 14.5303C75.0327 13.9964 75.2443 13.5863 75.6675 13.2998C76.0907 13.0133 76.7352 12.8571 77.6011 12.8311L78.5239 12.792V12.4648C78.5239 12.0026 78.4246 11.6787 78.2261 11.4932C78.0275 11.3076 77.7476 11.2148 77.3862 11.2148C77.1063 11.2148 76.8394 11.2555 76.5854 11.3369C76.3315 11.4183 76.0907 11.5143 75.8628 11.625L75.6138 11.0098C75.8547 10.8861 76.1313 10.7803 76.4438 10.6924C76.7563 10.6045 77.0851 10.5605 77.4302 10.5605ZM78.5142 13.3633L77.6987 13.3975C77.0314 13.4235 76.561 13.5326 76.2876 13.7246C76.0142 13.9167 75.8774 14.1885 75.8774 14.54C75.8774 14.846 75.9702 15.0723 76.1558 15.2188C76.3413 15.3652 76.5871 15.4385 76.8931 15.4385C77.3683 15.4385 77.7573 15.3066 78.0601 15.043C78.3628 14.7793 78.5142 14.3838 78.5142 13.8564V13.3633ZM82.8892 16.0977C82.2121 16.0977 81.675 15.8665 81.2778 15.4043C80.884 14.9421 80.687 14.2552 80.687 13.3438C80.687 12.4225 80.8888 11.7275 81.2925 11.2588C81.6961 10.7868 82.2332 10.5508 82.9038 10.5508C83.187 10.5508 83.4344 10.5882 83.646 10.6631C83.8576 10.738 84.0399 10.8389 84.1929 10.9658C84.3459 11.0895 84.4744 11.2311 84.5786 11.3906H84.6372C84.6242 11.2897 84.6112 11.1514 84.5981 10.9756C84.5851 10.7998 84.5786 10.6566 84.5786 10.5459V8.40234H85.3892V16H84.7349L84.6128 15.2383H84.5786C84.4777 15.3978 84.3491 15.5426 84.1929 15.6729C84.0399 15.8031 83.856 15.9072 83.6411 15.9854C83.4295 16.0602 83.1789 16.0977 82.8892 16.0977ZM83.0161 15.4238C83.589 15.4238 83.9943 15.2611 84.2319 14.9355C84.4696 14.61 84.5884 14.1266 84.5884 13.4854V13.3389C84.5884 12.6585 84.4744 12.1361 84.2466 11.7715C84.022 11.4069 83.6118 11.2246 83.0161 11.2246C82.5181 11.2246 82.1453 11.4167 81.8979 11.8008C81.6506 12.1816 81.5269 12.7025 81.5269 13.3633C81.5269 14.0208 81.6489 14.5286 81.8931 14.8867C82.1405 15.2448 82.5148 15.4238 83.0161 15.4238ZM94.3198 13.3145C94.3198 13.7539 94.2629 14.1462 94.1489 14.4912C94.035 14.8363 93.8706 15.1276 93.6558 15.3652C93.4409 15.6029 93.1805 15.7852 92.8745 15.9121C92.5718 16.0358 92.2284 16.0977 91.8442 16.0977C91.4862 16.0977 91.1574 16.0358 90.8579 15.9121C90.5617 15.7852 90.3045 15.6029 90.0864 15.3652C89.8716 15.1276 89.7039 14.8363 89.5835 14.4912C89.4663 14.1462 89.4077 13.7539 89.4077 13.3145C89.4077 12.7285 89.507 12.2305 89.7056 11.8203C89.9041 11.4069 90.1873 11.0928 90.5552 10.8779C90.9263 10.6598 91.3674 10.5508 91.8784 10.5508C92.3667 10.5508 92.7931 10.6598 93.1577 10.8779C93.5256 11.096 93.8104 11.4118 94.0122 11.8252C94.2173 12.2354 94.3198 12.7318 94.3198 13.3145ZM90.2476 13.3145C90.2476 13.7441 90.3045 14.1169 90.4185 14.4326C90.5324 14.7484 90.7082 14.9925 90.9458 15.165C91.1834 15.3376 91.4894 15.4238 91.8638 15.4238C92.2349 15.4238 92.5392 15.3376 92.7769 15.165C93.0177 14.9925 93.1951 14.7484 93.3091 14.4326C93.423 14.1169 93.48 13.7441 93.48 13.3145C93.48 12.888 93.423 12.5202 93.3091 12.2109C93.1951 11.8984 93.0194 11.6576 92.7817 11.4883C92.5441 11.319 92.2365 11.2344 91.8589 11.2344C91.3022 11.2344 90.8937 11.4183 90.6333 11.7861C90.3761 12.154 90.2476 12.6634 90.2476 13.3145ZM98.2554 10.5508C98.8901 10.5508 99.3703 10.707 99.6958 11.0195C100.021 11.3288 100.184 11.8268 100.184 12.5137V16H99.3833V12.5674C99.3833 12.1214 99.2808 11.7878 99.0757 11.5664C98.8739 11.3451 98.563 11.2344 98.1431 11.2344C97.5506 11.2344 97.134 11.402 96.8931 11.7373C96.6522 12.0726 96.5317 12.5592 96.5317 13.1973V16H95.7212V10.6484H96.3755L96.4976 11.4199H96.5415C96.6554 11.2311 96.8003 11.0732 96.9761 10.9463C97.1519 10.8161 97.3488 10.7184 97.5669 10.6533C97.785 10.585 98.0145 10.5508 98.2554 10.5508ZM106.18 15.4336C106.314 15.4336 106.45 15.4222 106.59 15.3994C106.73 15.3766 106.844 15.349 106.932 15.3164V15.9463C106.838 15.9886 106.706 16.0244 106.537 16.0537C106.371 16.083 106.208 16.0977 106.048 16.0977C105.765 16.0977 105.508 16.0488 105.277 15.9512C105.046 15.8503 104.86 15.681 104.72 15.4434C104.583 15.2057 104.515 14.877 104.515 14.457V11.2832H103.753V10.8877L104.52 10.5703L104.842 9.4082H105.331V10.6484H106.898V11.2832H105.331V14.4326C105.331 14.7679 105.407 15.0186 105.56 15.1846C105.716 15.3506 105.923 15.4336 106.18 15.4336ZM108.827 8.40234V10.6729C108.827 10.8031 108.823 10.9349 108.817 11.0684C108.81 11.1986 108.799 11.319 108.783 11.4297H108.836C108.947 11.2409 109.087 11.083 109.256 10.9561C109.429 10.8258 109.624 10.7282 109.842 10.6631C110.06 10.5947 110.292 10.5605 110.536 10.5605C110.965 10.5605 111.323 10.6289 111.61 10.7656C111.9 10.9023 112.116 11.1139 112.259 11.4004C112.406 11.6868 112.479 12.0579 112.479 12.5137V16H111.678V12.5674C111.678 12.1214 111.576 11.7878 111.371 11.5664C111.169 11.3451 110.858 11.2344 110.438 11.2344C110.041 11.2344 109.723 11.3109 109.486 11.4639C109.251 11.6136 109.082 11.835 108.978 12.1279C108.877 12.4209 108.827 12.779 108.827 13.2021V16H108.016V8.40234H108.827ZM116.209 10.5508C116.665 10.5508 117.056 10.6517 117.381 10.8535C117.707 11.0553 117.956 11.3385 118.128 11.7031C118.301 12.0645 118.387 12.4876 118.387 12.9727V13.4756H114.691C114.701 14.1038 114.857 14.5824 115.16 14.9111C115.462 15.2399 115.889 15.4043 116.439 15.4043C116.778 15.4043 117.077 15.3734 117.337 15.3115C117.598 15.2497 117.868 15.1585 118.148 15.0381V15.751C117.878 15.8714 117.609 15.9593 117.342 16.0146C117.079 16.07 116.766 16.0977 116.405 16.0977C115.89 16.0977 115.441 15.9935 115.057 15.7852C114.676 15.5736 114.38 15.2643 114.168 14.8574C113.957 14.4505 113.851 13.9525 113.851 13.3633C113.851 12.7871 113.947 12.2891 114.139 11.8691C114.334 11.446 114.608 11.1204 114.959 10.8926C115.314 10.6647 115.731 10.5508 116.209 10.5508ZM116.2 11.2148C115.767 11.2148 115.422 11.3564 115.165 11.6396C114.907 11.9229 114.754 12.3184 114.706 12.8262H117.538C117.534 12.5072 117.484 12.2272 117.386 11.9863C117.292 11.7422 117.147 11.5534 116.952 11.4199C116.756 11.2832 116.506 11.2148 116.2 11.2148Z" fill="white"/>
</svg>
