<svg width="23" height="23" viewBox="0 0 23 23" fill="none" xmlns="http://www.w3.org/2000/svg">
<circle cx="11.2232" cy="11.2232" r="11.2232" transform="matrix(-1 0 0 1 22.4464 0)" fill="#66A928"/>
<path fill-rule="evenodd" clip-rule="evenodd" d="M17.8479 7.31144C18.0471 7.51069 18.159 7.78089 18.159 8.06263C18.159 8.34436 18.0471 8.61457 17.8479 8.81381L9.88408 16.7776C9.77883 16.8829 9.65389 16.9664 9.51637 17.0233C9.37885 17.0803 9.23145 17.1096 9.0826 17.1096C8.93375 17.1096 8.78635 17.0803 8.64883 17.0233C8.51131 16.9664 8.38636 16.8829 8.28112 16.7776L4.32437 12.8216C4.22289 12.7236 4.14195 12.6063 4.08626 12.4767C4.03058 12.3471 4.00127 12.2076 4.00004 12.0666C3.99881 11.9255 4.0257 11.7856 4.07912 11.655C4.13254 11.5244 4.21144 11.4058 4.3112 11.306C4.41096 11.2063 4.52959 11.1274 4.66017 11.0739C4.79074 11.0205 4.93065 10.9936 5.07173 10.9949C5.21281 10.9961 5.35223 11.0254 5.48186 11.0811C5.61149 11.1368 5.72873 11.2177 5.82674 11.3192L9.08224 14.5747L16.3448 7.31144C16.4435 7.21271 16.5606 7.13438 16.6896 7.08094C16.8185 7.0275 16.9567 7 17.0963 7C17.2359 7 17.3741 7.0275 17.5031 7.08094C17.632 7.13438 17.7492 7.21271 17.8479 7.31144Z" fill="white"/>
</svg>
