<svg width="137" height="38" viewBox="0 0 137 38" fill="none" xmlns="http://www.w3.org/2000/svg">
<rect x="0.704956" y="1.02533" width="135.488" height="35.9188" rx="5.5" fill="black" stroke="#C0C1C1"/>
<path d="M42.8248 22.2979H46.024V26.5986C45.5748 26.7471 45.11 26.8623 44.6295 26.9443C44.149 27.0264 43.61 27.0674 43.0123 27.0674C42.1412 27.0674 41.403 26.8955 40.7975 26.5518C40.1959 26.2041 39.7389 25.7021 39.4264 25.0459C39.1139 24.3857 38.9576 23.5908 38.9576 22.6611C38.9576 21.7666 39.1315 20.9912 39.4791 20.335C39.8268 19.6748 40.3326 19.165 40.9967 18.8057C41.6608 18.4424 42.4655 18.2607 43.4108 18.2607C43.8756 18.2607 44.3248 18.3076 44.7584 18.4014C45.1959 18.4912 45.5963 18.6162 45.9596 18.7764L45.4674 19.9365C45.1783 19.7998 44.8541 19.6846 44.4948 19.5908C44.1354 19.4971 43.7623 19.4502 43.3756 19.4502C42.7623 19.4502 42.233 19.583 41.7877 19.8486C41.3463 20.1143 41.0065 20.4893 40.7682 20.9736C40.5299 21.4541 40.4108 22.0225 40.4108 22.6787C40.4108 23.3154 40.5065 23.874 40.6979 24.3545C40.8893 24.835 41.1881 25.21 41.5944 25.4795C42.0045 25.7451 42.5338 25.8779 43.1823 25.8779C43.5065 25.8779 43.7819 25.8604 44.0084 25.8252C44.235 25.79 44.444 25.751 44.6354 25.708V23.499H42.8248V22.2979ZM53.6764 23.6924C53.6764 24.2314 53.6061 24.71 53.4655 25.1279C53.3248 25.5459 53.1198 25.8994 52.8502 26.1885C52.5807 26.4736 52.2565 26.6924 51.8776 26.8447C51.4987 26.9932 51.0709 27.0674 50.5944 27.0674C50.149 27.0674 49.7408 26.9932 49.3698 26.8447C48.9987 26.6924 48.6764 26.4736 48.403 26.1885C48.1334 25.8994 47.9244 25.5459 47.776 25.1279C47.6276 24.71 47.5533 24.2314 47.5533 23.6924C47.5533 22.9775 47.6764 22.3721 47.9225 21.876C48.1725 21.376 48.528 20.9951 48.9889 20.7334C49.4498 20.4717 49.9987 20.3408 50.6354 20.3408C51.233 20.3408 51.7604 20.4717 52.2174 20.7334C52.6744 20.9951 53.0319 21.376 53.2897 21.876C53.5475 22.376 53.6764 22.9814 53.6764 23.6924ZM48.9713 23.6924C48.9713 24.165 49.028 24.5693 49.1412 24.9053C49.2584 25.2412 49.4381 25.499 49.6803 25.6787C49.9225 25.8545 50.235 25.9424 50.6178 25.9424C51.0006 25.9424 51.3131 25.8545 51.5553 25.6787C51.7975 25.499 51.9752 25.2412 52.0885 24.9053C52.2018 24.5693 52.2584 24.165 52.2584 23.6924C52.2584 23.2197 52.2018 22.8193 52.0885 22.4912C51.9752 22.1592 51.7975 21.9072 51.5553 21.7354C51.3131 21.5596 50.9987 21.4717 50.6119 21.4717C50.0416 21.4717 49.6256 21.6631 49.3639 22.0459C49.1022 22.4287 48.9713 22.9775 48.9713 23.6924ZM61.0006 23.6924C61.0006 24.2314 60.9303 24.71 60.7897 25.1279C60.649 25.5459 60.444 25.8994 60.1744 26.1885C59.9049 26.4736 59.5807 26.6924 59.2018 26.8447C58.8229 26.9932 58.3951 27.0674 57.9186 27.0674C57.4733 27.0674 57.0651 26.9932 56.694 26.8447C56.3229 26.6924 56.0006 26.4736 55.7272 26.1885C55.4576 25.8994 55.2487 25.5459 55.1002 25.1279C54.9518 24.71 54.8776 24.2314 54.8776 23.6924C54.8776 22.9775 55.0006 22.3721 55.2467 21.876C55.4967 21.376 55.8522 20.9951 56.3131 20.7334C56.774 20.4717 57.3229 20.3408 57.9596 20.3408C58.5573 20.3408 59.0846 20.4717 59.5416 20.7334C59.9987 20.9951 60.3561 21.376 60.6139 21.876C60.8717 22.376 61.0006 22.9814 61.0006 23.6924ZM56.2955 23.6924C56.2955 24.165 56.3522 24.5693 56.4655 24.9053C56.5826 25.2412 56.7623 25.499 57.0045 25.6787C57.2467 25.8545 57.5592 25.9424 57.942 25.9424C58.3248 25.9424 58.6373 25.8545 58.8795 25.6787C59.1217 25.499 59.2994 25.2412 59.4127 24.9053C59.526 24.5693 59.5826 24.165 59.5826 23.6924C59.5826 23.2197 59.526 22.8193 59.4127 22.4912C59.2994 22.1592 59.1217 21.9072 58.8795 21.7354C58.6373 21.5596 58.3229 21.4717 57.9362 21.4717C57.3658 21.4717 56.9498 21.6631 56.6881 22.0459C56.4264 22.4287 56.2955 22.9775 56.2955 23.6924ZM64.4342 29.833C63.5553 29.833 62.8815 29.6748 62.4127 29.3584C61.944 29.042 61.7096 28.5986 61.7096 28.0283C61.7096 27.6299 61.8346 27.292 62.0846 27.0146C62.3346 26.7412 62.692 26.5518 63.1569 26.4463C62.9811 26.3682 62.8287 26.2471 62.6998 26.083C62.5748 25.915 62.5123 25.7295 62.5123 25.5264C62.5123 25.2842 62.5807 25.0771 62.7174 24.9053C62.8541 24.7334 63.0592 24.5674 63.3326 24.4072C62.9928 24.2627 62.7194 24.0283 62.5123 23.7041C62.3092 23.376 62.2076 22.9912 62.2076 22.5498C62.2076 22.0811 62.3073 21.6826 62.5065 21.3545C62.7057 21.0225 62.9967 20.7705 63.3795 20.5986C63.7623 20.4229 64.2252 20.335 64.7682 20.335C64.8854 20.335 65.0123 20.3428 65.149 20.3584C65.2897 20.3701 65.4186 20.3857 65.5358 20.4053C65.6569 20.4209 65.7487 20.4385 65.8112 20.458H68.0553V21.2256L66.9537 21.4307C67.0592 21.5791 67.1432 21.749 67.2057 21.9404C67.2682 22.1279 67.2994 22.333 67.2994 22.5557C67.2994 23.2275 67.067 23.7568 66.6022 24.1436C66.1412 24.5264 65.5045 24.7178 64.692 24.7178C64.4967 24.71 64.3073 24.6943 64.1237 24.6709C63.983 24.7568 63.8756 24.8525 63.8014 24.958C63.7272 25.0596 63.6901 25.1748 63.6901 25.3037C63.6901 25.4092 63.7272 25.4951 63.8014 25.5615C63.8756 25.624 63.985 25.6709 64.1295 25.7021C64.278 25.7334 64.4576 25.749 64.6686 25.749H65.7877C66.4987 25.749 67.0416 25.8994 67.4166 26.2002C67.7916 26.501 67.9791 26.9424 67.9791 27.5244C67.9791 28.2627 67.6744 28.8311 67.0651 29.2295C66.4557 29.6318 65.5787 29.833 64.4342 29.833ZM64.4869 28.8662C64.9674 28.8662 65.3717 28.8193 65.6998 28.7256C66.028 28.6318 66.276 28.4971 66.444 28.3213C66.6119 28.1494 66.6959 27.9443 66.6959 27.7061C66.6959 27.4951 66.6432 27.333 66.5377 27.2197C66.4323 27.1064 66.274 27.0283 66.0631 26.9854C65.8522 26.9424 65.5905 26.9209 65.278 26.9209H64.2584C64.0045 26.9209 63.7799 26.96 63.5846 27.0381C63.3893 27.1201 63.2369 27.2373 63.1276 27.3896C63.0221 27.542 62.9694 27.7256 62.9694 27.9404C62.9694 28.2373 63.1002 28.4658 63.3619 28.626C63.6276 28.7861 64.0026 28.8662 64.4869 28.8662ZM64.7565 23.8154C65.1588 23.8154 65.4576 23.7061 65.653 23.4873C65.8483 23.2646 65.9459 22.9521 65.9459 22.5498C65.9459 22.1123 65.8444 21.7842 65.6412 21.5654C65.442 21.3467 65.1451 21.2373 64.7506 21.2373C64.3639 21.2373 64.069 21.3486 63.8658 21.5713C63.6666 21.7939 63.567 22.124 63.567 22.5615C63.567 22.9561 63.6666 23.2646 63.8658 23.4873C64.069 23.7061 64.3658 23.8154 64.7565 23.8154ZM70.6217 26.9502H69.2389V17.833H70.6217V26.9502ZM75.1744 20.3408C75.7526 20.3408 76.2487 20.46 76.6627 20.6982C77.0768 20.9365 77.3951 21.2744 77.6178 21.7119C77.8405 22.1494 77.9518 22.6729 77.9518 23.2822V24.0205H73.6217C73.6373 24.6494 73.8053 25.1338 74.1256 25.4736C74.4498 25.8135 74.903 25.9834 75.485 25.9834C75.899 25.9834 76.2701 25.9443 76.5983 25.8662C76.9303 25.7842 77.2721 25.665 77.6237 25.5088V26.6279C77.2994 26.7803 76.9694 26.8916 76.6334 26.9619C76.2975 27.0322 75.8951 27.0674 75.4264 27.0674C74.7897 27.0674 74.2291 26.9443 73.7448 26.6982C73.2643 26.4482 72.8873 26.0771 72.6139 25.585C72.3444 25.0928 72.2096 24.4814 72.2096 23.751C72.2096 23.0244 72.3326 22.4072 72.5787 21.8994C72.8248 21.3916 73.1705 21.0049 73.6158 20.7393C74.0612 20.4736 74.5807 20.3408 75.1744 20.3408ZM75.1744 21.3779C74.7408 21.3779 74.3893 21.5186 74.1198 21.7998C73.8541 22.0811 73.6979 22.4932 73.651 23.0361H76.6041C76.6002 22.7119 76.5455 22.4248 76.4401 22.1748C76.3385 21.9248 76.1823 21.7295 75.9713 21.5889C75.7643 21.4482 75.4987 21.3779 75.1744 21.3779ZM85.2526 18.3838C86.358 18.3838 87.1647 18.6104 87.6725 19.0635C88.1803 19.5166 88.4342 20.1514 88.4342 20.9678C88.4342 21.3389 88.3756 21.6924 88.2584 22.0283C88.1451 22.3604 87.9576 22.6553 87.6959 22.9131C87.4342 23.167 87.0885 23.3682 86.6588 23.5166C86.233 23.665 85.7076 23.7393 85.0826 23.7393H84.1686V26.9502H82.7623V18.3838H85.2526ZM85.1588 19.5498H84.1686V22.5674H84.9362C85.3776 22.5674 85.7526 22.5166 86.0612 22.415C86.3698 22.3096 86.6041 22.1436 86.7643 21.917C86.9244 21.6904 87.0045 21.3916 87.0045 21.0205C87.0045 20.5244 86.8541 20.1553 86.5533 19.9131C86.2565 19.6709 85.7916 19.5498 85.1588 19.5498ZM91.3873 26.9502H90.0045V17.833H91.3873V26.9502ZM95.899 20.3408C96.7194 20.3408 97.3385 20.5225 97.7565 20.8857C98.1783 21.249 98.3893 21.8154 98.3893 22.585V26.9502H97.4108L97.1471 26.0303H97.1002C96.9166 26.2646 96.7272 26.458 96.5319 26.6104C96.3365 26.7627 96.11 26.876 95.8522 26.9502C95.5983 27.0283 95.2877 27.0674 94.9205 27.0674C94.5338 27.0674 94.1881 26.9971 93.8834 26.8564C93.5787 26.7119 93.3385 26.4932 93.1627 26.2002C92.9869 25.9072 92.899 25.5361 92.899 25.0869C92.899 24.4189 93.1471 23.917 93.6432 23.5811C94.1432 23.2451 94.8971 23.0596 95.9049 23.0244L97.0299 22.9834V22.6436C97.0299 22.1943 96.9244 21.874 96.7135 21.6826C96.5065 21.4912 96.2135 21.3955 95.8346 21.3955C95.5104 21.3955 95.1959 21.4424 94.8912 21.5361C94.5865 21.6299 94.2897 21.7451 94.0006 21.8818L93.5553 20.9092C93.8717 20.7412 94.2311 20.6045 94.6334 20.499C95.0397 20.3936 95.4615 20.3408 95.899 20.3408ZM97.024 23.8506L96.1862 23.8799C95.4987 23.9033 95.0162 24.0205 94.7389 24.2314C94.4615 24.4424 94.3229 24.7314 94.3229 25.0986C94.3229 25.4189 94.4186 25.6533 94.61 25.8018C94.8014 25.9463 95.0533 26.0186 95.3658 26.0186C95.8424 26.0186 96.2369 25.8838 96.5494 25.6143C96.8658 25.3408 97.024 24.9404 97.024 24.4131V23.8506ZM99.3385 20.4639H100.839L102.169 24.167C102.227 24.335 102.28 24.501 102.327 24.665C102.378 24.8252 102.421 24.9834 102.456 25.1396C102.495 25.2959 102.526 25.4521 102.549 25.6084H102.585C102.624 25.4053 102.678 25.1787 102.749 24.9287C102.823 24.6748 102.905 24.4209 102.995 24.167L104.272 20.4639H105.755L102.971 27.8408C102.811 28.2627 102.614 28.6221 102.38 28.9189C102.149 29.2197 101.876 29.4463 101.559 29.5986C101.243 29.7549 100.881 29.833 100.475 29.833C100.28 29.833 100.11 29.8213 99.9655 29.7979C99.8209 29.7783 99.6979 29.7568 99.5963 29.7334V28.6318C99.6783 28.6514 99.7819 28.6689 99.9069 28.6846C100.032 28.7002 100.161 28.708 100.294 28.708C100.54 28.708 100.753 28.6592 100.932 28.5615C101.112 28.4639 101.264 28.3252 101.389 28.1455C101.514 27.9697 101.618 27.7686 101.7 27.542L101.928 26.9326L99.3385 20.4639Z" fill="white"/>
<path d="M42.2711 8.90369H44.7662V12.3656C44.3919 12.4926 44.0061 12.587 43.609 12.6488C43.2151 12.7107 42.774 12.7416 42.2858 12.7416C41.5436 12.7416 40.917 12.5935 40.4059 12.2972C39.8981 12.001 39.5123 11.5795 39.2487 11.0326C38.985 10.4825 38.8531 9.82979 38.8531 9.07458C38.8531 8.33565 38.998 7.69112 39.2877 7.14099C39.5807 6.59086 40.0022 6.16443 40.5524 5.86169C41.1058 5.5557 41.7698 5.40271 42.5446 5.40271C42.9417 5.40271 43.3177 5.44014 43.6725 5.51501C44.0306 5.58663 44.3626 5.68917 44.6686 5.82263L44.3512 6.54529C44.0875 6.43136 43.7962 6.3337 43.4772 6.25232C43.1614 6.17094 42.8343 6.13025 42.4957 6.13025C41.913 6.13025 41.4134 6.25069 40.9967 6.49158C40.5833 6.73246 40.2659 7.07263 40.0446 7.51208C39.8265 7.95154 39.7174 8.47237 39.7174 9.07458C39.7174 9.67029 39.8134 10.1895 40.0055 10.6322C40.1976 11.0717 40.497 11.4135 40.9039 11.6576C41.3108 11.9017 41.8349 12.0238 42.4762 12.0238C42.7985 12.0238 43.0752 12.0059 43.3063 11.9701C43.5374 11.931 43.7474 11.8855 43.9362 11.8334V9.64587H42.2711V8.90369ZM48.4332 7.1947C48.889 7.1947 49.2796 7.29561 49.6051 7.49744C49.9306 7.69926 50.1796 7.98246 50.3522 8.34705C50.5247 8.70837 50.611 9.13155 50.611 9.61658V10.1195H46.9147C46.9244 10.7478 47.0807 11.2263 47.3834 11.5551C47.6862 11.8838 48.1126 12.0482 48.6627 12.0482C49.0013 12.0482 49.3007 12.0173 49.5612 11.9554C49.8216 11.8936 50.0918 11.8024 50.3717 11.682V12.3949C50.1015 12.5153 49.833 12.6032 49.566 12.6586C49.3024 12.7139 48.9899 12.7416 48.6285 12.7416C48.1142 12.7416 47.665 12.6374 47.2809 12.4291C46.9 12.2175 46.6038 11.9082 46.3922 11.5013C46.1806 11.0944 46.0748 10.5964 46.0748 10.0072C46.0748 9.43103 46.1709 8.93298 46.3629 8.51306C46.5582 8.08988 46.8317 7.76436 47.1832 7.5365C47.538 7.30863 47.9547 7.1947 48.4332 7.1947ZM48.4235 7.85876C47.9905 7.85876 47.6455 8.00037 47.3883 8.28357C47.1311 8.56677 46.9781 8.96228 46.9293 9.47009H49.7614C49.7581 9.15108 49.7076 8.87113 49.61 8.63025C49.5156 8.38611 49.3707 8.19731 49.1754 8.06384C48.9801 7.92712 48.7295 7.85876 48.4235 7.85876ZM53.7164 12.0775C53.8499 12.0775 53.9866 12.0661 54.1266 12.0433C54.2666 12.0205 54.3805 11.9929 54.4684 11.9603V12.5902C54.374 12.6325 54.2421 12.6683 54.0729 12.6976C53.9069 12.7269 53.7441 12.7416 53.5846 12.7416C53.3014 12.7416 53.0442 12.6927 52.8131 12.5951C52.582 12.4942 52.3964 12.3249 52.2565 12.0873C52.1198 11.8497 52.0514 11.5209 52.0514 11.101V7.92712H51.2897V7.53162L52.0563 7.21423L52.3785 6.05212H52.8668V7.29236H54.4342V7.92712H52.8668V11.0765C52.8668 11.4118 52.9433 11.6625 53.0963 11.8285C53.2526 11.9945 53.4593 12.0775 53.7164 12.0775ZM58.9606 7.29236V12.6439H58.15V7.29236H58.9606ZM58.5651 5.29041C58.6985 5.29041 58.8125 5.33435 58.9069 5.42224C59.0045 5.50688 59.0533 5.64034 59.0533 5.82263C59.0533 6.00167 59.0045 6.13513 58.9069 6.22302C58.8125 6.31091 58.6985 6.35486 58.5651 6.35486C58.4251 6.35486 58.3079 6.31091 58.2135 6.22302C58.1224 6.13513 58.0768 6.00167 58.0768 5.82263C58.0768 5.64034 58.1224 5.50688 58.2135 5.42224C58.3079 5.33435 58.4251 5.29041 58.5651 5.29041ZM62.4078 12.0775C62.5413 12.0775 62.678 12.0661 62.818 12.0433C62.958 12.0205 63.0719 11.9929 63.1598 11.9603V12.5902C63.0654 12.6325 62.9336 12.6683 62.7643 12.6976C62.5983 12.7269 62.4355 12.7416 62.276 12.7416C61.9928 12.7416 61.7356 12.6927 61.5045 12.5951C61.2734 12.4942 61.0878 12.3249 60.9479 12.0873C60.8112 11.8497 60.7428 11.5209 60.7428 11.101V7.92712H59.9811V7.53162L60.7477 7.21423L61.0699 6.05212H61.5582V7.29236H63.1256V7.92712H61.5582V11.0765C61.5582 11.4118 61.6347 11.6625 61.7877 11.8285C61.944 11.9945 62.1507 12.0775 62.4078 12.0775ZM71.4557 9.95837C71.4557 10.3978 71.3987 10.7901 71.2848 11.1351C71.1709 11.4802 71.0065 11.7715 70.7916 12.0092C70.5768 12.2468 70.3164 12.4291 70.0104 12.556C69.7076 12.6797 69.3642 12.7416 68.9801 12.7416C68.622 12.7416 68.2933 12.6797 67.9938 12.556C67.6976 12.4291 67.4404 12.2468 67.2223 12.0092C67.0074 11.7715 66.8398 11.4802 66.7194 11.1351C66.6022 10.7901 66.5436 10.3978 66.5436 9.95837C66.5436 9.37244 66.6429 8.87439 66.8414 8.46423C67.04 8.05082 67.3232 7.73669 67.691 7.52185C68.0621 7.30375 68.5032 7.1947 69.0143 7.1947C69.5026 7.1947 69.929 7.30375 70.2936 7.52185C70.6614 7.73995 70.9462 8.0557 71.1481 8.46912C71.3531 8.87927 71.4557 9.37569 71.4557 9.95837ZM67.3834 9.95837C67.3834 10.3881 67.4404 10.7608 67.5543 11.0765C67.6683 11.3923 67.844 11.6364 68.0817 11.809C68.3193 11.9815 68.6253 12.0677 68.9996 12.0677C69.3707 12.0677 69.6751 11.9815 69.9127 11.809C70.1536 11.6364 70.331 11.3923 70.4449 11.0765C70.5589 10.7608 70.6158 10.3881 70.6158 9.95837C70.6158 9.53194 70.5589 9.1641 70.4449 8.85486C70.331 8.54236 70.1552 8.30147 69.9176 8.1322C69.68 7.96293 69.3724 7.8783 68.9948 7.8783C68.4381 7.8783 68.0296 8.06222 67.7692 8.43005C67.512 8.79789 67.3834 9.30733 67.3834 9.95837ZM75.3912 7.1947C76.026 7.1947 76.5061 7.35095 76.8317 7.66345C77.1572 7.9727 77.3199 8.47074 77.3199 9.15759V12.6439H76.5192V9.2113C76.5192 8.76534 76.4166 8.43168 76.2115 8.21033C76.0097 7.98897 75.6989 7.8783 75.2789 7.8783C74.6865 7.8783 74.2698 8.04594 74.0289 8.38123C73.788 8.71651 73.6676 9.20317 73.6676 9.84119V12.6439H72.8571V7.29236H73.5114L73.6334 8.06384H73.6774C73.7913 7.87504 73.9362 7.71716 74.1119 7.59021C74.2877 7.46 74.4847 7.36235 74.7028 7.29724C74.9209 7.22888 75.1503 7.1947 75.3912 7.1947Z" fill="white"/>
<g clip-path="url(#clip0_58_91)">
<path d="M19.0081 18.3857L8.13367 29.6733C8.25579 30.1021 8.47524 30.4975 8.77524 30.8294C9.07525 31.1613 9.44787 31.4208 9.86462 31.5881C10.2814 31.7554 10.7312 31.8261 11.1798 31.7948C11.6283 31.7634 12.0637 31.6309 12.4527 31.4073L24.6884 24.5032L19.0081 18.3857Z" fill="#EA4335"/>
<path d="M30.0033 16.4674L24.7122 13.4648L18.7563 18.6429L24.7364 24.4874L29.9873 21.5169C30.4525 21.2756 30.8421 20.9128 31.1139 20.4677C31.3858 20.0227 31.5295 19.5124 31.5295 18.9921C31.5295 18.4719 31.3858 17.9616 31.1139 17.5166C30.8421 17.0715 30.4525 16.7087 29.9873 16.4673L30.0033 16.4674Z" fill="#FBBC04"/>
<path d="M8.13295 8.25488C8.06726 8.49564 8.03454 8.74406 8.03567 8.99345V28.9354C8.03632 29.1847 8.06901 29.4329 8.13295 29.674L19.3801 18.6754L8.13295 8.25488Z" fill="#4285F4"/>
<path d="M19.0891 18.9641L24.7127 13.4647L12.4932 6.52839C12.0335 6.26164 11.5106 6.12037 10.9778 6.11896C9.65562 6.11642 8.49323 6.98583 8.13367 8.24648L19.0891 18.9641Z" fill="#34A853"/>
</g>
<defs>
<clipPath id="clip0_58_91">
<rect width="23.4938" height="25.7313" fill="white" transform="translate(8.03564 6.11896)"/>
</clipPath>
</defs>
</svg>
