<svg width="83" height="84" viewBox="0 0 83 84" fill="none" xmlns="http://www.w3.org/2000/svg">
<circle cx="41.4523" cy="42.1366" r="41.4523" fill="#F0FFF1"/>
<g clip-path="url(#clip0_20_2)">
<path d="M40.3325 30.9333H37.8117V43.5371H47.8947V41.0163H40.3325V30.9333Z" fill="#1F8F0A"/>
<path d="M40.3325 20.8503C32.7702 20.8503 26.2163 24.8835 22.9393 31.1854L20.1665 28.4126V38.4956H30.2495L26.4684 34.7145C28.9891 29.673 34.2827 25.8918 40.3325 25.8918C48.6509 25.8918 55.457 32.6979 55.457 41.0163C55.457 49.3348 48.6509 56.1408 40.3325 56.1408C35.7951 56.1408 31.7619 54.1242 28.9891 50.8472L25.208 54.1242C28.737 58.4095 34.2827 61.1823 40.3325 61.1823C51.4238 61.1823 60.4985 52.1076 60.4985 41.0163C60.4985 29.925 51.4238 20.8503 40.3325 20.8503Z" fill="#1F8F0A"/>
</g>
<defs>
<clipPath id="clip0_20_2">
<rect width="40.332" height="40.332" fill="white" transform="translate(20.1665 20.8503)"/>
</clipPath>
</defs>
</svg>
