<svg width="140" height="133" viewBox="0 0 140 133" fill="none" xmlns="http://www.w3.org/2000/svg">
<path d="M52.8009 29.7028V49.5047H31.9931V29.7028H52.8009ZM63.2048 19.8019H21.5892V59.4057H63.2048V19.8019ZM52.8009 82.5079V102.31H31.9931V82.5079H52.8009ZM63.2048 72.6069H21.5892V112.211H63.2048V72.6069ZM108.288 29.7028V49.5047H87.4805V29.7028H108.288ZM118.692 19.8019H77.0766V59.4057H118.692V19.8019ZM77.0766 72.6069H87.4805V82.5079H77.0766V72.6069ZM87.4805 82.5079H97.8844V92.4088H87.4805V82.5079ZM97.8844 72.6069H108.288V82.5079H97.8844V72.6069ZM77.0766 92.4088H87.4805V102.31H77.0766V92.4088ZM87.4805 102.31H97.8844V112.211H87.4805V102.31ZM97.8844 92.4088H108.288V102.31H97.8844V92.4088ZM108.288 82.5079H118.692V92.4088H108.288V82.5079ZM108.288 102.31H118.692V112.211H108.288V102.31ZM139.5 33.0032H125.628V13.2013H104.82V0H139.5V33.0032ZM139.5 132.013V99.0095H125.628V118.811H104.82V132.013H139.5ZM0.781372 132.013H35.461V118.811H14.6532V99.0095H0.781372V132.013ZM0.781372 0V33.0032H14.6532V13.2013H35.461V0H0.781372Z" fill="black"/>
</svg>
