<svg width="83" height="84" viewBox="0 0 83 84" fill="none" xmlns="http://www.w3.org/2000/svg">
<circle cx="41.4523" cy="42.1369" r="41.4523" fill="#F0FFF1"/>
<path d="M39.8605 23.0911L55.7825 27.9443C56.2266 28.0796 56.6147 28.3498 56.8902 28.7155C57.1657 29.0812 57.3142 29.5233 57.314 29.9772V33.7342H61.6774C62.2561 33.7342 62.811 33.9585 63.2201 34.3577C63.6293 34.7569 63.8591 35.2983 63.8591 35.8628V40.1201H35.4971V35.8628C35.4971 35.2983 35.7269 34.7569 36.1361 34.3577C36.5452 33.9585 37.1001 33.7342 37.6788 33.7342H52.9506V31.5417L39.8605 27.5484L26.7703 31.5417V47.3021C26.7699 48.6053 27.0762 49.8912 27.6656 51.0607C28.2549 52.2302 29.1115 53.2521 30.1693 54.0477L30.5817 54.3372L39.8605 60.5103L48.1116 55.0205H37.6788C37.1001 55.0205 36.5452 54.7963 36.1361 54.3971C35.7269 53.9979 35.4971 53.4564 35.4971 52.8919V44.3774H63.8591V52.8919C63.8591 53.4564 63.6293 53.9979 63.2201 54.3971C62.811 54.7963 62.2561 55.0205 61.6774 55.0205L54.6524 55.0227C53.8081 56.1083 52.7827 57.0661 51.598 57.8537L39.8605 65.6637L28.1229 57.8559C26.3612 56.6839 24.9196 55.1099 23.9234 53.2706C22.9273 51.4313 22.4066 49.3824 22.4069 47.3021V29.9772C22.4071 29.5237 22.5558 29.0821 22.8313 28.7168C23.1068 28.3515 23.4947 28.0816 23.9384 27.9465L39.8605 23.0911Z" fill="#1F8F0A"/>
</svg>
