<svg width="18" height="23" viewBox="0 0 18 23" fill="none" xmlns="http://www.w3.org/2000/svg">
<path d="M10.7695 0.950195C11.0576 0.95024 11.3099 1.04851 11.5234 1.24414C11.7369 1.4398 11.8457 1.67263 11.8457 1.94043V4.84961H14.8467C15.4507 4.84961 15.9695 5.04782 16.4004 5.44336C16.8312 5.83888 17.0488 6.31594 17.0498 6.87207V18.8057C17.0498 19.3629 16.8323 19.8405 16.4004 20.2354C15.9806 20.6191 15.4784 20.8138 14.8965 20.8252V22.0498H13.4629V20.8281H4.53711V22.0498H3.10449V20.8252C2.52107 20.8145 2.01854 20.6199 1.59961 20.2354C1.16874 19.8398 0.951199 19.363 0.950195 18.8076V6.87402C0.950195 6.31682 1.16767 5.83919 1.59961 5.44434C2.03132 5.04973 2.55027 4.85127 3.15332 4.84961H6.15527V1.94043C6.15529 1.67254 6.26488 1.43984 6.47852 1.24414C6.69201 1.04861 6.9433 0.950241 7.23047 0.950195H10.7695ZM15.6162 11.29C14.6888 11.7152 13.7363 12.0442 12.7578 12.2744C11.77 12.5069 10.7563 12.6589 9.7168 12.7305V13.9707H8.2832V12.7305C7.24453 12.6589 6.2309 12.5069 5.24219 12.2744C4.26303 12.0442 3.31025 11.7161 2.38379 11.291V18.8057C2.38379 19.0114 2.45496 19.1778 2.59766 19.3086C2.74075 19.4397 2.92496 19.5068 3.1543 19.5068H14.8467C15.0752 19.5068 15.2591 19.4398 15.4023 19.3086C15.545 19.1778 15.6162 19.0114 15.6162 18.8057V11.29ZM3.15332 6.17188C2.92485 6.17188 2.74083 6.23806 2.59766 6.36914C2.45483 6.49998 2.38379 6.66733 2.38379 6.87402V9.79785C3.39433 10.3384 4.45366 10.7446 5.5625 11.0156C6.68121 11.2891 7.82704 11.4269 9 11.4277C10.1738 11.4277 11.3198 11.2899 12.4385 11.0156C13.5474 10.7438 14.6065 10.3376 15.6162 9.79785V6.87305C15.6162 6.66723 15.5452 6.50002 15.4023 6.36914C15.2592 6.23806 15.0752 6.17188 14.8467 6.17188H3.15332ZM7.58887 4.84961H10.4111V2.27246H7.58887V4.84961Z" fill="#3E7DC3" stroke="#3E7DC3" stroke-width="0.1"/>
</svg>
