<svg width="83" height="83" viewBox="0 0 83 83" fill="none" xmlns="http://www.w3.org/2000/svg">
<circle cx="41.4523" cy="41.4523" r="41.4523" fill="#F0FFF1"/>
<path d="M58.8961 39.9468C58.896 36.2863 57.8355 32.7043 55.8429 29.6337C53.8503 26.5631 51.0108 24.1354 47.6678 22.644C44.3247 21.1527 40.6212 20.6617 37.005 21.2302C33.3888 21.7987 30.0147 23.4025 27.2906 25.8477C24.5665 28.2929 22.6091 31.4748 21.655 35.0087C20.7008 38.5426 20.7908 42.2772 21.9141 45.7611C23.0374 49.2449 25.1458 52.3288 27.9845 54.6399C30.8232 56.9511 34.2707 58.3905 37.9101 58.7842M22.2632 33.6311H57.6329M22.2632 46.2624H35.7374" stroke="#1F8F0A" stroke-width="3" stroke-linecap="round" stroke-linejoin="round"/>
<path d="M38.8957 21C36.2193 25.2881 34.4818 30.0946 33.7974 35.1027C33.113 40.1109 33.4973 45.2072 34.925 50.0562M41.001 21C44.1733 26.0831 46.0185 31.8813 46.3675 37.8628M52.1593 58.5086L47.5865 60.9043C47.4508 60.975 47.2982 61.0065 47.1456 60.9954C46.993 60.9843 46.8465 60.931 46.7225 60.8414C46.5984 60.7519 46.5017 60.6297 46.4431 60.4884C46.3845 60.347 46.3664 60.1922 46.3907 60.0412L47.2644 54.9655L43.5653 51.3719C43.4549 51.2652 43.3767 51.1296 43.3397 50.9805C43.3027 50.8315 43.3083 50.6751 43.356 50.5291C43.4036 50.3831 43.4913 50.2535 43.6091 50.155C43.7269 50.0564 43.8701 49.993 44.0222 49.972L49.1339 49.2309L51.4203 44.6142C51.4887 44.4767 51.5941 44.361 51.7247 44.2801C51.8552 44.1992 52.0057 44.1564 52.1593 44.1564C52.3129 44.1564 52.4634 44.1992 52.594 44.2801C52.7245 44.361 52.8299 44.4767 52.8983 44.6142L55.1847 49.2309L60.2964 49.972C60.4481 49.9938 60.5907 50.0576 60.7079 50.1562C60.8252 50.2548 60.9126 50.3843 60.9601 50.5299C61.0076 50.6756 61.0135 50.8316 60.9769 50.9804C60.9404 51.1292 60.8629 51.2649 60.7533 51.3719L57.0542 54.9655L57.9258 60.0391C57.952 60.1904 57.9352 60.346 57.8774 60.4882C57.8195 60.6305 57.723 60.7536 57.5986 60.8437C57.4743 60.9338 57.3272 60.9873 57.174 60.998C57.0209 61.0087 56.8678 60.9763 56.7321 60.9043L52.1593 58.5086Z" stroke="#1F8F0A" stroke-width="3" stroke-linecap="round" stroke-linejoin="round"/>
</svg>
