<svg width="25" height="27" viewBox="0 0 25 27" fill="none" xmlns="http://www.w3.org/2000/svg">
<path d="M13.5708 3.03467C14.7427 3.03792 15.3375 3.04442 15.851 3.05958L16.0531 3.06717C16.2865 3.07583 16.5167 3.08667 16.7948 3.09967C17.9031 3.15383 18.6594 3.33583 19.3229 3.60342C20.0104 3.87858 20.5896 4.25125 21.1687 4.8525C21.6986 5.39388 22.1085 6.04901 22.3698 6.77217C22.6271 7.46225 22.8021 8.24875 22.8542 9.4025C22.8667 9.69067 22.8771 9.93008 22.8854 10.1738L22.8917 10.384C22.9073 10.917 22.9135 11.5356 22.9156 12.7543L22.9167 13.5625V14.9817C22.9192 15.7719 22.9112 16.562 22.8927 17.352L22.8865 17.5622C22.8781 17.8059 22.8677 18.0453 22.8552 18.3335C22.8031 19.4872 22.626 20.2727 22.3698 20.9638C22.1085 21.687 21.6986 22.3421 21.1687 22.8835C20.6482 23.4346 20.0183 23.8609 19.3229 24.1326C18.6594 24.4002 17.9031 24.5822 16.7948 24.6363L16.0531 24.6688L15.851 24.6753C15.3375 24.6905 14.7427 24.6981 13.5708 24.7003L12.7937 24.7013H11.4302C10.6701 24.7041 9.90991 24.6958 9.14999 24.6764L8.94791 24.6699C8.70063 24.6602 8.4534 24.649 8.20624 24.6363C7.09791 24.5822 6.34166 24.4002 5.67708 24.1326C4.98211 23.8607 4.35254 23.4345 3.83228 22.8835C3.30202 22.3422 2.89177 21.6871 2.6302 20.9638C2.37291 20.2737 2.19791 19.4872 2.14583 18.3335L2.11458 17.5622L2.10937 17.352C2.09017 16.5621 2.08148 15.7719 2.08333 14.9817V12.7543C2.08044 11.9642 2.08808 11.174 2.10624 10.384L2.11353 10.1738C2.12187 9.93008 2.13228 9.69067 2.14478 9.4025C2.19687 8.24875 2.37187 7.46333 2.62916 6.77217C2.89134 6.04872 3.30231 5.39356 3.83333 4.8525C4.35328 4.30168 4.98248 3.87541 5.67708 3.60342C6.34166 3.33583 7.09687 3.15383 8.20624 3.09967C8.48333 3.08667 8.71458 3.07583 8.94791 3.06717L9.14999 3.06067C9.90957 3.04142 10.6694 3.03311 11.4292 3.03575L13.5708 3.03467ZM12.5 8.45133C11.1187 8.45133 9.7939 9.02202 8.81715 10.0378C7.84039 11.0537 7.29166 12.4314 7.29166 13.868C7.29166 15.3046 7.84039 16.6823 8.81715 17.6982C9.7939 18.714 11.1187 19.2847 12.5 19.2847C13.8813 19.2847 15.2061 18.714 16.1828 17.6982C17.1596 16.6823 17.7083 15.3046 17.7083 13.868C17.7083 12.4314 17.1596 11.0537 16.1828 10.0378C15.2061 9.02202 13.8813 8.45133 12.5 8.45133ZM12.5 10.618C12.9104 10.6179 13.3167 10.7019 13.6959 10.8652C14.0751 11.0284 14.4196 11.2678 14.7099 11.5695C15.0001 11.8713 15.2303 12.2295 15.3874 12.6238C15.5445 13.0181 15.6254 13.4407 15.6255 13.8675C15.6256 14.2943 15.5448 14.7169 15.3878 15.1112C15.2309 15.5056 15.0007 15.8639 14.7106 16.1657C14.4205 16.4676 14.076 16.707 13.6969 16.8704C13.3178 17.0338 12.9114 17.1179 12.501 17.118C11.6722 17.118 10.8774 16.7756 10.2913 16.1661C9.70527 15.5566 9.37604 14.73 9.37604 13.868C9.37604 13.006 9.70527 12.1794 10.2913 11.5699C10.8774 10.9604 11.6722 10.618 12.501 10.618M17.9698 6.82633C17.6245 6.82633 17.2933 6.96901 17.0491 7.22296C16.8049 7.47692 16.6677 7.82135 16.6677 8.1805C16.6677 8.53965 16.8049 8.88409 17.0491 9.13804C17.2933 9.392 17.6245 9.53467 17.9698 9.53467C18.3151 9.53467 18.6463 9.392 18.8905 9.13804C19.1347 8.88409 19.2719 8.53965 19.2719 8.1805C19.2719 7.82135 19.1347 7.47692 18.8905 7.22296C18.6463 6.96901 18.3151 6.82633 17.9698 6.82633Z" fill="white"/>
</svg>
