<svg width="24" height="24" viewBox="0 0 24 24" fill="none" xmlns="http://www.w3.org/2000/svg">
<g clip-path="url(#clip0_1_19)">
<path d="M12.5714 1.9632C6.25952 1.9632 1.14285 6.86667 1.14285 12.9156C1.14285 18.9645 6.25952 23.868 12.5714 23.868C18.8833 23.868 24 18.9645 24 12.9156C24 6.86667 18.8833 1.9632 12.5714 1.9632ZM9.77381 17.4551H7.45952V10.3178H9.77381V17.4551ZM8.60238 9.44162C7.87142 9.44162 7.39881 8.94534 7.39881 8.33155C7.39881 7.70521 7.88571 7.22376 8.63214 7.22376C9.37857 7.22376 9.83571 7.70521 9.85 8.33155C9.85 8.94534 9.37857 9.44162 8.60238 9.44162ZM18.2262 17.4551H15.9119V13.4997C15.9119 12.579 15.5762 11.9538 14.7393 11.9538C14.1 11.9538 13.7202 12.3771 13.5524 12.7844C13.4905 12.9293 13.475 13.1346 13.475 13.3388V17.454H11.1595V12.5939C11.1595 11.7028 11.1298 10.9578 11.0988 10.3167H13.1095L13.2155 11.3081H13.2619C13.5667 10.8426 14.3131 10.1558 15.5619 10.1558C17.0845 10.1558 18.2262 11.1335 18.2262 13.235V17.4551Z" fill="white"/>
</g>
<defs>
<clipPath id="clip0_1_19">
<rect width="24" height="23" fill="white" transform="translate(0 0.867981)"/>
</clipPath>
</defs>
</svg>
