<svg width="23" height="25" viewBox="0 0 23 25" fill="none" xmlns="http://www.w3.org/2000/svg">
<path d="M6.25293 5.74992C7.75812 4.2107 9.78463 3.3535 11.8921 3.36461C13.9996 3.37572 16.0177 4.25423 17.5079 5.80924C18.9981 7.36425 19.84 9.4701 19.8507 11.6692C19.8613 13.8683 19.0398 15.9829 17.5647 17.5535L13.3369 21.9651C12.9581 22.3603 12.4444 22.5823 11.9088 22.5823C11.3732 22.5823 10.8595 22.3603 10.4807 21.9651L6.25293 17.5535C4.75299 15.9882 3.91034 13.8653 3.91034 11.6517C3.91034 9.43816 4.75299 7.31523 6.25293 5.74992Z" stroke="white" stroke-width="1.2" stroke-linejoin="round"/>
<path d="M11.909 14.8134C13.5824 14.8134 14.939 13.3979 14.939 11.6517C14.939 9.90558 13.5824 8.49005 11.909 8.49005C10.2357 8.49005 8.8791 9.90558 8.8791 11.6517C8.8791 13.3979 10.2357 14.8134 11.909 14.8134Z" stroke="white" stroke-width="1.2" stroke-linecap="round" stroke-linejoin="round"/>
</svg>
