<svg width="25" height="25" viewBox="0 0 25 25" fill="none" xmlns="http://www.w3.org/2000/svg">
<path d="M10.6646 4.70065C10.6646 4.21387 10.858 3.74702 11.2022 3.40282C11.5464 3.05861 12.0132 2.86523 12.5 2.86523C12.9868 2.86523 13.4536 3.05861 13.7978 3.40282C14.142 3.74702 14.3354 4.21387 14.3354 4.70065V9.27148L21.349 12.9538C21.517 13.0421 21.6578 13.1746 21.756 13.3371C21.8542 13.4996 21.9062 13.6858 21.9063 13.8757V14.3246C21.9063 14.4166 21.8861 14.5075 21.847 14.5908C21.8079 14.6741 21.7509 14.7477 21.68 14.8064C21.6092 14.8651 21.5263 14.9075 21.4372 14.9304C21.348 14.9534 21.255 14.9564 21.1646 14.9392L14.3354 13.6475V17.9257C14.3352 18.039 14.3659 18.1502 14.424 18.2474C14.4822 18.3447 14.5657 18.4243 14.6656 18.4777L16.6052 19.5152C16.8544 19.6487 17.0628 19.8472 17.2081 20.0897C17.3534 20.3322 17.4301 20.6096 17.4302 20.8923V21.3579C17.4302 21.4515 17.4093 21.544 17.3688 21.6284C17.3283 21.7128 17.2694 21.787 17.1965 21.8456C17.1235 21.9042 17.0382 21.9456 16.9471 21.9669C16.8559 21.9881 16.7612 21.9886 16.6698 21.9684L12.5 21.0465L8.33021 21.9684C8.23883 21.9886 8.14407 21.9881 8.05291 21.9669C7.96176 21.9456 7.87654 21.9042 7.80354 21.8456C7.73055 21.787 7.67165 21.7128 7.6312 21.6284C7.59074 21.544 7.56975 21.4515 7.56979 21.3579V20.8923C7.56987 20.6096 7.64664 20.3322 7.79192 20.0897C7.93721 19.8472 8.14557 19.6487 8.39479 19.5152L10.3344 18.4767C10.4341 18.4233 10.5175 18.3439 10.5757 18.2468C10.6338 18.1498 10.6646 18.0388 10.6646 17.9257V13.6486L3.83542 14.9382C3.74502 14.9553 3.65195 14.9523 3.56285 14.9294C3.47375 14.9064 3.39081 14.8641 3.31997 14.8054C3.24912 14.7467 3.19211 14.673 3.153 14.5898C3.1139 14.5065 3.09367 14.4156 3.09375 14.3236V13.8757C3.09362 13.6856 3.14548 13.4992 3.24371 13.3365C3.34194 13.1738 3.4828 13.0411 3.65104 12.9527L10.6646 9.27148V4.70065Z" stroke="black" stroke-linecap="round" stroke-linejoin="round"/>
</svg>
