<svg width="28" height="28" viewBox="0 0 28 28" fill="none" xmlns="http://www.w3.org/2000/svg">
<path d="M15.1667 9.33333C16.0949 9.33333 16.9852 9.70208 17.6415 10.3585C18.2979 11.0148 18.6667 11.9051 18.6667 12.8333C18.6667 13.1428 18.7896 13.4395 19.0084 13.6583C19.2272 13.8771 19.5239 14 19.8333 14C20.1428 14 20.4395 13.8771 20.6583 13.6583C20.8771 13.4395 21 13.1428 21 12.8333C21 11.2862 20.3854 9.80251 19.2915 8.70854C18.1975 7.61458 16.7138 7 15.1667 7C14.8572 7 14.5605 7.12292 14.3417 7.34171C14.1229 7.5605 14 7.85725 14 8.16667C14 8.47609 14.1229 8.77283 14.3417 8.99162C14.5605 9.21042 14.8572 9.33333 15.1667 9.33333Z" fill="white"/>
<path d="M15.1666 4.66634C17.3325 4.66634 19.4097 5.52676 20.9413 7.0583C22.4728 8.58985 23.3333 10.6671 23.3333 12.833C23.3333 13.1424 23.4562 13.4392 23.675 13.658C23.8938 13.8768 24.1905 13.9997 24.4999 13.9997C24.8093 13.9997 25.1061 13.8768 25.3249 13.658C25.5437 13.4392 25.6666 13.1424 25.6666 12.833C25.6666 10.0482 24.5603 7.37752 22.5912 5.40839C20.6221 3.43925 17.9514 2.33301 15.1666 2.33301C14.8572 2.33301 14.5604 2.45592 14.3416 2.67472C14.1228 2.89351 13.9999 3.19026 13.9999 3.49967C13.9999 3.80909 14.1228 4.10584 14.3416 4.32463C14.5604 4.54343 14.8572 4.66634 15.1666 4.66634ZM25.3749 18.5613C25.3107 18.3741 25.2 18.2062 25.053 18.0735C24.9061 17.9408 24.7278 17.8478 24.5349 17.803L17.5349 16.2047C17.3449 16.1616 17.1471 16.1668 16.9597 16.2198C16.7722 16.2728 16.6009 16.3718 16.4616 16.508C16.2983 16.6597 16.2866 16.6713 15.5283 18.118C13.012 16.9585 10.9957 14.934 9.84658 12.413C11.3283 11.6663 11.3399 11.6663 11.4916 11.4913C11.6277 11.352 11.7268 11.1808 11.7798 10.9933C11.8328 10.8058 11.838 10.608 11.7949 10.418L10.1966 3.49967C10.1518 3.30682 10.0588 3.12852 9.92609 2.98157C9.79342 2.83462 9.62554 2.72384 9.43825 2.65967C9.1658 2.56236 8.88445 2.49202 8.59825 2.44967C8.30338 2.3813 8.00247 2.34222 7.69992 2.33301C6.27659 2.33301 4.91156 2.89842 3.90511 3.90487C2.89867 4.91131 2.33325 6.27635 2.33325 7.69967C2.33943 12.4628 4.23432 17.0291 7.60239 20.3972C10.9705 23.7653 15.5368 25.6602 20.2999 25.6663C21.0047 25.6663 21.7025 25.5275 22.3537 25.2578C23.0048 24.9881 23.5964 24.5928 24.0947 24.0945C24.5931 23.5961 24.9884 23.0045 25.2581 22.3534C25.5278 21.7023 25.6666 21.0044 25.6666 20.2997C25.6669 20.0027 25.6435 19.7062 25.5966 19.413C25.5476 19.1232 25.4734 18.8383 25.3749 18.5613Z" fill="white"/>
</svg>
