<svg width="21" height="22" viewBox="0 0 21 22" fill="none" xmlns="http://www.w3.org/2000/svg">
<path d="M11.4881 0C12.66 0.00325 13.2548 0.00975 13.7683 0.0249167L13.9704 0.0325C14.2037 0.0411666 14.4339 0.0519999 14.7121 0.0649999C15.8204 0.119167 16.5766 0.301167 17.2402 0.56875C17.9277 0.843917 18.5068 1.21658 19.086 1.81783C19.6159 2.35921 20.0258 3.01434 20.2871 3.7375C20.5443 4.42758 20.7193 5.21408 20.7714 6.36783C20.7839 6.656 20.7943 6.89542 20.8027 7.13917L20.8089 7.34933C20.8246 7.88233 20.8308 8.50092 20.8329 9.71967L20.8339 10.5278V11.947C20.8365 12.7372 20.8285 13.5274 20.81 14.3173L20.8037 14.5275C20.7954 14.7712 20.785 15.0107 20.7725 15.2988C20.7204 16.4526 20.5433 17.238 20.2871 17.9292C20.0258 18.6523 19.6159 19.3075 19.086 19.8488C18.5655 20.3999 17.9355 20.8262 17.2402 21.0979C16.5766 21.3655 15.8204 21.5475 14.7121 21.6017L13.9704 21.6342L13.7683 21.6407C13.2548 21.6558 12.66 21.6634 11.4881 21.6656L10.711 21.6667H9.34747C8.58732 21.6695 7.82718 21.6611 7.06726 21.6417L6.86518 21.6353C6.6179 21.6255 6.37067 21.6143 6.12351 21.6017C5.01518 21.5475 4.25893 21.3655 3.59434 21.0979C2.89937 20.8261 2.2698 20.3998 1.74955 19.8488C1.21929 19.3076 0.809039 18.6524 0.547468 17.9292C0.290176 17.2391 0.115176 16.4526 0.0630924 15.2988L0.0318425 14.5275L0.0266343 14.3173C0.00743222 13.5274 -0.00124927 12.7372 0.000592497 11.947V9.71967C-0.00229073 8.92948 0.00534897 8.1393 0.0235092 7.34933L0.0308009 7.13917C0.0391342 6.89542 0.0495508 6.656 0.0620508 6.36783C0.114134 5.21408 0.289134 4.42867 0.546426 3.7375C0.808607 3.01405 1.21958 2.35889 1.75059 1.81783C2.27054 1.26701 2.89975 0.840746 3.59434 0.56875C4.25893 0.301167 5.01413 0.119167 6.12351 0.0649999C6.40059 0.0519999 6.63184 0.0411666 6.86518 0.0325L7.06726 0.0259999C7.82684 0.0067521 8.58663 -0.00155426 9.34643 0.00108325L11.4881 0ZM10.4173 5.41667C9.03592 5.41667 7.71116 5.98735 6.73441 7.00317C5.75766 8.01899 5.20893 9.39674 5.20893 10.8333C5.20893 12.2699 5.75766 13.6477 6.73441 14.6635C7.71116 15.6793 9.03592 16.25 10.4173 16.25C11.7986 16.25 13.1234 15.6793 14.1001 14.6635C15.0769 13.6477 15.6256 12.2699 15.6256 10.8333C15.6256 9.39674 15.0769 8.01899 14.1001 7.00317C13.1234 5.98735 11.7986 5.41667 10.4173 5.41667ZM10.4173 7.58333C10.8276 7.58326 11.234 7.66726 11.6132 7.83052C11.9924 7.99378 12.3369 8.23311 12.6271 8.53485C12.9174 8.83659 13.1476 9.19483 13.3047 9.58911C13.4618 9.98339 13.5427 10.406 13.5428 10.8328C13.5428 11.2596 13.4621 11.6822 13.3051 12.0766C13.1481 12.4709 12.918 12.8292 12.6279 13.131C12.3377 13.4329 11.9933 13.6723 11.6141 13.8357C11.235 13.9991 10.8287 14.0833 10.4183 14.0833C9.5895 14.0833 8.79464 13.7409 8.20859 13.1314C7.62254 12.5219 7.2933 11.6953 7.2933 10.8333C7.2933 9.97138 7.62254 9.14473 8.20859 8.53524C8.79464 7.92574 9.5895 7.58333 10.4183 7.58333M15.8871 3.79167C15.5417 3.79167 15.2105 3.93434 14.9663 4.18829C14.7222 4.44225 14.585 4.78669 14.585 5.14583C14.585 5.50498 14.7222 5.84942 14.9663 6.10337C15.2105 6.35733 15.5417 6.5 15.8871 6.5C16.2324 6.5 16.5636 6.35733 16.8078 6.10337C17.052 5.84942 17.1891 5.50498 17.1891 5.14583C17.1891 4.78669 17.052 4.44225 16.8078 4.18829C16.5636 3.93434 16.2324 3.79167 15.8871 3.79167Z" fill="#1F8F0A"/>
</svg>
