<svg width="23" height="22" viewBox="0 0 23 22" fill="none" xmlns="http://www.w3.org/2000/svg">
<path d="M11.4286 0C5.11667 0 0 4.90347 0 10.9524C0 17.0013 5.11667 21.9048 11.4286 21.9048C17.7405 21.9048 22.8571 17.0013 22.8571 10.9524C22.8571 4.90347 17.7405 0 11.4286 0ZM8.63095 15.4919H6.31667V8.35461H8.63095V15.4919ZM7.45952 7.47842C6.72857 7.47842 6.25595 6.98214 6.25595 6.36835C6.25595 5.74201 6.74286 5.26057 7.48929 5.26057C8.23571 5.26057 8.69286 5.74201 8.70714 6.36835C8.70714 6.98214 8.23571 7.47842 7.45952 7.47842ZM17.0833 15.4919H14.769V11.5365C14.769 10.6158 14.4333 9.99062 13.5964 9.99062C12.9571 9.99062 12.5774 10.4139 12.4095 10.8212C12.3476 10.9661 12.3321 11.1714 12.3321 11.3756V15.4908H10.0167V10.6307C10.0167 9.73963 9.9869 8.99464 9.95595 8.35347H11.9667L12.0726 9.34489H12.119C12.4238 8.87941 13.1702 8.19261 14.419 8.19261C15.9417 8.19261 17.0833 9.17034 17.0833 11.2718V15.4919Z" fill="#1F8F0A"/>
</svg>
