<svg width="31" height="31" viewBox="0 0 31 31" fill="none" xmlns="http://www.w3.org/2000/svg">
<path d="M26.04 8.8354C22.32 3.1004 14.725 1.3954 8.83502 4.9604C3.10002 8.5254 1.24002 16.2754 4.96002 22.0104L5.27002 22.4754L4.03002 27.1254L8.68002 25.8854L9.14502 26.1954C11.16 27.2804 13.33 27.9004 15.5 27.9004C17.825 27.9004 20.15 27.2804 22.165 26.0404C27.9 22.3204 29.605 14.7254 26.04 8.8354ZM22.785 20.7704C22.165 21.7004 21.39 22.3204 20.305 22.4754C19.685 22.4754 18.91 22.7854 15.81 21.5454C13.175 20.3054 11.005 18.2904 9.45502 15.9654C8.52502 14.8804 8.06002 13.4854 7.90502 12.0904C7.90502 10.8504 8.37002 9.7654 9.14502 8.9904C9.45502 8.6804 9.76502 8.5254 10.075 8.5254H10.85C11.16 8.5254 11.47 8.5254 11.625 9.1454C11.935 9.9204 12.71 11.7804 12.71 11.9354C12.865 12.0904 12.865 12.4004 12.71 12.5554C12.865 12.8654 12.71 13.1754 12.555 13.3304C12.4 13.4854 12.245 13.7954 12.09 13.9504C11.78 14.1054 11.625 14.4154 11.78 14.7254C12.4 15.6554 13.175 16.5854 13.95 17.3604C14.88 18.1354 15.81 18.7554 16.895 19.2204C17.205 19.3754 17.515 19.3754 17.67 19.0654C17.825 18.7554 18.6 17.9804 18.91 17.6704C19.22 17.3604 19.375 17.3604 19.685 17.5154L22.165 18.7554C22.475 18.9104 22.785 19.0654 22.94 19.2204C23.095 19.6854 23.095 20.3054 22.785 20.7704Z" fill="white"/>
</svg>
