<svg width="147" height="118" viewBox="0 0 147 118" fill="none" xmlns="http://www.w3.org/2000/svg">
<path d="M147 87.1165H0V117.528H147V87.1165Z" fill="#0872B9"/>
<path d="M147 0.509369H0V30.921H147V0.509369Z" fill="#0872B9"/>
<path d="M147 33.5655H0V84.8025H147V33.5655Z" fill="#0872B9"/>
<path d="M138.3 11.0873H126L126.9 12.7402H139.2L143.4 15.7152C143.4 15.7152 144.3 16.7069 143.7 17.368L138.9 21.3347H115.5L113.7 18.6903V25.9626H84.6V11.7485H105.9V19.0208H93.6V21.6653H108H108.6V12.079H116.7L121.5 17.368H135.3V14.7235H121.5L114.9 7.45117H136.2L138.3 11.0873Z" fill="white"/>
<path d="M120.6 23.3181H117.6V26.2931H120.6V23.3181Z" fill="white"/>
<path d="M127.8 23.3181H124.8V26.2931H127.8V23.3181Z" fill="white"/>
<path d="M21.9 9.10397H17.7V13.4013H21.9V9.10397Z" fill="white"/>
<path d="M27.3 9.10397H23.1V13.4013H27.3V9.10397Z" fill="white"/>
<path d="M61.8 9.10397H57.6V13.4013H61.8V9.10397Z" fill="white"/>
<path d="M77.7 16.0458H66.9V20.3431H77.7V16.0458Z" fill="white"/>
<path d="M55.5 14.393H63V23.9792H7.2L3 18.0291L10.2 7.45117H15.9L11.7 18.0291H48.6V14.7235H53.7V18.0291H55.5V14.393Z" fill="white"/>
<path d="M32.7 111.578H27.9V102.653C27.9 100.67 27.9 99.6778 27.6 99.0167C27.3 98.3556 27 98.025 26.7 97.6945C26.4 97.3639 25.8 97.3639 25.2 97.3639C24.3 97.3639 23.7 97.6945 23.1 98.025C22.5 98.3556 21.9 99.0167 21.9 99.6778C21.6 100.339 21.3 101.661 21.3 103.645V111.578H16.8V94.0583H21V96.7028C22.5 94.7194 24.6 93.7277 26.7 93.7277C27.6 93.7277 28.5 94.0583 29.4 94.3888C30.3 94.7194 30.9 95.3805 31.2 95.7111C31.5 96.3722 31.8 97.0333 32.1 97.6945C32.4 98.3556 32.4 99.3473 32.4 100.67V111.578H32.7Z" fill="white"/>
<path d="M75.9 105.958L80.4 106.62C79.8 108.272 78.9 109.595 77.7 110.586C76.5 111.578 74.7 111.909 72.9 111.909C69.9 111.909 67.5 110.917 66.3 108.934C65.1 107.281 64.5 105.297 64.5 102.983C64.5 100.008 65.4 97.6945 66.9 96.0417C68.4 94.3888 70.2 93.7277 72.6 93.7277C75.3 93.7277 77.1 94.7194 78.6 96.3722C80.1 98.025 80.7 100.67 80.7 104.306H69.3C69.3 105.628 69.6 106.62 70.5 107.611C71.1 108.272 72 108.603 73.2 108.603C73.8 108.603 74.4 108.272 75 107.942C75.3 107.611 75.6 106.95 75.9 105.958ZM76.2 101.331C76.2 100.008 75.9 99.0167 75.3 98.3556C74.7 97.6945 73.8 97.3639 72.9 97.3639C72 97.3639 71.1 97.6945 70.5 98.3556C69.9 99.0167 69.6 100.008 69.6 101.331H76.2Z" fill="white"/>
<path d="M129.9 94.0583V97.6944H126.9V104.636C126.9 105.958 126.9 106.95 126.9 107.281C126.9 107.611 127.2 107.611 127.2 107.942C127.5 107.942 127.8 108.272 128.1 108.272C128.4 108.272 129 108.272 129.9 107.942L130.2 111.578C129 111.909 127.8 112.239 126.6 112.239C125.7 112.239 125.1 112.239 124.5 111.909C123.9 111.578 123.3 111.247 123 110.917C122.7 110.586 122.4 109.925 122.4 109.264C122.4 108.603 122.1 107.611 122.1 105.958V98.3556H120V94.7194H122.1V91.0832L126.6 88.4387V94.7194H129.9V94.0583Z" fill="white"/>
<path d="M54.6 37.5323H19.8V78.5219H54.6V37.5323Z" fill="#FBED1F"/>
<path d="M53.4001 55.7131L79.2 37.8628H125.1L99.9 55.7131L127.2 77.8607H78.0001L54.0001 57.3659L53.4001 55.7131Z" fill="#FBED1F"/>
</svg>
