<svg width="39" height="39" viewBox="0 0 39 39" fill="none" xmlns="http://www.w3.org/2000/svg">
<rect x="0.5" y="0.5" width="38" height="38" rx="5.5" fill="white" stroke="#1F8F0A"/>
<path d="M25.1224 9.23044C23.051 10.1831 21.9613 12.365 21.5088 13.4851C21.3481 13.913 21.0957 14.3042 20.7679 14.6335L20.2614 15.1085L15.1357 14.3892C14.6197 14.3169 14.0924 14.3955 13.623 14.6149C11.694 15.5181 11.6843 18.1509 13.6095 19.0556L15.2402 19.8241L13.6863 21.2842L11.9568 19.9845C10.4168 18.8271 8.29896 20.4685 9.15524 22.1529L11.2683 26.3095C11.4657 26.6976 11.7572 27.0347 12.1186 27.2927C12.48 27.5506 12.9008 27.722 13.3459 27.7925C13.791 27.8629 14.2475 27.8305 14.6775 27.6978C15.1075 27.5652 15.4984 27.3361 15.8178 27.0298L19.4733 23.5206L20.0835 25.7597C20.7311 28.1363 24.2845 28.0425 24.8092 25.6357L26.4844 17.9473L31.6121 13.218C32.6396 12.2681 32.6454 10.5282 31.2053 9.80483C29.7753 9.08364 27.3444 8.20893 25.1224 9.23044ZM16.4677 18.672L14.3258 17.6637C14.1202 17.5665 13.9577 17.4022 13.8676 17.2003C13.7774 16.9984 13.7655 16.7721 13.834 16.5621C13.9025 16.3521 14.0468 16.1722 14.2412 16.0546C14.4355 15.937 14.667 15.8895 14.8941 15.9206L18.8114 16.4716L16.4677 18.672ZM23.0183 14.0399C23.4537 12.9571 24.3562 11.3005 25.8184 10.6279C27.2908 9.95055 29.082 10.4888 30.448 11.1762C30.5251 11.2116 30.591 11.2659 30.639 11.3336C30.6871 11.4013 30.7155 11.48 30.7215 11.5618C30.7271 11.6626 30.7092 11.7634 30.6692 11.857C30.6292 11.9505 30.568 12.0345 30.49 12.1027L25.183 17.0005C25.0652 17.109 24.9843 17.249 24.951 17.4021L23.2246 25.3229C23.0502 26.125 21.8647 26.1579 21.6489 25.3645L21.0394 23.1268C20.9676 22.8628 20.8243 22.6218 20.6238 22.4282C20.4233 22.2346 20.1729 22.0953 19.8977 22.0244C19.6226 21.9535 19.3326 21.9534 19.057 22.0243C18.7815 22.0952 18.5301 22.2345 18.3285 22.428L14.6744 25.9365C14.5375 26.068 14.3697 26.1663 14.1853 26.2232C14.0008 26.2801 13.8049 26.294 13.6139 26.2636C13.423 26.2333 13.2425 26.1596 13.0876 26.0487C12.9327 25.9379 12.8078 25.7931 12.7234 25.6264L10.611 21.4712C10.5757 21.4016 10.5791 21.3552 10.5881 21.3268C10.6024 21.2799 10.6318 21.2384 10.672 21.2083C10.7116 21.1757 10.7611 21.1561 10.8131 21.1525C10.8428 21.1507 10.8905 21.1559 10.9558 21.2064L13.2422 22.9243C13.3966 23.0401 13.59 23.0981 13.7862 23.0875C13.9824 23.0768 14.168 22.9981 14.3085 22.8662L21.8988 15.7377C22.4273 15.2421 22.7782 14.6349 23.0183 14.0399Z" fill="#1F8F0A"/>
</svg>
