<svg width="55" height="55" viewBox="0 0 55 55" fill="none" xmlns="http://www.w3.org/2000/svg">
<rect width="55" height="55" fill="white"/>
<path d="M36.4654 13.3375C33.6815 14.6716 32.217 17.7272 31.6088 19.2958C31.3928 19.895 31.0536 20.4428 30.613 20.9039L29.9323 21.5691L23.0434 20.5618C22.3498 20.4605 21.6411 20.5707 21.0102 20.878C18.4177 22.1428 18.4046 25.8297 20.9921 27.0966L23.1838 28.1729L21.0953 30.2176L18.7709 28.3976C16.7011 26.7767 13.8547 29.0753 15.0056 31.4341L17.8456 37.2551C18.1109 37.7987 18.5027 38.2707 18.9884 38.632C19.4741 38.9932 20.0396 39.2332 20.6378 39.3318C21.236 39.4305 21.8496 39.3851 22.4275 39.1993C23.0054 39.0135 23.5308 38.6928 23.96 38.2638L28.873 33.3495L29.6931 36.4852C30.5636 39.8134 35.3394 39.682 36.0446 36.3115L38.296 25.5447L45.1877 18.9217C46.5686 17.5915 46.5764 15.1549 44.6409 14.1419C42.719 13.1319 39.4519 11.907 36.4654 13.3375ZM24.8335 26.5595L21.9548 25.1475C21.6785 25.0114 21.4601 24.7813 21.339 24.4986C21.2178 24.2158 21.2018 23.8989 21.2939 23.6048C21.3859 23.3107 21.5799 23.0587 21.8411 22.8941C22.1022 22.7294 22.4134 22.6629 22.7187 22.7065L27.9834 23.4781L24.8335 26.5595ZM33.6375 20.0727C34.2227 18.5563 35.4357 16.2365 37.4009 15.2945C39.3798 14.3459 41.7872 15.0997 43.6231 16.0624C43.7267 16.112 43.8153 16.188 43.8798 16.2828C43.9444 16.3776 43.9826 16.4878 43.9907 16.6023C43.9982 16.7435 43.9742 16.8847 43.9204 17.0157C43.8666 17.1467 43.7843 17.2643 43.6796 17.3598L36.5469 24.2187C36.3886 24.3707 36.2799 24.5667 36.2351 24.7811L33.9148 35.8735C33.6804 36.9967 32.0872 37.0428 31.797 35.9317L30.9779 32.7981C30.8815 32.4283 30.6888 32.0908 30.4193 31.8197C30.1499 31.5486 29.8133 31.3535 29.4435 31.2542C29.0737 31.1549 28.684 31.1549 28.3136 31.2541C27.9433 31.3534 27.6055 31.5484 27.3344 31.8195L22.4234 36.7328C22.2393 36.9169 22.0139 37.0546 21.7659 37.1343C21.518 37.2139 21.2547 37.2333 20.9981 37.1908C20.7414 37.1483 20.4989 37.0452 20.2907 36.8899C20.0825 36.7347 19.9147 36.532 19.8013 36.2986L16.9622 30.4795C16.9146 30.3821 16.9193 30.3171 16.9314 30.2773C16.9506 30.2116 16.99 30.1535 17.0441 30.1113C17.0974 30.0657 17.1639 30.0383 17.2338 30.0333C17.2737 30.0307 17.3378 30.038 17.4256 30.1086L20.4985 32.5144C20.706 32.6767 20.9659 32.7579 21.2296 32.7429C21.4933 32.728 21.7428 32.6178 21.9315 32.433L32.1329 22.4503C32.8432 21.7563 33.3149 20.9059 33.6375 20.0727Z" fill="#6F7072"/>
</svg>
