<svg width="39" height="39" viewBox="0 0 39 39" fill="none" xmlns="http://www.w3.org/2000/svg">
<rect x="0.5" y="0.5" width="38" height="38" rx="5.5" fill="white" stroke="#1F8F0A"/>
<path d="M18.25 28.5V22.7513M20 18.875H20.0088M20 15.375H20.0088M21.75 22.7513V28.5M22.625 23.25C21.8677 22.682 20.9466 22.375 20 22.375C19.0534 22.375 18.1323 22.682 17.375 23.25M23.5 18.875H23.5088M23.5 15.375H23.5088M16.5 18.875H16.5088M16.5 15.375H16.5088" stroke="#1F8F0A" stroke-linecap="round" stroke-linejoin="round"/>
<path d="M25.25 11H14.75C13.7835 11 13 11.7835 13 12.75V26.75C13 27.7165 13.7835 28.5 14.75 28.5H25.25C26.2165 28.5 27 27.7165 27 26.75V12.75C27 11.7835 26.2165 11 25.25 11Z" stroke="#1F8F0A" stroke-linecap="round" stroke-linejoin="round"/>
</svg>
