<svg width="55" height="55" viewBox="0 0 55 55" fill="none" xmlns="http://www.w3.org/2000/svg">
<rect width="55" height="55" fill="white"/>
<path d="M12 39V30.95C12.0037 29.7311 12.5074 28.5632 13.401 27.7013C14.2946 26.8394 15.5055 26.3536 16.7692 26.35H38.2308C39.4945 26.3536 40.7054 26.8394 41.599 27.7013C42.4926 28.5632 42.9963 29.7311 43 30.95V39M37.0385 26.35H15.5769V18.875C15.5793 18.1132 15.8941 17.3833 16.4526 16.8446C17.0111 16.3059 17.7679 16.0023 18.5577 16H36.4423C37.2321 16.0023 37.9889 16.3059 38.5474 16.8446C39.1059 17.3833 39.4207 18.1132 39.4231 18.875V26.35H37.0385Z" stroke="#6F7072" stroke-width="2" stroke-linecap="round" stroke-linejoin="round"/>
<path d="M12 39V38.3929C12.0014 37.9102 12.1902 37.4477 12.5253 37.1065C12.8605 36.7652 13.3146 36.5728 13.7885 36.5714H41.2115C41.6854 36.5728 42.1395 36.7652 42.4747 37.1065C42.8098 37.4477 42.9986 37.9102 43 38.3929V39M16.7692 25.6429V24.4286C16.771 23.785 17.0228 23.1684 17.4696 22.7133C17.9164 22.2582 18.522 22.0018 19.1538 22H25.1154C25.7473 22.0018 26.3528 22.2582 26.7996 22.7133C27.2464 23.1684 27.4982 23.785 27.5 24.4286M27.5 24.4286V25.6429M27.5 24.4286C27.5018 23.785 27.7536 23.1684 28.2004 22.7133C28.6472 22.2582 29.2527 22.0018 29.8846 22H35.8462C36.478 22.0018 37.0836 22.2582 37.5304 22.7133C37.9772 23.1684 38.229 23.785 38.2308 24.4286V25.6429" stroke="#6F7072" stroke-width="2" stroke-linecap="round" stroke-linejoin="round"/>
</svg>
