<svg xmlns="http://www.w3.org/2000/svg" version="1.1" xmlns:xlink="http://www.w3.org/1999/xlink" width="512" height="512" x="0" y="0" viewBox="0 0 512 512" style="enable-background:new 0 0 512 512" xml:space="preserve" class=""><g><path d="M494.933 255.467c-10.667 1.067-21.333-5.333-25.6-16-4.267-10.667-1.067-22.4 6.4-29.867l-5.333-11.733c-10.667 1.067-21.333-5.333-25.6-16-4.267-10.667-1.067-22.4 6.4-29.867l-5.333-11.733c-10.667 1.067-21.333-5.333-25.6-16-4.267-10.667-1.067-22.4 6.4-29.867l-4.267-9.6c-13.867 6.4-30.933 0-36.267-14.933l-371.2 160c6.4 13.867 0 30.933-14.933 36.267l4.267 9.6c10.667-1.067 21.333 5.333 25.6 16 4.267 10.667 1.067 22.4-6.4 29.867l5.333 11.733c10.667-1.067 21.333 5.333 25.6 16 4.267 10.667 1.067 22.4-6.4 29.867l5.333 11.733c10.667-1.067 21.333 5.333 25.6 16 4.267 10.667 1.067 22.4-6.4 29.867l4.267 9.6c13.867-6.4 30.933 0 36.267 14.933l371.2-158.933c-6.4-13.867 0-30.933 14.933-36.267l-4.267-10.667z" style="" fill="#2B4088" data-original="#ff7058" class="" opacity="1"></path><path d="M430.933 271.467 128 400.533l-59.733-140.8L371.2 129.6l59.733 141.867zM135.467 382.4 412.8 262.933 363.733 148.8 86.4 268.267 135.467 382.4z" style="" fill="#FFD15C" data-original="#ffd15c" class=""></path><path d="m125.867 299.2 14.933-7.467 18.133 42.667 9.6-3.2-18.133-42.667 14.933-7.466-3.2-8.534L121.6 289.6z" style="" fill="#FFFFFF" data-original="#ffffff" class=""></path><path d="M176.176 266.566h10.666v56.532h-10.666z" style="" transform="rotate(-23.22 181.495 294.845)" fill="#FFFFFF" data-original="#ffffff" class=""></path><path d="M235.733 285.333c-1.067 5.333-4.267 9.6-9.6 11.733-9.6 4.267-20.267 0-24.533-10.667-4.267-10.667-1.067-20.267 9.6-24.533 4.267-2.133 10.667-1.067 14.933 1.067L227.2 264l6.4-8.533-2.133-1.067c-7.467-4.267-16-5.333-24.533-2.133-14.933 6.4-21.333 22.4-14.933 38.4C198.4 305.6 214.4 312 230.4 305.6c8.533-3.2 12.8-9.6 14.933-19.2v-2.133l-10.667-1.067 1.067 2.133zM272 225.6l-11.733 4.267-9.6 29.866-9.6-21.333-8.534 4.267 21.334 51.2 9.6-4.267L256 272.533l2.133-4.266 25.6 12.8 12.8-5.334-35.2-17.066zM298.667 274.667l35.2-14.934-4.267-8.533-25.6 10.667-5.333-12.8L323.2 238.4l-3.2-8.533-25.6 10.666-4.267-12.8 25.6-10.666-4.266-8.534-35.2 14.934zM314.667 206.4l4.266 9.6 14.934-6.4L352 252.267l9.6-4.267-18.133-42.667 16-6.4-4.267-9.6z" style="" fill="#FFFFFF" data-original="#ffffff" class=""></path><path d="M468.267 239.467c-4.267-10.667-1.067-22.4 6.4-29.867l-5.333-11.733c-10.667 1.067-21.333-5.333-25.6-16-4.267-10.667-1.067-22.4 6.4-29.867l-5.333-11.733c-10.667 1.067-21.333-5.333-25.6-16-4.267-10.667-1.067-22.4 6.4-29.867l-4.267-9.6c-13.867 6.4-30.933 0-36.267-14.933L36.267 219.2v5.333l10.667 3.2c3.2 1.067 7.467 4.267 7.467 9.6 0 5.333-3.2 8.533-7.467 9.6l-10.667 3.2v37.333h17.067c6.4 0 11.733 5.333 11.733 11.733v16h381.867l37.333-16c-6.4-13.867 0-30.933 14.933-36.267l-4.267-7.467c-10.666 1.068-21.333-5.332-26.666-15.998z" style="opacity:0.1;enable-background:new ;" fill="#231F20" data-original="#231f20" class=""></path><path d="M512 262.933c-10.667-3.2-18.133-12.8-18.133-24.533s7.467-21.333 18.133-24.533V200c-10.667-3.2-18.133-12.8-18.133-24.533s7.467-21.333 18.133-24.533v-12.8c-10.667-3.2-18.133-12.8-18.133-24.533S501.333 92.267 512 89.067V78.4c-14.933 0-27.733-12.8-27.733-27.733h-403.2c0 14.933-12.8 27.733-27.733 27.733V88C64 91.2 71.467 100.8 71.467 112.533s-8.533 21.333-18.133 25.6V152c10.667 3.2 18.133 12.8 18.133 24.533S64 197.867 53.333 201.067v13.867c10.667 3.2 18.133 12.8 18.133 24.533C71.467 251.2 64 260.8 53.333 264v9.6c14.933 0 27.733 12.8 27.733 27.733h403.2c0-14.933 12.8-27.733 27.733-27.733l.001-10.667z" style="" fill="#2B4088" data-original="#ff7058" class="" opacity="1"></path><path d="M446.933 252.267h-329.6V99.733h329.6v152.534zM131.2 238.4h301.867V113.6H131.2v124.8z" style="" fill="#FFD15C" data-original="#ffd15c" class=""></path><path d="M155.733 157.333h16v46.934H182.4v-46.934h17.067v-9.6h-43.734zM203.733 147.733H214.4v56.533h-10.667zM262.4 188.267c-3.2 4.267-7.467 6.4-12.8 6.4-10.667 0-18.133-8.533-18.133-19.2s7.467-19.2 18.133-19.2c5.333 0 9.6 2.133 12.8 6.4l1.067 1.067L272 158.4l-1.067-2.133C265.6 148.8 258.133 145.6 249.6 145.6c-17.067 0-28.8 11.733-28.8 28.8s11.733 28.8 28.8 28.8c8.533 0 16-4.267 21.333-11.733l1.067-2.133-8.533-5.334-1.067 4.267zM320 147.733h-13.867L285.867 171.2v-23.467H275.2v56.534h10.667v-19.2l3.2-3.2 19.2 22.4h12.8L296.533 174.4zM324.267 204.267H361.6v-9.6h-27.733v-14.934H361.6v-9.6h-27.733v-12.8H361.6v-9.6h-37.333zM365.867 147.733v9.6h17.066v46.934h9.6v-46.934H409.6v-9.6z" style="" fill="#FFFFFF" data-original="#ffffff" class=""></path></g></svg>