<svg xmlns="http://www.w3.org/2000/svg" version="1.1" xmlns:xlink="http://www.w3.org/1999/xlink" width="512" height="512" x="0" y="0" viewBox="0 0 682.667 682.667" style="enable-background:new 0 0 512 512" xml:space="preserve" class=""><g><defs><clipPath id="a" clipPathUnits="userSpaceOnUse"><path d="M0 512h512V0H0Z" fill="#66a928" opacity="1" data-original="#000000"></path></clipPath></defs><g clip-path="url(#a)" transform="matrix(1.33333 0 0 -1.33333 0 682.667)"><path d="M0 0a77.567 77.567 0 0 1-54.85-22.718 54484846.25 54484846.25 0 0 1-298.613-298.615h-64.283c-17.737 0-32.117-14.38-32.117-32.118v-.016l80.333-48.2 48.2-80.333a32.109 32.109 0 0 1 22.722 9.415 32.122 32.122 0 0 1 9.411 22.718v64.267L9.417-86.985a77.574 77.574 0 0 1 22.72 54.852v.016C32.137-14.379 17.757 0 .02 0H.003Z" style="stroke-linecap: round; stroke-linejoin: round; stroke-miterlimit: 10; stroke-dasharray: none; stroke-opacity: 1;" transform="translate(464.863 497)" fill="none" stroke="#66A928" stroke-width="30px" stroke-linecap="round" stroke-linejoin="round" stroke-miterlimit="10" stroke-dasharray="none" stroke-opacity="" data-original="#000000" opacity="1" class=""></path><path d="M0 0s-136.776 32.182-216.749 51.004c-33.904 7.976-69.195-5.953-88.514-34.929l-.004-.008L-96.4-96.4" style="stroke-linecap: round; stroke-linejoin: round; stroke-miterlimit: 10; stroke-dasharray: none; stroke-opacity: 1;" transform="translate(320.267 384.533)" fill="none" stroke="#66A928" stroke-width="30px" stroke-linecap="round" stroke-linejoin="round" stroke-miterlimit="10" stroke-dasharray="none" stroke-opacity="" data-original="#000000" opacity="1" class=""></path><path d="m0 0 51-216.748c7.978-33.908-5.949-69.198-34.928-88.519h-.005L-96.4-96.4" style="stroke-linecap: round; stroke-linejoin: round; stroke-miterlimit: 10; stroke-dasharray: none; stroke-opacity: 1;" transform="translate(384.533 320.267)" fill="none" stroke="#66A928" stroke-width="30px" stroke-linecap="round" stroke-linejoin="round" stroke-miterlimit="10" stroke-dasharray="none" stroke-opacity="" data-original="#000000" opacity="1" class=""></path></g></g></svg>