<svg width="57" height="57" viewBox="0 0 57 57" fill="none" xmlns="http://www.w3.org/2000/svg">
<path d="M21.375 28.5C24.2095 28.5 26.9279 27.374 28.9322 25.3697C30.9365 23.3654 32.0625 20.647 32.0625 17.8125C32.0625 14.978 30.9365 12.2596 28.9322 10.2553C26.9279 8.251 24.2095 7.125 21.375 7.125C18.5405 7.125 15.8221 8.251 13.8178 10.2553C11.8135 12.2596 10.6875 14.978 10.6875 17.8125C10.6875 20.647 11.8135 23.3654 13.8178 25.3697C15.8221 27.374 18.5405 28.5 21.375 28.5ZM3.5625 49.875C3.5625 49.875 0 49.875 0 46.3125C0 42.75 3.5625 32.0625 21.375 32.0625C39.1875 32.0625 42.75 42.75 42.75 46.3125C42.75 49.875 39.1875 49.875 39.1875 49.875H3.5625ZM39.1875 12.4688C39.1875 11.9963 39.3752 11.5433 39.7092 11.2092C40.0433 10.8752 40.4963 10.6875 40.9688 10.6875H55.2188C55.6912 10.6875 56.1442 10.8752 56.4783 11.2092C56.8123 11.5433 57 11.9963 57 12.4688C57 12.9412 56.8123 13.3942 56.4783 13.7283C56.1442 14.0623 55.6912 14.25 55.2188 14.25H40.9688C40.4963 14.25 40.0433 14.0623 39.7092 13.7283C39.3752 13.3942 39.1875 12.9412 39.1875 12.4688ZM40.9688 21.375C40.4963 21.375 40.0433 21.5627 39.7092 21.8967C39.3752 22.2308 39.1875 22.6838 39.1875 23.1562C39.1875 23.6287 39.3752 24.0817 39.7092 24.4158C40.0433 24.7498 40.4963 24.9375 40.9688 24.9375H55.2188C55.6912 24.9375 56.1442 24.7498 56.4783 24.4158C56.8123 24.0817 57 23.6287 57 23.1562C57 22.6838 56.8123 22.2308 56.4783 21.8967C56.1442 21.5627 55.6912 21.375 55.2188 21.375H40.9688ZM48.0938 32.0625C47.6213 32.0625 47.1683 32.2502 46.8342 32.5842C46.5002 32.9183 46.3125 33.3713 46.3125 33.8438C46.3125 34.3162 46.5002 34.7692 46.8342 35.1033C47.1683 35.4373 47.6213 35.625 48.0938 35.625H55.2188C55.6912 35.625 56.1442 35.4373 56.4783 35.1033C56.8123 34.7692 57 34.3162 57 33.8438C57 33.3713 56.8123 32.9183 56.4783 32.5842C56.1442 32.2502 55.6912 32.0625 55.2188 32.0625H48.0938ZM48.0938 42.75C47.6213 42.75 47.1683 42.9377 46.8342 43.2717C46.5002 43.6058 46.3125 44.0588 46.3125 44.5312C46.3125 45.0037 46.5002 45.4567 46.8342 45.7908C47.1683 46.1248 47.6213 46.3125 48.0938 46.3125H55.2188C55.6912 46.3125 56.1442 46.1248 56.4783 45.7908C56.8123 45.4567 57 45.0037 57 44.5312C57 44.0588 56.8123 43.6058 56.4783 43.2717C56.1442 42.9377 55.6912 42.75 55.2188 42.75H48.0938Z" fill="white"/>
</svg>
