<svg width="50" height="50" viewBox="0 0 50 50" fill="none" xmlns="http://www.w3.org/2000/svg">
<circle cx="25" cy="25" r="25" fill="#D9D9D9"/>
<path d="M13.8524 24.9422C12.8646 23.2902 12.3874 21.9402 12.0998 20.5722C11.6747 18.5482 12.6479 16.5712 14.2598 15.3092C14.9412 14.7762 15.7227 14.9592 16.1259 15.6522L17.0356 17.2192C17.7566 18.4612 18.1172 19.0812 18.0463 19.7392C17.9744 20.3982 17.4878 20.9342 16.5156 22.0062L13.8524 24.9422ZM13.8524 24.9422C15.8519 28.2882 18.9893 31.3022 22.4799 33.2222M22.4799 33.2222C24.2022 34.1702 25.6079 34.6282 27.0333 34.9042C29.1422 35.3122 31.2022 34.3782 32.5161 32.8312C33.0725 32.1772 32.8818 31.4272 32.1598 31.0402L30.527 30.1672C29.2329 29.4752 28.5868 29.1292 27.9012 29.1972C27.2146 29.2662 26.6561 29.7332 25.5391 30.6662L22.4799 33.2222ZM22.4194 20.0002H23.3124C23.7334 20.0002 23.9438 20.0002 24.0751 20.1222C24.2054 20.2442 24.2054 20.4412 24.2054 20.8332C24.2054 21.6192 24.2054 22.0122 23.9449 22.2562C23.7448 22.4422 23.4541 22.4862 22.955 22.4962C22.6997 22.5022 22.5726 22.5052 22.4965 22.5782C22.4205 22.6512 22.4194 22.7672 22.4194 23.0002V24.1672C22.4194 24.5602 22.4194 24.7562 22.5507 24.8782C22.681 25.0002 22.8914 25.0002 23.3124 25.0002H24.2054M28.6712 20.0002V22.5002M28.6712 22.5002H27.1531C26.8165 22.5002 26.6477 22.5002 26.5435 22.4022C26.4394 22.3052 26.4394 22.1482 26.4394 21.8332V20.0002M28.6712 22.5002V25.0002" stroke="#1F8F0A" stroke-width="1.5" stroke-linecap="round" stroke-linejoin="round"/>
<path d="M20.3355 17.3052C20.4279 17.2052 20.5241 17.1072 20.6241 17.0112C21.3015 16.3634 22.1073 15.8525 22.994 15.5087C23.8806 15.1648 24.83 14.9951 25.7862 15.0094C26.7423 15.0237 27.6858 15.2218 28.5608 15.592C29.4358 15.9622 30.2247 16.497 30.8807 17.1647C31.5367 17.8325 32.0465 18.6197 32.3802 19.4798C32.7138 20.3399 32.8644 21.2554 32.8231 22.1723C32.7818 23.0892 32.5493 23.9888 32.1396 24.8181C31.7298 25.6473 31.151 26.3893 30.4374 27.0002" stroke="#1F8F0A" stroke-width="1.5" stroke-linecap="round" stroke-linejoin="round"/>
</svg>
