<svg width="50" height="50" viewBox="0 0 50 50" fill="none" xmlns="http://www.w3.org/2000/svg">
<circle cx="25" cy="25" r="25" fill="#F4F4F5"/>
<path d="M16.8524 24.9422C15.8646 23.2902 15.3874 21.9402 15.0998 20.5722C14.6747 18.5482 15.6479 16.5712 17.2598 15.3092C17.9412 14.7762 18.7227 14.9592 19.1259 15.6522L20.0356 17.2192C20.7566 18.4612 21.1172 19.0812 21.0463 19.7392C20.9744 20.3982 20.4878 20.9342 19.5156 22.0062L16.8524 24.9422ZM16.8524 24.9422C18.8519 28.2882 21.9893 31.3022 25.4799 33.2222M25.4799 33.2222C27.2022 34.1702 28.6079 34.6282 30.0333 34.9042C32.1422 35.3122 34.2022 34.3782 35.5161 32.8312C36.0725 32.1772 35.8818 31.4272 35.1598 31.0402L33.527 30.1672C32.2329 29.4752 31.5868 29.1292 30.9012 29.1972C30.2146 29.2662 29.6561 29.7332 28.5391 30.6662L25.4799 33.2222ZM25.4194 20.0002H26.3124C26.7334 20.0002 26.9438 20.0002 27.0751 20.1222C27.2054 20.2442 27.2054 20.4412 27.2054 20.8332C27.2054 21.6192 27.2054 22.0122 26.9449 22.2562C26.7448 22.4422 26.4541 22.4862 25.955 22.4962C25.6997 22.5022 25.5726 22.5052 25.4965 22.5782C25.4205 22.6512 25.4194 22.7672 25.4194 23.0002V24.1672C25.4194 24.5602 25.4194 24.7562 25.5507 24.8782C25.681 25.0002 25.8914 25.0002 26.3124 25.0002H27.2054M31.6712 20.0002V22.5002M31.6712 22.5002H30.1531C29.8165 22.5002 29.6477 22.5002 29.5435 22.4022C29.4394 22.3052 29.4394 22.1482 29.4394 21.8332V20.0002M31.6712 22.5002V25.0002" stroke="black" stroke-width="1.5" stroke-linecap="round" stroke-linejoin="round"/>
<path d="M23.3355 17.3052C23.4279 17.2052 23.5241 17.1072 23.6241 17.0112C24.3015 16.3634 25.1073 15.8525 25.994 15.5087C26.8806 15.1648 27.83 14.9951 28.7862 15.0094C29.7423 15.0237 30.6858 15.2218 31.5608 15.592C32.4358 15.9622 33.2247 16.497 33.8807 17.1647C34.5367 17.8325 35.0465 18.6197 35.3802 19.4798C35.7138 20.3399 35.8644 21.2554 35.8231 22.1723C35.7818 23.0892 35.5493 23.9888 35.1396 24.8181C34.7298 25.6473 34.151 26.3893 33.4374 27.0002" stroke="black" stroke-width="1.5" stroke-linecap="round" stroke-linejoin="round"/>
</svg>
