<svg width="69" height="54" viewBox="0 0 69 54" fill="none" xmlns="http://www.w3.org/2000/svg">
<g clip-path="url(#clip0_5_12255)">
<path d="M52.6123 20.2506H36.2248V26.1569C36.2248 30.344 32.7424 33.7506 28.4623 33.7506C24.1821 33.7506 20.6998 30.344 20.6998 26.1569V13.3319L13.7027 17.4452C11.622 18.6581 10.3498 20.8624 10.3498 23.2249V28.2135L1.72477 33.0862C0.0752422 34.0143 -0.496164 36.0815 0.463367 37.6952L9.08837 52.3131C10.0371 53.9268 12.1502 54.4753 13.7998 53.5471L24.9476 47.2506H39.6748C43.4806 47.2506 46.5748 44.2237 46.5748 40.5006H48.2998C50.208 40.5006 51.7498 38.9924 51.7498 37.1256V30.3756H52.6123C54.0462 30.3756 55.1998 29.2471 55.1998 27.8444V22.7819C55.1998 21.3792 54.0462 20.2506 52.6123 20.2506ZM68.5362 16.3061L59.9112 1.68815C58.9624 0.0744763 56.8493 -0.473961 55.1998 0.454164L44.052 6.75065H33.0335C31.7398 6.75065 30.4784 7.10924 29.3787 7.77369L25.767 9.97799C24.7535 10.5897 24.1498 11.676 24.1498 12.8362V26.1569C24.1498 28.4878 26.0796 30.3756 28.4623 30.3756C30.8449 30.3756 32.7748 28.4878 32.7748 26.1569V16.8756H52.6123C55.9437 16.8756 58.6498 19.5229 58.6498 22.7819V25.7878L67.2748 20.9151C68.9243 19.9764 69.4849 17.9198 68.5362 16.3061Z" fill="white"/>
</g>
<defs>
<clipPath id="clip0_5_12255">
<rect width="69" height="54" fill="white"/>
</clipPath>
</defs>
</svg>
