<svg width="54" height="54" viewBox="0 0 54 54" fill="none" xmlns="http://www.w3.org/2000/svg">
<g clip-path="url(#clip0_5_12264)">
<path d="M27 0C19.8392 0 12.9716 2.84464 7.90812 7.90812C2.84464 12.9716 0 19.8392 0 27C0 34.1608 2.84464 41.0284 7.90812 46.0919C12.9716 51.1554 19.8392 54 27 54C34.1608 54 41.0284 51.1554 46.0919 46.0919C51.1554 41.0284 54 34.1608 54 27C54 19.8392 51.1554 12.9716 46.0919 7.90812C41.0284 2.84464 34.1608 0 27 0V0ZM37.125 13.5C38.988 13.5 40.5 15.768 40.5 18.5625C40.5 21.357 38.988 23.625 37.125 23.625C35.262 23.625 33.75 21.357 33.75 18.5625C33.75 15.768 35.262 13.5 37.125 13.5ZM16.875 13.5C18.738 13.5 20.25 15.768 20.25 18.5625C20.25 21.357 18.738 23.625 16.875 23.625C15.012 23.625 13.5 21.357 13.5 18.5625C13.5 15.768 15.012 13.5 16.875 13.5ZM27 47.25C18.2014 47.25 10.8945 39.8722 10.125 30.4661C15.0694 33.3214 20.8845 34.9515 27 34.9515C33.1155 34.9515 38.9306 33.3281 43.875 30.4729C43.1055 39.8824 35.7986 47.25 27 47.25Z" fill="white"/>
</g>
<defs>
<clipPath id="clip0_5_12264">
<rect width="54" height="54" fill="white"/>
</clipPath>
</defs>
</svg>
