<svg width="50" height="50" viewBox="0 0 50 50" fill="none" xmlns="http://www.w3.org/2000/svg">
<circle cx="25" cy="25" r="25" fill="#F4F4F5"/>
<path d="M17.191 27C16.4092 25.7712 15.9969 24.3588 16 22.919C16 18.545 19.7323 15 24.3358 15C28.9392 15 32.6715 18.545 32.6715 22.919C32.6746 24.3588 32.2624 25.7712 31.4805 27M27.4617 32L27.3262 32.647C27.1803 33.354 27.1064 33.707 26.9407 33.987C26.6854 34.4186 26.272 34.7436 25.781 34.899C25.4632 35 25.086 35 24.3358 35C23.5855 35 23.2084 35 22.8906 34.9C22.3993 34.7444 21.9859 34.4189 21.7308 33.987C21.5652 33.707 21.4912 33.354 21.3453 32.647L21.2099 32M19.525 30.098C19.4291 29.822 19.3812 29.683 19.3864 29.571C19.3923 29.4552 19.433 29.3435 19.5037 29.2494C19.5743 29.1554 19.6718 29.083 19.7844 29.041C19.8928 29 20.0449 29 20.3471 29H28.3244C28.6276 29 28.7787 29 28.8871 29.04C28.9998 29.0821 29.0975 29.1546 29.1681 29.2489C29.2388 29.3431 29.2794 29.455 29.2851 29.571C29.2903 29.683 29.2424 29.821 29.1465 30.098C28.9694 30.609 28.8808 30.865 28.7443 31.072C28.4588 31.5046 28.0113 31.8156 27.494 31.941C27.246 32 26.9667 32 26.4072 32H22.2643C21.7048 32 21.4245 32 21.1776 31.94C20.6604 31.8149 20.2129 31.5042 19.9272 31.072C19.7907 30.865 19.7021 30.609 19.525 30.098Z" stroke="black" stroke-width="1.5" stroke-linecap="round" stroke-linejoin="round"/>
<path d="M20.4284 22.75L22.7729 25V29M28.2432 22.75L25.8988 25V29M20.4284 23.5C20.6357 23.5 20.8345 23.421 20.981 23.2803C21.1276 23.1397 21.2099 22.9489 21.2099 22.75C21.2099 22.5511 21.1276 22.3603 20.981 22.2197C20.8345 22.079 20.6357 22 20.4284 22C20.2212 22 20.0224 22.079 19.8759 22.2197C19.7293 22.3603 19.647 22.5511 19.647 22.75C19.647 22.9489 19.7293 23.1397 19.8759 23.2803C20.0224 23.421 20.2212 23.5 20.4284 23.5ZM28.2432 23.5C28.0359 23.5 27.8372 23.421 27.6906 23.2803C27.5441 23.1397 27.4617 22.9489 27.4617 22.75C27.4617 22.5511 27.5441 22.3603 27.6906 22.2197C27.8372 22.079 28.0359 22 28.2432 22C28.4505 22 28.6492 22.079 28.7958 22.2197C28.9424 22.3603 29.0247 22.5511 29.0247 22.75C29.0247 22.9489 28.9424 23.1397 28.7958 23.2803C28.6492 23.421 28.4505 23.5 28.2432 23.5Z" stroke="black" stroke-width="1.5" stroke-linecap="round" stroke-linejoin="round"/>
</svg>
