<svg width="50" height="50" viewBox="0 0 50 50" fill="none" xmlns="http://www.w3.org/2000/svg">
<circle cx="25" cy="25" r="25" fill="#D9D9D9"/>
<path d="M22 31H27.5C27.7833 31 28.046 30.929 28.288 30.787C28.53 30.645 28.7007 30.4493 28.8 30.2L30.9 25.3C30.9333 25.2167 30.9583 25.1333 30.975 25.05C30.9917 24.9667 31 24.8833 31 24.8V24C31 23.7167 30.904 23.479 30.712 23.287C30.52 23.095 30.2827 22.9993 30 23H25.4L26 19.6C26.0333 19.4333 26.025 19.275 25.975 19.125C25.925 18.975 25.8417 18.8417 25.725 18.725L25 18L20.4 23C20.2667 23.1333 20.1667 23.2833 20.1 23.45C20.0333 23.6167 20 23.8 20 24V29C20 29.55 20.196 30.021 20.588 30.413C20.98 30.805 21.4507 31.0007 22 31ZM25 35C23.6167 35 22.3167 34.7373 21.1 34.212C19.8833 33.6867 18.825 32.9743 17.925 32.075C17.025 31.1757 16.3127 30.1173 15.788 28.9C15.2633 27.6827 15.0007 26.3827 15 25C14.9993 23.6173 15.262 22.3173 15.788 21.1C16.314 19.8827 17.0263 18.8243 17.925 17.925C18.8237 17.0257 19.882 16.3133 21.1 15.788C22.318 15.2627 23.618 15 25 15C26.382 15 27.682 15.2627 28.9 15.788C30.118 16.3133 31.1763 17.0257 32.075 17.925C32.9737 18.8243 33.6863 19.8827 34.213 21.1C34.7397 22.3173 35.002 23.6173 35 25C34.998 26.3827 34.7353 27.6827 34.212 28.9C33.6887 30.1173 32.9763 31.1757 32.075 32.075C31.1737 32.9743 30.1153 33.687 28.9 34.213C27.6847 34.739 26.3847 35.0013 25 35ZM25 33C27.2333 33 29.125 32.225 30.675 30.675C32.225 29.125 33 27.2333 33 25C33 22.7667 32.225 20.875 30.675 19.325C29.125 17.775 27.2333 17 25 17C22.7667 17 20.875 17.775 19.325 19.325C17.775 20.875 17 22.7667 17 25C17 27.2333 17.775 29.125 19.325 30.675C20.875 32.225 22.7667 33 25 33Z" fill="#1F8F0A"/>
</svg>
