<svg width="50" height="50" viewBox="0 0 50 50" fill="none" xmlns="http://www.w3.org/2000/svg">
<circle cx="25" cy="25" r="25" fill="#D9D9D9"/>
<path d="M23.5808 18.5958H26.5808L29.8708 15.2958C29.9638 15.2021 30.0744 15.1277 30.1962 15.0769C30.3181 15.0261 30.4488 15 30.5808 15C30.7128 15 30.8435 15.0261 30.9654 15.0769C31.0872 15.1277 31.1978 15.2021 31.2908 15.2958L33.8708 17.8858C34.057 18.0732 34.1616 18.3266 34.1616 18.5908C34.1616 18.855 34.057 19.1084 33.8708 19.2958L31.5808 21.5958H23.5808V23.5958C23.5808 23.861 23.4754 24.1154 23.2879 24.3029C23.1004 24.4904 22.846 24.5958 22.5808 24.5958C22.3156 24.5958 22.0612 24.4904 21.8737 24.3029C21.6861 24.1154 21.5808 23.861 21.5808 23.5958V20.5958C21.5808 20.0654 21.7915 19.5567 22.1666 19.1816C22.5417 18.8065 23.0504 18.5958 23.5808 18.5958ZM17.5808 23.5958V27.5958L15.2908 29.8858C15.1045 30.0732 15 30.3266 15 30.5908C15 30.855 15.1045 31.1084 15.2908 31.2958L17.8708 33.8858C17.9638 33.9795 18.0744 34.0539 18.1962 34.1047C18.3181 34.1555 18.4488 34.1816 18.5808 34.1816C18.7128 34.1816 18.8435 34.1555 18.9654 34.1047C19.0872 34.0539 19.1978 33.9795 19.2908 33.8858L23.5808 29.5958H27.5808C27.846 29.5958 28.1004 29.4904 28.2879 29.3029C28.4754 29.1154 28.5808 28.861 28.5808 28.5958V27.5958H29.5808C29.846 27.5958 30.1004 27.4904 30.2879 27.3029C30.4754 27.1154 30.5808 26.861 30.5808 26.5958V25.5958H31.5808C31.846 25.5958 32.1004 25.4904 32.2879 25.3029C32.4754 25.1154 32.5808 24.861 32.5808 24.5958V23.5958H25.5808V24.5958C25.5808 25.1262 25.3701 25.6349 24.995 26.01C24.6199 26.3851 24.1112 26.5958 23.5808 26.5958H21.5808C21.0504 26.5958 20.5417 26.3851 20.1666 26.01C19.7915 25.6349 19.5808 25.1262 19.5808 24.5958V21.5958L17.5808 23.5958Z" fill="#1F8F0A"/>
</svg>
