<svg width="50" height="50" viewBox="0 0 50 50" fill="none" xmlns="http://www.w3.org/2000/svg">
<circle cx="25" cy="25" r="25" fill="#F4F4F5"/>
<path fill-rule="evenodd" clip-rule="evenodd" d="M31.9305 17.2222C31.9305 17.8116 31.6744 18.3768 31.2184 18.7936C30.7625 19.2103 30.1441 19.4444 29.4993 19.4444C28.8545 19.4444 28.2361 19.2103 27.7801 18.7936C27.3242 18.3768 27.068 17.8116 27.068 17.2222C27.068 16.6329 27.3242 16.0676 27.7801 15.6509C28.2361 15.2341 28.8545 15 29.4993 15C30.1441 15 30.7625 15.2341 31.2184 15.6509C31.6744 16.0676 31.9305 16.6329 31.9305 17.2222ZM30.7149 17.2222C30.7149 17.5169 30.5868 17.7995 30.3589 18.0079C30.1309 18.2163 29.8217 18.3333 29.4993 18.3333C29.1769 18.3333 28.8677 18.2163 28.6397 18.0079C28.4117 17.7995 28.2836 17.5169 28.2836 17.2222C28.2836 16.9275 28.4117 16.6449 28.6397 16.4365C28.8677 16.2282 29.1769 16.1111 29.4993 16.1111C29.8217 16.1111 30.1309 16.2282 30.3589 16.4365C30.5868 16.6449 30.7149 16.9275 30.7149 17.2222ZM17.0391 27.2222C17.0391 26.9275 17.1671 26.6449 17.3951 26.4365C17.6231 26.2282 17.9323 26.1111 18.2547 26.1111H20.0781C20.4006 26.1111 20.7098 26.2282 20.9377 26.4365C21.1657 26.6449 21.2938 26.9275 21.2938 27.2222V28.3333H23.1172C23.4396 28.3333 23.7488 28.4504 23.9768 28.6588C24.2048 28.8671 24.3329 29.1498 24.3329 29.4444V33.8889C24.3329 34.1836 24.2048 34.4662 23.9768 34.6746C23.7488 34.8829 23.4396 35 23.1172 35H15.2156C14.8932 35 14.584 34.8829 14.356 34.6746C14.1281 34.4662 14 34.1836 14 33.8889V29.4444C14 29.1498 14.1281 28.8671 14.356 28.6588C14.584 28.4504 14.8932 28.3333 15.2156 28.3333H17.0391V27.2222ZM15.2156 33.8889V29.4444H16.4313V33.8889H15.2156ZM20.0781 27.2222V28.3333H18.2547V27.2222H20.0781ZM20.686 29.4444H17.6469V33.8889H20.686V29.4444ZM21.9016 29.4444V33.8889H23.1172V29.4444H21.9016Z" fill="black"/>
<path d="M33.4501 23.8892C33.4501 23.5945 33.3221 23.3119 33.0941 23.1035C32.8661 22.8951 32.5569 22.7781 32.2345 22.7781V25.0003C32.5569 25.0003 32.8661 24.8832 33.0941 24.6749C33.3221 24.4665 33.4501 24.1839 33.4501 23.8892Z" fill="black"/>
<path fill-rule="evenodd" clip-rule="evenodd" d="M27.3722 34.9997C26.8886 34.9997 26.4248 34.8241 26.0829 34.5116C25.7409 34.199 25.5488 33.7751 25.5488 33.3331V23.8886H22.5097C22.0261 23.8886 21.5623 23.713 21.2204 23.4005C20.8784 23.0879 20.6863 22.664 20.6863 22.222C20.6863 21.7799 20.8784 21.356 21.2204 21.0435C21.5623 20.7309 22.0261 20.5553 22.5097 20.5553H32.8523C33.5288 20.5553 35.8816 21.3131 35.8816 23.6503C35.8816 25.5053 34.4004 26.6653 33.4504 27.0653V33.3331C33.4504 33.7751 33.2583 34.199 32.9163 34.5116C32.5744 34.8241 32.1106 34.9997 31.6269 34.9997C31.1433 34.9997 30.6795 34.8241 30.3376 34.5116C29.9956 34.199 29.8035 33.7751 29.8035 33.3331V28.8886H29.1957V33.3331C29.1957 33.7225 29.0498 34.0809 28.8043 34.3647C28.6336 34.5626 28.4161 34.7226 28.168 34.8326C27.92 34.9426 27.6479 34.9997 27.3722 34.9997ZM32.2348 26.3536L32.9416 26.0559C33.637 25.7631 34.666 24.9186 34.666 23.6503C34.666 22.8759 34.2983 22.407 33.871 22.1009C33.6634 21.9534 33.4327 21.8354 33.1866 21.7509C33.0801 21.7126 32.9694 21.6847 32.8566 21.6675C32.8484 21.6668 32.8468 21.6664 32.8517 21.6664H22.5097C22.3485 21.6664 22.1939 21.7249 22.0799 21.8291C21.9659 21.9333 21.9019 22.0746 21.9019 22.222C21.9019 22.3693 21.9659 22.5106 22.0799 22.6148C22.1939 22.719 22.3485 22.7775 22.5097 22.7775H26.7644V33.3331C26.7644 33.4804 26.8285 33.6217 26.9425 33.7259C27.0564 33.8301 27.211 33.8886 27.3722 33.8886C27.5334 33.8886 27.688 33.8301 27.802 33.7259C27.916 33.6217 27.9801 33.4804 27.9801 33.3331V27.7775H31.0191V33.3331C31.0191 33.4804 31.0832 33.6217 31.1972 33.7259C31.3111 33.8301 31.4657 33.8886 31.6269 33.8886C31.7881 33.8886 31.9427 33.8301 32.0567 33.7259C32.1707 33.6217 32.2348 33.4804 32.2348 33.3331V26.3536Z" fill="black"/>
</svg>
