<svg width="58" height="46" viewBox="0 0 58 46" fill="none" xmlns="http://www.w3.org/2000/svg">
<path d="M52.205 0.333008H6.33329C3.21663 0.333008 0.694959 2.88301 0.694959 5.99967V17.333C3.81163 17.333 6.33329 19.883 6.33329 22.9997C6.33329 26.1163 3.81163 28.6663 0.666626 28.6663V39.9997C0.666626 43.1163 3.21663 45.6663 6.33329 45.6663H51.6666C54.7833 45.6663 57.3333 43.1163 57.3333 39.9997V5.99967C57.3333 2.88301 55.0383 0.333008 52.205 0.333008ZM45.235 26.683L21.18 33.0863C20.8806 33.1666 20.5632 33.1464 20.2765 33.0286C19.9898 32.9109 19.7498 32.7022 19.5933 32.4347L16.42 26.9097C15.91 26.0597 16.3916 24.9547 17.3266 24.6997C17.78 24.5863 18.29 24.6713 18.6583 24.983L21.6333 27.3063L28.405 25.493L23.05 16.1997C22.8813 15.9052 22.7821 15.5762 22.7597 15.2375C22.7373 14.8989 22.7924 14.5597 22.9207 14.2456C23.0491 13.9315 23.2474 13.6507 23.5006 13.4247C23.7537 13.1987 24.055 13.0334 24.3816 12.9413C24.746 12.8454 25.1285 12.8418 25.4945 12.9308C25.8606 13.0199 26.1987 13.1988 26.4783 13.4513L36.9333 23.198L43.8466 21.3563C44.5454 21.1716 45.2888 21.2704 45.915 21.6313C46.5412 21.9921 46.9995 22.5858 47.19 23.283C47.37 23.9927 47.2665 24.7445 46.9016 25.3792C46.5366 26.0139 45.9388 26.4816 45.235 26.683Z" fill="white"/>
</svg>
