<svg width="20" height="16" viewBox="0 0 20 16" fill="none" xmlns="http://www.w3.org/2000/svg">
<path d="M19.5 14H0.5C0.22375 14 0 14.2238 0 14.5V15.5C0 15.7763 0.22375 16 0.5 16H19.5C19.7763 16 20 15.7763 20 15.5V14.5C20 14.2238 19.7763 14 19.5 14ZM1.40031 6.4269L4.17344 8.9269C4.40097 9.13237 4.67362 9.28148 4.96938 9.36221L13.9569 11.8106C14.7844 12.036 15.6619 12.0831 16.4881 11.8531C17.4153 11.5947 17.8456 11.1903 17.9647 10.7372C18.0844 10.2841 17.9106 9.71502 17.2344 9.01971C16.6319 8.40034 15.8484 7.99502 15.0209 7.76971L11.9738 6.93971L8.8375 0.944399C8.79031 0.762837 8.65156 0.620962 8.47313 0.572212L6.43906 0.0181494C6.10906 -0.0718506 5.78594 0.184399 5.79187 0.531899L7.28937 5.66346L4.09562 4.79346L3.23344 2.67221C3.17313 2.5194 3.04562 2.4044 2.88906 2.3619L1.6475 2.02346C1.32438 1.93534 1.00594 2.17971 1 2.51971L1.00719 5.70034C1.01312 5.97877 1.19563 6.24221 1.40031 6.4269Z" fill="black"/>
</svg>
