<svg width="24" height="24" viewBox="0 0 24 24" fill="none" xmlns="http://www.w3.org/2000/svg">
<path fill-rule="evenodd" clip-rule="evenodd" d="M7.71264 7.01422V5.92394C7.71275 5.53351 7.83271 5.15609 8.05072 4.86026C8.26873 4.56442 8.57032 4.36982 8.90068 4.31182L9.87343 4.14129C10.9518 3.9529 12.0482 3.9529 13.1266 4.14129L14.0993 4.31182C14.4297 4.36982 14.7313 4.56442 14.9493 4.86026C15.1673 5.15609 15.2872 5.53351 15.2874 5.92394V7.01422L16.654 7.14282C17.1625 7.19083 17.6425 7.4367 18.0173 7.84112C18.3921 8.24555 18.64 8.78517 18.7215 9.3737C19.0928 12.0506 19.0928 14.7798 18.7215 17.4567C18.64 18.0452 18.3921 18.5848 18.0173 18.9893C17.6425 19.3937 17.1625 19.6396 16.654 19.6876L15.1614 19.8274C12.7244 20.0575 10.2756 20.0575 7.83862 19.8274L6.346 19.6876C5.83754 19.6396 5.35753 19.3937 4.98272 18.9893C4.60792 18.5848 4.35996 18.0452 4.2785 17.4567C3.90717 14.7798 3.90717 12.0506 4.2785 9.3737C4.36013 8.78534 4.60815 8.24593 4.98294 7.84169C5.35773 7.43745 5.83765 7.19171 6.346 7.14375L7.71264 7.01422ZM10.0512 5.52324C11.0118 5.35557 11.9882 5.35557 12.9488 5.52324L13.9215 5.69377C13.9687 5.70203 14.0118 5.72979 14.043 5.77203C14.0741 5.81427 14.0913 5.86817 14.0914 5.92394V6.91638C12.3652 6.80116 10.6348 6.80116 8.90865 6.91638V5.92301C8.9087 5.86724 8.92586 5.81333 8.95703 5.7711C8.98819 5.72886 9.03129 5.70109 9.07848 5.69284L10.0512 5.52324ZM7.9351 8.39524C10.308 8.1716 12.692 8.1716 15.0649 8.39524L16.5575 8.53689C16.7994 8.55951 17.0278 8.67628 17.2062 8.86854C17.3845 9.06079 17.5026 9.31742 17.5414 9.59735C17.5909 9.95581 17.6334 10.3155 17.669 10.6764C15.7497 11.7805 13.6392 12.3547 11.5 12.3547C9.36084 12.3547 7.25026 11.7805 5.33099 10.6764C5.36607 10.3161 5.4086 9.95643 5.45856 9.59735C5.4974 9.31742 5.61545 9.06079 5.79383 8.86854C5.97221 8.67628 6.2006 8.55951 6.44248 8.53689L7.9351 8.39524ZM5.22415 12.1637C7.19508 13.2108 9.33499 13.7526 11.5 13.7526C13.665 13.7526 15.8049 13.2108 17.7759 12.1637C17.8522 13.8584 17.7736 15.5578 17.5414 17.233C17.5028 17.5131 17.3848 17.77 17.2064 17.9624C17.028 18.1549 16.7995 18.2718 16.5575 18.2944L15.0649 18.4342C12.692 18.6579 10.308 18.6579 7.9351 18.4342L6.44248 18.2944C6.20049 18.2718 5.972 18.1549 5.79361 17.9624C5.61522 17.77 5.49724 17.5131 5.45856 17.233C5.22654 15.5557 5.1476 13.856 5.22415 12.1637Z" fill="black"/>
</svg>
