<svg width="15" height="16" viewBox="0 0 15 16" fill="none" xmlns="http://www.w3.org/2000/svg">
<path fill-rule="evenodd" clip-rule="evenodd" d="M3.71264 3.01422V1.92394C3.71275 1.53351 3.83271 1.15609 4.05072 0.860255C4.26873 0.564424 4.57032 0.369823 4.90068 0.311816L5.87343 0.141285C6.95182 -0.047095 8.04818 -0.047095 9.12657 0.141285L10.0993 0.311816C10.4297 0.369823 10.7313 0.564424 10.9493 0.860255C11.1673 1.15609 11.2872 1.53351 11.2874 1.92394V3.01422L12.654 3.14282C13.1625 3.19083 13.6425 3.4367 14.0173 3.84112C14.3921 4.24555 14.64 4.78517 14.7215 5.3737C15.0928 8.05056 15.0928 10.7798 14.7215 13.4567C14.64 14.0452 14.3921 14.5848 14.0173 14.9893C13.6425 15.3937 13.1625 15.6396 12.654 15.6876L11.1614 15.8274C8.72443 16.0575 6.27557 16.0575 3.83862 15.8274L2.346 15.6876C1.83754 15.6396 1.35753 15.3937 0.982725 14.9893C0.60792 14.5848 0.359964 14.0452 0.278503 13.4567C-0.0928344 10.7798 -0.0928344 8.05056 0.278503 5.3737C0.360126 4.78534 0.608152 4.24593 0.982943 3.84169C1.35773 3.43745 1.83765 3.19171 2.346 3.14375L3.71264 3.01422ZM6.05124 1.52324C7.01175 1.35557 7.98825 1.35557 8.94876 1.52324L9.92152 1.69377C9.96871 1.70203 10.0118 1.72979 10.043 1.77203C10.0741 1.81427 10.0913 1.86817 10.0914 1.92394V2.91638C8.36519 2.80116 6.63481 2.80116 4.90865 2.91638V1.92301C4.9087 1.86724 4.92586 1.81333 4.95703 1.7711C4.98819 1.72886 5.03129 1.70109 5.07848 1.69284L6.05124 1.52324ZM3.9351 4.39524C6.30798 4.1716 8.69202 4.1716 11.0649 4.39524L12.5575 4.53689C12.7994 4.55951 13.0278 4.67628 13.2062 4.86854C13.3845 5.06079 13.5026 5.31742 13.5414 5.59735C13.5909 5.95581 13.6334 6.31551 13.669 6.67645C11.7497 7.7805 9.63916 8.35467 7.5 8.35467C5.36084 8.35467 3.25026 7.7805 1.33099 6.67645C1.36607 6.31613 1.4086 5.95643 1.45856 5.59735C1.4974 5.31742 1.61545 5.06079 1.79383 4.86854C1.97221 4.67628 2.2006 4.55951 2.44248 4.53689L3.9351 4.39524ZM1.22415 8.1637C3.19508 9.2108 5.33499 9.75257 7.5 9.75257C9.66501 9.75257 11.8049 9.2108 13.7759 8.1637C13.8522 9.85842 13.7736 11.5578 13.5414 13.233C13.5028 13.5131 13.3848 13.77 13.2064 13.9624C13.028 14.1549 12.7995 14.2718 12.5575 14.2944L11.0649 14.4342C8.69202 14.6579 6.30798 14.6579 3.9351 14.4342L2.44248 14.2944C2.20049 14.2718 1.972 14.1549 1.79361 13.9624C1.61522 13.77 1.49724 13.5131 1.45856 13.233C1.22654 11.5557 1.1476 9.85597 1.22415 8.1637Z" fill="#0059A9"/>
</svg>
