<svg width="16" height="16" viewBox="0 0 16 16" fill="none" xmlns="http://www.w3.org/2000/svg">
<path d="M14.5001 16H1.50006C0.670061 16 6.10352e-05 15.33 6.10352e-05 14.5V2.50003C6.10352e-05 1.67003 0.670061 1.00003 1.50006 1.00003H14.5001C15.3301 1.00003 16.0001 1.67003 16.0001 2.50003V14.5C16.0001 15.33 15.3301 16 14.5001 16ZM1.50006 2.00003C1.22006 2.00003 1.00006 2.22003 1.00006 2.50003V14.5C1.00006 14.78 1.22006 15 1.50006 15H14.5001C14.7801 15 15.0001 14.78 15.0001 14.5V2.50003C15.0001 2.22003 14.7801 2.00003 14.5001 2.00003H1.50006Z" fill="black"/>
<path d="M4.50006 4.00003C4.22006 4.00003 4.00006 3.78003 4.00006 3.50003V0.500031C4.00006 0.220031 4.22006 3.05176e-05 4.50006 3.05176e-05C4.78006 3.05176e-05 5.00006 0.220031 5.00006 0.500031V3.50003C5.00006 3.78003 4.78006 4.00003 4.50006 4.00003ZM11.5001 4.00003C11.2201 4.00003 11.0001 3.78003 11.0001 3.50003V0.500031C11.0001 0.220031 11.2201 3.05176e-05 11.5001 3.05176e-05C11.7801 3.05176e-05 12.0001 0.220031 12.0001 0.500031V3.50003C12.0001 3.78003 11.7801 4.00003 11.5001 4.00003ZM15.5001 6.00003H0.500061C0.220061 6.00003 6.10352e-05 5.78003 6.10352e-05 5.50003C6.10352e-05 5.22003 0.220061 5.00003 0.500061 5.00003H15.5001C15.7801 5.00003 16.0001 5.22003 16.0001 5.50003C16.0001 5.78003 15.7801 6.00003 15.5001 6.00003Z" fill="black"/>
</svg>
