<svg xmlns="http://www.w3.org/2000/svg" version="1.1" xmlns:xlink="http://www.w3.org/1999/xlink" width="512" height="512" x="0" y="0" viewBox="0 0 47.76 47.76" style="enable-background:new 0 0 512 512" xml:space="preserve" class=""><g><path d="M14.94 18.41C17 23.64 24.22 30.8 29.72 32.74a4 4 0 0 0 4.07-1l.37-.37a3.83 3.83 0 0 1 5.48-.16l7 7a4 4 0 0 1 0 5.65l-.73.73A10.82 10.82 0 0 1 32 45.81a121 121 0 0 1-30-30A10.85 10.85 0 0 1 3.19 1.9l.73-.73a4 4 0 0 1 5.66 0L16.37 8a4 4 0 0 1 0 5.66l-.52.52a4 4 0 0 0-.91 4.23z" data-name="Layer 2" fill="#000000" opacity="1" data-original="#000000"></path></g></svg>