<svg width="19" height="19" viewBox="0 0 19 19" fill="none" xmlns="http://www.w3.org/2000/svg">
<mask id="mask0_363_3896" style="mask-type:luminance" maskUnits="userSpaceOnUse" x="0" y="0" width="19" height="19">
<path d="M9.41667 17.0833C10.4237 17.0846 11.421 16.8868 12.3513 16.5015C13.2816 16.1161 14.1266 15.5507 14.8378 14.8378C15.5507 14.1266 16.1161 13.2816 16.5015 12.3513C16.8868 11.421 17.0846 10.4237 17.0833 9.41667C17.0846 8.40969 16.8868 7.41239 16.5015 6.48206C16.1161 5.55173 15.5507 4.70672 14.8378 3.99557C14.1266 3.28263 13.2816 2.71724 12.3513 2.33187C11.421 1.94651 10.4237 1.74876 9.41667 1.75001C8.40969 1.74876 7.41239 1.94651 6.48206 2.33187C5.55173 2.71724 4.70672 3.28263 3.99557 3.99557C3.28263 4.70672 2.71724 5.55173 2.33187 6.48206C1.94651 7.41239 1.74876 8.40969 1.75001 9.41667C1.74876 10.4237 1.94651 11.421 2.33187 12.3513C2.71724 13.2816 3.28263 14.1266 3.99557 14.8378C4.70672 15.5507 5.55173 16.1161 6.48206 16.5015C7.41239 16.8868 8.40969 17.0846 9.41667 17.0833Z" fill="white" stroke="white" stroke-width="2" stroke-linejoin="round"/>
<path d="M6.34961 9.4167L8.64961 11.7167L13.2496 7.1167" stroke="black" stroke-width="2" stroke-linecap="round" stroke-linejoin="round"/>
</mask>
<g mask="url(#mask0_363_3896)">
<path d="M0.216797 0.216797H18.6168V18.6168H0.216797V0.216797Z" fill="#1F8F0A"/>
</g>
</svg>
