<svg width="25" height="25" viewBox="0 0 25 25" fill="none" xmlns="http://www.w3.org/2000/svg">
<path d="M12.4886 2.78925C18.0116 2.78925 22.4886 7.26625 22.4886 12.7892C22.4886 18.3122 18.0116 22.7892 12.4886 22.7892C6.96559 22.7892 2.48859 18.3122 2.48859 12.7892C2.48859 7.26625 6.96559 2.78925 12.4886 2.78925ZM12.4886 4.78925C10.3669 4.78925 8.33202 5.6321 6.83173 7.13239C5.33144 8.63268 4.48859 10.6675 4.48859 12.7892C4.48859 14.911 5.33144 16.9458 6.83173 18.4461C8.33202 19.9464 10.3669 20.7892 12.4886 20.7892C14.6103 20.7892 16.6452 19.9464 18.1454 18.4461C19.6457 16.9458 20.4886 14.911 20.4886 12.7892C20.4886 10.6675 19.6457 8.63268 18.1454 7.13239C16.6452 5.6321 14.6103 4.78925 12.4886 4.78925ZM12.4886 6.78925C12.7335 6.78928 12.9699 6.8792 13.153 7.04196C13.336 7.20472 13.4529 7.42899 13.4816 7.67225L13.4886 7.78925V12.3752L16.1956 15.0822C16.3749 15.2622 16.4791 15.5037 16.4868 15.7576C16.4946 16.0116 16.4054 16.259 16.2373 16.4495C16.0693 16.6401 15.835 16.7596 15.5821 16.7836C15.3292 16.8077 15.0766 16.7347 14.8756 16.5792L14.7816 16.4962L11.7816 13.4962C11.6262 13.3407 11.5263 13.1382 11.4976 12.9202L11.4886 12.7892V7.78925C11.4886 7.52403 11.5939 7.26968 11.7815 7.08214C11.969 6.8946 12.2234 6.78925 12.4886 6.78925Z" fill="black"/>
</svg>
