<svg width="20" height="15" viewBox="0 0 20 15" fill="none" xmlns="http://www.w3.org/2000/svg">
<path d="M19.5001 13.0002H0.500089C0.223839 13.0002 8.88318e-05 13.224 8.88318e-05 13.5002V14.5002C8.88318e-05 14.7765 0.223839 15.0002 0.500089 15.0002H19.5001C19.7763 15.0002 20.0001 14.7765 20.0001 14.5002V13.5002C20.0001 13.224 19.7763 13.0002 19.5001 13.0002ZM2.51728 9.66491C2.71353 9.87866 2.98915 9.99991 3.27759 9.9996L7.35696 9.99397C7.6789 9.99356 7.99622 9.91734 8.28321 9.77147L17.3757 5.15741C18.2113 4.73335 18.9604 4.12803 19.4701 3.33522C20.0423 2.44522 20.1045 1.80116 19.8785 1.34616C19.6532 0.890845 19.1054 0.55647 18.0582 0.488345C17.1254 0.42772 16.1976 0.673345 15.362 1.0971L12.2835 2.65928L5.44915 0.0949078C5.36698 0.039554 5.27151 0.00715306 5.17262 0.00105479C5.07373 -0.00504347 4.975 0.0153822 4.88665 0.0602203L2.83196 1.10303C2.49853 1.2721 2.4179 1.7171 2.6704 1.9946L7.55228 5.06022L4.32696 6.6971L2.06603 5.55741C1.98813 5.51813 1.90209 5.49771 1.81486 5.49782C1.72762 5.49793 1.64163 5.51856 1.56384 5.55803L0.309776 6.1946C-0.0164737 6.36022 -0.102411 6.79209 0.135714 7.07209L2.51728 9.66491Z" fill="black"/>
</svg>
