<svg width="26" height="24" viewBox="0 0 26 24" fill="none" xmlns="http://www.w3.org/2000/svg">
<path d="M12.2462 7.84717C11.2821 8.10317 10.7012 8.82217 10.7012 9.50017C10.7012 10.1782 11.2821 10.8972 12.2462 11.1522V7.84717ZM13.7912 12.8482V16.1522C14.7553 15.8972 15.3362 15.1782 15.3362 14.5002C15.3362 13.8222 14.7553 13.1032 13.7912 12.8482Z" fill="black"/>
<path fill-rule="evenodd" clip-rule="evenodd" d="M23.3187 12C23.3187 17.523 18.7074 22 13.0187 22C7.33006 22 2.71875 17.523 2.71875 12C2.71875 6.477 7.33006 2 13.0187 2C18.7074 2 23.3187 6.477 23.3187 12ZM13.0187 5.25C13.2236 5.25 13.4201 5.32902 13.565 5.46967C13.7099 5.61032 13.7912 5.80109 13.7912 6V6.317C15.4701 6.609 16.8812 7.834 16.8812 9.5C16.8812 9.69891 16.7999 9.88968 16.655 10.0303C16.5101 10.171 16.3136 10.25 16.1087 10.25C15.9039 10.25 15.7074 10.171 15.5625 10.0303C15.4176 9.88968 15.3362 9.69891 15.3362 9.5C15.3362 8.822 14.7553 8.103 13.7912 7.847V11.317C15.4701 11.609 16.8812 12.834 16.8812 14.5C16.8812 16.166 15.4701 17.391 13.7912 17.683V18C13.7912 18.1989 13.7099 18.3897 13.565 18.5303C13.4201 18.671 13.2236 18.75 13.0187 18.75C12.8139 18.75 12.6174 18.671 12.4725 18.5303C12.3276 18.3897 12.2462 18.1989 12.2462 18V17.683C10.5673 17.391 9.15625 16.166 9.15625 14.5C9.15625 14.3011 9.23764 14.1103 9.38251 13.9697C9.52738 13.829 9.72387 13.75 9.92875 13.75C10.1336 13.75 10.3301 13.829 10.475 13.9697C10.6199 14.1103 10.7012 14.3011 10.7012 14.5C10.7012 15.178 11.2822 15.897 12.2462 16.152V12.683C10.5673 12.391 9.15625 11.166 9.15625 9.5C9.15625 7.834 10.5673 6.609 12.2462 6.317V6C12.2462 5.80109 12.3276 5.61032 12.4725 5.46967C12.6174 5.32902 12.8139 5.25 13.0187 5.25Z" fill="black"/>
</svg>
