<svg width="19" height="17" viewBox="0 0 19 17" fill="none" xmlns="http://www.w3.org/2000/svg">
<path d="M0.125 5.43437V13.1875C0.125 14.0163 0.45424 14.8112 1.04029 15.3972C1.62634 15.9833 2.4212 16.3125 3.25 16.3125H15.75C16.5788 16.3125 17.3737 15.9833 17.9597 15.3972C18.5458 14.8112 18.875 14.0163 18.875 13.1875V3.8125C18.875 2.9837 18.5458 2.18884 17.9597 1.60279C17.3737 1.01674 16.5788 0.6875 15.75 0.6875H3.25C2.4212 0.6875 1.62634 1.01674 1.04029 1.60279C0.45424 2.18884 0.125 2.9837 0.125 3.8125V5.43437ZM3.25 2.25H15.75C16.1644 2.25 16.5618 2.41462 16.8549 2.70765C17.1479 3.00067 17.3125 3.3981 17.3125 3.8125V4.96875L9.5 9.175L1.6875 4.96875V3.8125C1.6875 3.3981 1.85212 3.00067 2.14515 2.70765C2.43817 2.41462 2.8356 2.25 3.25 2.25ZM1.6875 6.74375L9.12969 10.75C9.2435 10.8113 9.37074 10.8433 9.5 10.8433C9.62926 10.8433 9.7565 10.8113 9.87031 10.75L17.3125 6.74375V13.1875C17.3125 13.6019 17.1479 13.9993 16.8549 14.2924C16.5618 14.5854 16.1644 14.75 15.75 14.75H3.25C2.8356 14.75 2.43817 14.5854 2.14515 14.2924C1.85212 13.9993 1.6875 13.6019 1.6875 13.1875V6.74375Z" fill="white"/>
</svg>
