<svg width="20" height="23" viewBox="0 0 20 23" fill="none" xmlns="http://www.w3.org/2000/svg">
<path d="M10.7427 21.9803C11.3387 21.5496 11.7142 20.8291 12.0176 20.1807C12.4546 19.2431 12.8237 18.0594 12.8237 17.2448L12.7579 14.9021L17.958 12.5588C18.2801 12.4262 18.5568 12.2031 18.7546 11.9165C18.9524 11.6298 19.0628 11.2919 19.0724 10.9437L19.1304 8.9101C19.1438 8.4427 18.7132 8.06864 18.2514 8.14855L12.5953 9.13355L12.5599 7.87914C12.5599 7.14375 12.5373 6.44796 12.4418 5.84479C12.4008 5.57113 12.3358 5.30162 12.2474 5.0394L14.3567 4.12369C15.0072 3.84085 15.3912 3.18819 15.4096 2.50937L15.452 1.02445C15.4538 0.917504 15.4329 0.811396 15.3907 0.713113C15.3485 0.614831 15.286 0.526604 15.2072 0.454249C15.1284 0.381894 15.0352 0.327053 14.9337 0.293338C14.8322 0.259623 14.7247 0.2478 14.6183 0.258649L9.97049 0.774131L5.32268 0.258649C4.8772 0.209151 4.47769 0.576141 4.49042 1.02445L4.53143 2.51078C4.55052 3.18749 4.93377 3.84227 5.58431 4.1237L7.6929 5.03869C7.6031 5.2982 7.54229 5.57114 7.49916 5.84479C7.4037 6.44796 7.38107 7.14375 7.38036 7.87843L7.34571 9.13355L1.68886 8.14925C1.57949 8.13167 1.4676 8.13827 1.36106 8.16859C1.25452 8.19891 1.15592 8.25221 1.0722 8.32474C0.988477 8.39727 0.92167 8.48727 0.876479 8.5884C0.831287 8.68954 0.808811 8.79935 0.810632 8.9101L0.86932 10.9444C0.879104 11.2926 0.989665 11.6304 1.18759 11.9169C1.38552 12.2034 1.66232 12.4264 1.98443 12.5588L7.18379 14.9028L7.11802 17.2455C7.11802 18.0615 7.48713 19.2438 7.92413 20.1814C8.22677 20.8291 8.60295 21.5503 9.19904 21.981C9.42041 22.1503 9.69132 22.2421 9.97002 22.2422C10.2487 22.2423 10.5197 22.1508 10.7412 21.9817" fill="#3E7DC3"/>
</svg>
