<svg width="19" height="19" viewBox="0 0 19 19" fill="none" xmlns="http://www.w3.org/2000/svg">
<path d="M13.4457 10.8759V10.2949C13.4457 9.23529 13.4457 8.70475 13.1551 8.37532C12.8645 8.0459 12.3956 8.0459 11.4592 8.0459H6.16531C5.22886 8.0459 4.76128 8.0459 4.47065 8.37532C4.18003 8.70475 4.18003 9.23456 4.18003 10.2949V10.8759C4.18003 11.147 4.18003 11.2825 4.15807 11.4151C4.1374 11.5477 4.09478 11.6746 4.01082 11.9283L3.87068 12.3522C3.1086 14.6531 2.7282 15.8036 3.22162 16.6102C3.71503 17.4168 4.80003 17.4168 6.96937 17.4168H10.6558C12.8257 17.4168 13.9101 17.4168 14.4035 16.6095C14.8969 15.8036 14.5159 14.6531 13.7545 12.3522L13.6143 11.9283C13.5303 11.6746 13.4877 11.5477 13.4664 11.4151C13.4457 11.2825 13.4457 11.147 13.4457 10.8759Z" stroke="black" stroke-linecap="round" stroke-linejoin="round"/>
<path d="M11.3951 9.48757C11.3951 5.16252 10.0169 3 8.81182 3C7.6067 3 6.2285 5.16252 6.2285 9.48757M10.0647 13.8162C10.8849 13.7211 12.3303 13.1833 13.3681 12.3291M7.59443 13.835C6.77423 13.7405 5.32886 13.2021 4.29102 12.3493M8.81182 13.0918C9.61911 13.0918 10.7131 14.9861 9.68692 15.1786C9.10702 15.2795 8.51662 15.2795 7.93672 15.1786C6.9105 14.9861 8.00453 13.0918 8.81182 13.0918Z" stroke="black" stroke-linecap="round" stroke-linejoin="round"/>
</svg>
