<svg width="18" height="20" viewBox="0 0 18 20" fill="none" xmlns="http://www.w3.org/2000/svg">
<path d="M7.16732 19.1667V13.1442M9.00065 9.08332H9.00982M9.00065 5.41666H9.00982M10.834 13.1442V19.1667M11.7507 13.6667C10.9573 13.0716 9.99235 12.75 9.00065 12.75C8.00895 12.75 7.04401 13.0716 6.25065 13.6667M12.6673 9.08332H12.6765M12.6673 5.41666H12.6765M5.33398 9.08332H5.34315M5.33398 5.41666H5.34315" stroke="white" stroke-width="1.5" stroke-linecap="round" stroke-linejoin="round"/>
<path d="M14.5003 0.833313H3.50033C2.4878 0.833313 1.66699 1.65412 1.66699 2.66665V17.3333C1.66699 18.3458 2.4878 19.1666 3.50033 19.1666H14.5003C15.5128 19.1666 16.3337 18.3458 16.3337 17.3333V2.66665C16.3337 1.65412 15.5128 0.833313 14.5003 0.833313Z" stroke="white" stroke-width="1.5" stroke-linecap="round" stroke-linejoin="round"/>
</svg>
