<svg width="25" height="25" viewBox="0 0 25 25" fill="none" xmlns="http://www.w3.org/2000/svg">
<path d="M13.3166 0.166504C14.6666 0.170104 15.3517 0.177304 15.9433 0.194103L16.1761 0.202503C16.4449 0.212103 16.7101 0.224102 17.0304 0.238502C18.3072 0.298501 19.1783 0.500096 19.9427 0.796489C20.7346 1.10128 21.4018 1.51407 22.069 2.18006C22.6794 2.77972 23.1515 3.50539 23.4525 4.3064C23.7489 5.07079 23.9505 5.94196 24.0105 7.21993C24.0249 7.53913 24.0369 7.80432 24.0465 8.07431L24.0537 8.30711C24.0717 8.89749 24.0789 9.58268 24.0813 10.9326L24.0825 11.8278V13.3998C24.0854 14.275 24.0762 15.1503 24.0549 16.0253L24.0477 16.2581C24.0381 16.5281 24.0261 16.7933 24.0117 17.1125C23.9517 18.3905 23.7477 19.2604 23.4525 20.026C23.1515 20.827 22.6794 21.5527 22.069 22.1524C21.4693 22.7628 20.7437 23.235 19.9427 23.5359C19.1783 23.8323 18.3072 24.0339 17.0304 24.0939L16.1761 24.1299L15.9433 24.1371C15.3517 24.1539 14.6666 24.1623 13.3166 24.1647L12.4215 24.1659H10.8507C9.9751 24.169 9.09946 24.1598 8.22408 24.1383L7.99129 24.1311C7.70644 24.1203 7.42165 24.1079 7.13693 24.0939C5.8602 24.0339 4.98904 23.8323 4.22348 23.5359C3.42292 23.2348 2.69769 22.7626 2.09839 22.1524C1.48755 21.5528 1.01497 20.8271 0.713659 20.026C0.417274 19.2616 0.215684 18.3905 0.155687 17.1125L0.119688 16.2581L0.113689 16.0253C0.0915693 15.1503 0.0815687 14.2751 0.0836903 13.3998V10.9326C0.080369 10.0574 0.0891695 9.18212 0.110089 8.30711L0.118489 8.07431C0.128088 7.80432 0.140088 7.53913 0.154487 7.21993C0.214484 5.94196 0.416074 5.07198 0.712459 4.3064C1.01448 3.50506 1.48789 2.77936 2.09959 2.18006C2.69854 1.56993 3.42335 1.09777 4.22348 0.796489C4.98904 0.500096 5.859 0.298501 7.13693 0.238502C7.45612 0.224102 7.72251 0.212103 7.99129 0.202503L8.22408 0.195303C9.09907 0.173983 9.97431 0.164782 10.8495 0.167704L13.3166 0.166504ZM12.0831 6.16636C10.4919 6.16636 8.96582 6.79848 7.84066 7.92368C6.7155 9.04887 6.08339 10.575 6.08339 12.1662C6.08339 13.7575 6.7155 15.2836 7.84066 16.4088C8.96582 17.5339 10.4919 18.1661 12.0831 18.1661C13.6743 18.1661 15.2003 17.5339 16.3255 16.4088C17.4507 15.2836 18.0828 13.7575 18.0828 12.1662C18.0828 10.575 17.4507 9.04887 16.3255 7.92368C15.2003 6.79848 13.6743 6.16636 12.0831 6.16636ZM12.0831 8.5663C12.5558 8.56622 13.0239 8.65926 13.4607 8.8401C13.8975 9.02094 14.2944 9.28604 14.6287 9.62027C14.963 9.95449 15.2283 10.3513 15.4093 10.788C15.5902 11.2248 15.6834 11.6929 15.6835 12.1656C15.6836 12.6384 15.5905 13.1065 15.4097 13.5433C15.2289 13.9801 14.9638 14.377 14.6296 14.7113C14.2953 15.0457 13.8986 15.3109 13.4618 15.4919C13.0251 15.6729 12.557 15.766 12.0843 15.7661C11.1296 15.7661 10.2139 15.3869 9.53883 14.7117C8.86373 14.0366 8.48447 13.121 8.48447 12.1662C8.48447 11.2115 8.86373 10.2958 9.53883 9.62069C10.2139 8.94558 11.1296 8.5663 12.0843 8.5663M18.384 4.3664C17.9862 4.3664 17.6047 4.52443 17.3234 4.80573C17.0421 5.08703 16.884 5.46855 16.884 5.86637C16.884 6.26418 17.0421 6.6457 17.3234 6.927C17.6047 7.2083 17.9862 7.36633 18.384 7.36633C18.7818 7.36633 19.1633 7.2083 19.4446 6.927C19.7259 6.6457 19.8839 6.26418 19.8839 5.86637C19.8839 5.46855 19.7259 5.08703 19.4446 4.80573C19.1633 4.52443 18.7818 4.3664 18.384 4.3664Z" fill="white"/>
</svg>
