<svg width="18" height="22" viewBox="0 0 18 22" fill="none" xmlns="http://www.w3.org/2000/svg">
<path d="M3.25292 3.88194C4.75812 2.34272 6.78463 1.48552 8.89209 1.49663C10.9996 1.50773 13.0177 2.38625 14.5079 3.94126C15.9981 5.49627 16.84 7.60212 16.8506 9.80121C16.8613 12.0003 16.0398 14.1149 14.5647 15.6856L10.3369 20.0972C9.95814 20.4923 9.44445 20.7143 8.90882 20.7143C8.3732 20.7143 7.85951 20.4923 7.48071 20.0972L3.25292 15.6856C1.75298 14.1202 0.910339 11.9973 0.910339 9.78375C0.910339 7.57018 1.75298 5.44725 3.25292 3.88194Z" stroke="white" stroke-width="1.2" stroke-linejoin="round"/>
<path d="M8.90904 12.9454C10.5824 12.9454 11.939 11.5299 11.939 9.78372C11.939 8.03757 10.5824 6.62204 8.90904 6.62204C7.23564 6.62204 5.87909 8.03757 5.87909 9.78372C5.87909 11.5299 7.23564 12.9454 8.90904 12.9454Z" stroke="white" stroke-width="1.2" stroke-linecap="round" stroke-linejoin="round"/>
</svg>
