<svg width="19" height="19" viewBox="0 0 19 19" fill="none" xmlns="http://www.w3.org/2000/svg">
<path d="M5.06668 3.76832C6.24652 2.61209 7.83498 1.96818 9.4869 1.97652C11.1388 1.98486 12.7207 2.64479 13.8888 3.81288C15.0569 4.98098 15.7168 6.56286 15.7252 8.21477C15.7335 9.86669 15.0896 11.4552 13.9334 12.635L10.6194 15.9489C10.3225 16.2457 9.91986 16.4125 9.50002 16.4125C9.08017 16.4125 8.67752 16.2457 8.3806 15.9489L5.06668 12.635C3.89097 11.4592 3.23047 9.86445 3.23047 8.20166C3.23047 6.53886 3.89097 4.94416 5.06668 3.76832Z" stroke="#1F8F0A" stroke-linejoin="round"/>
<path d="M9.5 10.5767C10.8117 10.5767 11.875 9.51334 11.875 8.20166C11.875 6.88998 10.8117 5.82666 9.5 5.82666C8.18832 5.82666 7.125 6.88998 7.125 8.20166C7.125 9.51334 8.18832 10.5767 9.5 10.5767Z" stroke="#1F8F0A" stroke-linecap="round" stroke-linejoin="round"/>
</svg>
