<svg width="16" height="19" viewBox="0 0 16 19" fill="none" xmlns="http://www.w3.org/2000/svg">
<path d="M8.62472 17.1199C8.47033 17.226 8.28503 17.283 8.09495 17.283C7.90486 17.283 7.71957 17.226 7.56518 17.1199C2.99684 14.0063 -1.85151 7.60176 3.04982 2.97383C4.39538 1.70816 6.20748 0.999208 8.09495 1C9.98699 1 11.8024 1.71011 13.1401 2.97293C18.0414 7.60085 13.1931 14.0045 8.62472 17.1199Z" stroke="black" stroke-width="1.5" stroke-linecap="round" stroke-linejoin="round"/>
<path d="M8.09517 9.1411C8.59697 9.1411 9.07822 8.95048 9.43304 8.61119C9.78787 8.2719 9.98721 7.81173 9.98721 7.3319C9.98721 6.85207 9.78787 6.3919 9.43304 6.05261C9.07822 5.71332 8.59697 5.52271 8.09517 5.52271C7.59337 5.52271 7.11212 5.71332 6.75729 6.05261C6.40246 6.3919 6.20312 6.85207 6.20312 7.3319C6.20312 7.81173 6.40246 8.2719 6.75729 8.61119C7.11212 8.95048 7.59337 9.1411 8.09517 9.1411Z" stroke="black" stroke-width="1.5" stroke-linecap="round" stroke-linejoin="round"/>
</svg>
