<svg width="15" height="15" viewBox="0 0 15 15" fill="none" xmlns="http://www.w3.org/2000/svg">
<path d="M4.00042 2.97501C4.93187 2.06219 6.18593 1.55384 7.49007 1.56043C8.79421 1.56701 10.0431 2.088 10.9652 3.01019C11.8874 3.93237 12.4084 5.18122 12.415 6.48536C12.4216 7.78951 11.9132 9.04356 11.0004 9.97501L8.38417 12.5913C8.14976 12.8256 7.83188 12.9572 7.50042 12.9572C7.16897 12.9572 6.85108 12.8256 6.61667 12.5913L4.00042 9.97501C3.07223 9.04672 2.55078 7.78774 2.55078 6.47501C2.55078 5.16227 3.07223 3.9033 4.00042 2.97501Z" stroke="black" stroke-linejoin="round"/>
<path d="M7.5 8.35004C8.53553 8.35004 9.375 7.51057 9.375 6.47504C9.375 5.4395 8.53553 4.60004 7.5 4.60004C6.46447 4.60004 5.625 5.4395 5.625 6.47504C5.625 7.51057 6.46447 8.35004 7.5 8.35004Z" stroke="black" stroke-linecap="round" stroke-linejoin="round"/>
</svg>
