<svg width="34" height="34" viewBox="0 0 34 34" fill="none" xmlns="http://www.w3.org/2000/svg">
<circle cx="17" cy="17" r="17" fill="#3E7DC3"/>
<path d="M12.5116 25C12.0959 25 11.7402 24.8416 11.4444 24.5248C11.1486 24.208 11.0005 23.8267 11 23.381V15.2857C11 14.8405 11.1481 14.4595 11.4444 14.1427C11.7407 13.8259 12.0964 13.6672 12.5116 13.6667H13.2674V12.0476C13.2674 10.9278 13.636 9.97335 14.3732 9.18433C15.1104 8.39532 16.0015 8.00054 17.0465 8C18.0915 7.99946 18.9829 8.39424 19.7206 9.18433C20.4583 9.97443 20.8266 10.9289 20.8256 12.0476V13.6667H21.5814C21.9971 13.6667 22.3531 13.8253 22.6494 14.1427C22.9456 14.46 23.0935 14.841 23.093 15.2857V23.381C23.093 23.8262 22.9451 24.2075 22.6494 24.5248C22.3536 24.8421 21.9976 25.0005 21.5814 25H12.5116ZM12.5116 23.381H21.5814V15.2857H12.5116V23.381ZM17.0465 20.9524C17.4622 20.9524 17.8182 20.794 18.1145 20.4772C18.4108 20.1604 18.5586 19.7791 18.5581 19.3333C18.5576 18.8876 18.4097 18.5065 18.1145 18.1903C17.8192 17.874 17.4632 17.7154 17.0465 17.7143C16.6298 17.7132 16.2741 17.8719 15.9793 18.1903C15.6845 18.5087 15.5364 18.8897 15.5349 19.3333C15.5334 19.777 15.6815 20.1582 15.9793 20.4772C16.2771 20.7961 16.6328 20.9545 17.0465 20.9524ZM14.7791 13.6667H19.314V12.0476C19.314 11.373 19.0935 10.7996 18.6526 10.3274C18.2117 9.85516 17.6764 9.61905 17.0465 9.61905C16.4167 9.61905 15.8813 9.85516 15.4404 10.3274C14.9995 10.7996 14.7791 11.373 14.7791 12.0476V13.6667Z" fill="white"/>
</svg>
