<svg width="83" height="36" viewBox="0 0 83 36" fill="none" xmlns="http://www.w3.org/2000/svg">
<rect width="83" height="36" rx="12" fill="#FAFAFA"/>
<path d="M32.663 33.9263V31.7205C32.663 30.8747 32.2362 30.3234 31.5047 30.3234C31.1391 30.3234 30.7428 30.4704 30.4685 30.9484C30.2553 30.544 29.9505 30.3234 29.4934 30.3234C29.1885 30.3234 28.8839 30.4336 28.64 30.8381V30.3969H28V33.9263H28.64V31.9777C28.64 31.3529 28.9143 31.0586 29.3411 31.0586C29.7676 31.0586 29.9811 31.3896 29.9811 31.9777V33.9263H30.6211V31.9777C30.6211 31.3529 30.9257 31.0586 31.3219 31.0586C31.7487 31.0586 31.9619 31.3896 31.9619 31.9777V33.9263H32.663ZM42.1409 30.3969H41.1049V29.3308H40.4649V30.3969H39.8858V31.0953H40.4647V32.7131C40.4647 33.522 40.7391 33.9998 41.4705 33.9998C41.7449 33.9998 42.0495 33.8896 42.263 33.7426L42.08 33.0807C41.8972 33.2278 41.6839 33.2646 41.5315 33.2646C41.2268 33.2646 41.1049 33.044 41.1049 32.6763V31.0953H42.1409V30.3969ZM47.5658 30.3232C47.2001 30.3232 46.9564 30.544 46.8039 30.8381V30.3969H46.1639V33.9263H46.8039V31.941C46.8039 31.3529 47.0172 31.0219 47.4134 31.0219C47.5353 31.0219 47.6877 31.0588 47.8096 31.0955L47.9924 30.3602C47.8705 30.3234 47.6877 30.3234 47.5658 30.3234M39.3677 30.6912C39.0628 30.4338 38.6362 30.3236 38.1791 30.3236C37.4477 30.3236 36.9601 30.7647 36.9601 31.4632C36.9601 32.0516 37.3258 32.3823 37.9658 32.4927L38.2705 32.5296C38.6058 32.6029 38.7887 32.7133 38.7887 32.8972C38.7887 33.1544 38.5449 33.3383 38.1181 33.3383C37.6913 33.3383 37.3562 33.1544 37.1428 32.9707L36.8381 33.5589C37.1734 33.853 37.6305 34 38.0876 34C38.9409 34 39.4287 33.5222 39.4287 32.8603C39.4287 32.2353 39.0324 31.9044 38.4228 31.7942L38.1181 31.7573C37.8438 31.7205 37.6305 31.6471 37.6305 31.4266C37.6305 31.1692 37.8438 31.0221 38.1791 31.0221C38.5449 31.0221 38.9105 31.2058 39.0934 31.3162L39.3677 30.6912ZM56.3735 30.3236C56.0077 30.3236 55.7639 30.5441 55.6115 30.8382V30.3971H54.9715V33.9265H55.6115V31.9412C55.6115 31.353 55.8249 31.0221 56.2209 31.0221C56.343 31.0221 56.4954 31.059 56.6173 31.0956L56.8001 30.3604C56.6782 30.3236 56.4954 30.3236 56.3735 30.3236ZM48.2058 32.1618C48.2058 33.2279 48.8153 34 49.7601 34C50.1868 34 50.4915 33.8898 50.7962 33.5957L50.4915 32.9707C50.2477 33.1913 50.0039 33.3015 49.7296 33.3015C49.2115 33.3015 48.8458 32.8603 48.8458 32.1618C48.8458 31.5001 49.2115 31.0588 49.7296 31.0221C50.0039 31.0221 50.2477 31.1323 50.4915 31.353L50.7962 30.728C50.4915 30.4338 50.1868 30.3236 49.7601 30.3236C48.8153 30.3236 48.2058 31.0956 48.2058 32.1618ZM54.1182 32.1618V30.3971H53.4782V30.8382C53.2649 30.5075 52.9601 30.3236 52.5639 30.3236C51.7411 30.3236 51.1011 31.0956 51.1011 32.1618C51.1011 33.2279 51.7411 34 52.5639 34C52.9905 34 53.2954 33.8163 53.4782 33.4853V33.9265H54.1182V32.1618ZM51.7715 32.1618C51.7715 31.5368 52.1068 31.0221 52.6553 31.0221C53.1734 31.0221 53.5392 31.5001 53.5392 32.1618C53.5392 32.7868 53.1734 33.3015 52.6553 33.3015C52.1068 33.2646 51.7715 32.7868 51.7715 32.1618ZM44.122 30.3236C43.2687 30.3236 42.6591 31.0588 42.6591 32.1618C42.6591 33.2648 43.2685 34 44.1524 34C44.5791 34 45.0058 33.853 45.3411 33.5222L45.0362 32.9707C44.7924 33.1913 44.4877 33.3383 44.183 33.3383C43.7868 33.3383 43.3905 33.1177 43.2991 32.4925H45.463V32.1986C45.4935 31.0588 44.945 30.3236 44.122 30.3236ZM44.1219 30.9853C44.518 30.9853 44.7924 31.2795 44.8532 31.831H43.3295C43.3904 31.353 43.6647 30.9853 44.1219 30.9853ZM60 32.1618V29H59.36V30.8382C59.1466 30.5075 58.8419 30.3236 58.4457 30.3236C57.6228 30.3236 56.9828 31.0956 56.9828 32.1618C56.9828 33.2279 57.6228 34 58.4457 34C58.8724 34 59.1772 33.8163 59.36 33.4853V33.9265H60V32.1618ZM57.6534 32.1618C57.6534 31.5368 57.9885 31.0221 58.5372 31.0221C59.0553 31.0221 59.4209 31.5001 59.4209 32.1618C59.4209 32.7868 59.0553 33.3015 58.5372 33.3015C57.9885 33.2646 57.6534 32.7868 57.6534 32.1618ZM36.2589 32.1618V30.3971H35.6189V30.8382C35.4055 30.5075 35.1008 30.3236 34.7046 30.3236C33.8818 30.3236 33.2418 31.0956 33.2418 32.1618C33.2418 33.2279 33.8818 34 34.7046 34C35.1313 34 35.4361 33.8163 35.6189 33.4853V33.9265H36.2589V32.1618ZM33.8818 32.1618C33.8818 31.5368 34.217 31.0221 34.7655 31.0221C35.2836 31.0221 35.6495 31.5001 35.6495 32.1618C35.6495 32.7868 35.2836 33.3015 34.7655 33.3015C34.217 33.2646 33.8818 32.7868 33.8818 32.1618Z" fill="black"/>
<path d="M37.814 4H47.814V26H37.814V4Z" fill="#FF5F00"/>
<path d="M38.3416 15C38.3416 10.8473 40.1044 7.16388 42.814 4.78049C40.8227 3.04719 38.309 2 35.5667 2C29.0699 2 23.814 7.8138 23.814 15C23.814 22.1862 29.0699 28 35.5666 28C38.3089 28 40.8226 26.9528 42.814 25.2194C40.1044 22.8722 38.3416 19.1527 38.3416 15Z" fill="#EB001B"/>
<path d="M62.8138 15C62.8138 22.186 57.2813 28 50.4427 28C47.5561 28 44.9102 26.9528 42.814 25.2194C45.7005 22.8361 47.5219 19.1527 47.5219 15C47.5219 10.8473 45.6661 7.16388 42.814 4.78049C44.91 3.04719 47.5561 2 50.4427 2C57.2813 2 62.8138 7.84999 62.8138 15Z" fill="#F79E1B"/>
</svg>
