<svg width="24" height="24" viewBox="0 0 24 24" fill="none" xmlns="http://www.w3.org/2000/svg">
<path d="M14.3271 3.9502C14.5466 3.95023 14.739 4.02659 14.9014 4.17773L15.0078 4.2959C15.1 4.42024 15.1475 4.561 15.1475 4.7168V6.92188H17.3848C17.841 6.92188 18.234 7.07337 18.5596 7.37695L18.6738 7.49414C18.9233 7.77349 19.0492 8.10102 19.0498 8.47461V17.5664C19.0498 17.9942 18.8849 18.361 18.5586 18.6641C18.2444 18.9557 17.869 19.105 17.4346 19.1162V20.0498H16.335V19.1191H9.66504V20.0498H8.56641V19.1162C8.18722 19.1069 7.85341 18.9932 7.56641 18.7705L7.44043 18.6641C7.11498 18.3605 6.95089 17.9938 6.9502 17.5674V8.47559C6.9502 8.04779 7.11508 7.68097 7.44141 7.37793L7.56641 7.27148C7.86621 7.03939 8.21659 6.92299 8.61523 6.92188H10.8535V4.7168C10.8535 4.5094 10.9373 4.32889 11.0996 4.17773L11.2275 4.07812C11.3602 3.99303 11.5089 3.95022 11.6729 3.9502H14.3271ZM17.9502 11.8584C17.3487 12.1373 16.7336 12.3621 16.1035 12.5303L15.8213 12.6016C15.0833 12.778 14.3261 12.8924 13.5498 12.9473V13.8936H12.4502V12.9473C11.8722 12.9063 11.3045 12.833 10.7471 12.7246L10.1787 12.6016C9.44946 12.4274 8.74008 12.1788 8.0498 11.8584V17.5664C8.0498 17.7203 8.10252 17.8441 8.20703 17.9414C8.31177 18.0388 8.44697 18.0889 8.61621 18.0889H17.3848C17.5533 18.0889 17.6882 18.0389 17.793 17.9414C17.8975 17.8441 17.9502 17.7203 17.9502 17.5664V11.8584ZM8.61523 7.95215C8.48877 7.95215 8.38099 7.9799 8.29102 8.03516L8.20703 8.09961C8.10256 8.19683 8.0498 8.32098 8.0498 8.47559V10.6953C8.80509 11.1051 9.59629 11.4144 10.4248 11.6201L10.7402 11.6934C11.4779 11.8527 12.2312 11.9321 13 11.9326L13.3291 11.9277C14.0939 11.9049 14.843 11.8027 15.5762 11.6201C16.4047 11.4138 17.1956 11.1045 17.9502 10.6953V8.47461C17.9502 8.35915 17.9202 8.26073 17.8613 8.17773L17.793 8.09961C17.6882 8.00209 17.5533 7.95215 17.3848 7.95215H8.61523ZM11.9541 6.92188H14.0459V4.98145H11.9541V6.92188Z" fill="#3E7DC3" stroke="#3E7DC3" stroke-width="0.1"/>
</svg>
