<svg width="109" height="121" viewBox="0 0 109 121" fill="none" xmlns="http://www.w3.org/2000/svg">
<path d="M56.2145 0H11.2429C8.2611 0 5.40143 1.19198 3.29297 3.31371C1.18452 5.43544 0 8.31312 0 11.3137V101.823C0 104.824 1.18452 107.702 3.29297 109.823C5.40143 111.945 8.2611 113.137 11.2429 113.137H50.5931C48.2883 111.723 46.0959 109.969 44.1846 108.046C42.3296 106.179 40.7555 104.086 39.3502 101.823H11.2429V11.3137H50.5931V39.5979H78.7004V46.273C82.6916 47.1781 86.5142 48.7055 89.9433 50.9116V33.9411L56.2145 0ZM91.6859 95.6008C99.1625 83.6648 95.5647 67.8822 83.8159 60.4152C71.9546 52.8915 56.2145 56.5685 48.8504 68.3347C41.3177 80.2707 44.9716 95.9967 56.7205 103.52C64.9278 108.781 75.3837 108.781 83.6472 103.633L101.186 121L109 113.137L91.6859 95.6008ZM70.2682 96.1664C66.5409 96.1664 62.9663 94.6765 60.3308 92.0243C57.6952 89.3721 56.2145 85.775 56.2145 82.0243C56.2145 78.2736 57.6952 74.6765 60.3308 72.0243C62.9663 69.3722 66.5409 67.8822 70.2682 67.8822C73.9954 67.8822 77.57 69.3722 80.2056 72.0243C82.8412 74.6765 84.3218 78.2736 84.3218 82.0243C84.3218 85.775 82.8412 89.3721 80.2056 92.0243C77.57 94.6765 73.9954 96.1664 70.2682 96.1664Z" fill="#8F8F8F"/>
</svg>
