<svg width="20" height="20" viewBox="0 0 20 20" fill="none" xmlns="http://www.w3.org/2000/svg">
<path d="M5.83 1.13635C6.35083 1.13635 8.43416 5.82385 8.43416 6.34469C8.43416 7.38635 6.87166 8.42802 6.35083 9.46969C5.83 10.5114 6.87166 11.553 7.91333 12.5947C8.31958 13.0009 9.99666 14.678 11.0383 14.1572C12.08 13.6364 13.1217 12.0739 14.1633 12.0739C14.6842 12.0739 19.3717 14.1572 19.3717 14.678C19.3717 16.7614 17.8092 18.3239 16.2467 18.8447C14.6842 19.3655 13.6425 19.3655 11.5592 18.8447C9.47583 18.3239 7.91333 17.803 5.30916 15.1989C2.705 12.5947 2.18416 11.0322 1.66333 8.94885C1.1425 6.86552 1.1425 5.82385 1.66333 4.26135C2.18416 2.69885 3.74666 1.13635 5.83 1.13635Z" stroke="white" stroke-width="1.2" stroke-linecap="round" stroke-linejoin="round"/>
</svg>
