<svg width="19" height="19" viewBox="0 0 19 19" fill="none" xmlns="http://www.w3.org/2000/svg">
<path d="M7.66233 2.61517C7.66233 2.1868 7.8325 1.77597 8.13541 1.47307C8.43831 1.17017 8.84913 1 9.2775 1C9.70587 1 10.1167 1.17017 10.4196 1.47307C10.7225 1.77597 10.8927 2.1868 10.8927 2.61517V6.6375L17.0646 9.87792C17.2125 9.95561 17.3364 10.0722 17.4228 10.2152C17.5092 10.3582 17.555 10.5221 17.555 10.6892V11.0842C17.5551 11.1652 17.5373 11.2452 17.5029 11.3185C17.4684 11.3918 17.4183 11.4566 17.3559 11.5082C17.2936 11.5599 17.2206 11.5972 17.1422 11.6174C17.0638 11.6376 16.9819 11.6402 16.9023 11.6251L10.8927 10.4884V14.2532C10.8925 14.3529 10.9195 14.4508 10.9707 14.5363C11.0218 14.6219 11.0953 14.692 11.1833 14.739L12.8901 15.652C13.1094 15.7694 13.2928 15.9441 13.4206 16.1576C13.5485 16.371 13.616 16.6151 13.6161 16.8638V17.2736C13.6161 17.356 13.5977 17.4373 13.5621 17.5115C13.5264 17.5858 13.4746 17.6512 13.4104 17.7027C13.3462 17.7543 13.2712 17.7908 13.1909 17.8095C13.1107 17.8282 13.0273 17.8286 12.9469 17.8107L9.2775 16.9995L5.60808 17.8107C5.52767 17.8286 5.44428 17.8282 5.36406 17.8095C5.28384 17.7908 5.20885 17.7543 5.14462 17.7027C5.08039 17.6512 5.02856 17.5858 4.99295 17.5115C4.95735 17.4373 4.93888 17.356 4.93892 17.2736V16.8638C4.93898 16.6151 5.00654 16.371 5.13439 16.1576C5.26224 15.9441 5.4456 15.7694 5.66492 15.652L7.37175 14.7381C7.45954 14.6911 7.53294 14.6212 7.58411 14.5358C7.63529 14.4504 7.66232 14.3527 7.66233 14.2532V10.4893L1.65267 11.6242C1.57312 11.6393 1.49122 11.6366 1.41281 11.6164C1.3344 11.5963 1.26142 11.559 1.19907 11.5073C1.13672 11.4557 1.08655 11.3909 1.05214 11.3176C1.01773 11.2443 0.999927 11.1643 1 11.0833V10.6892C0.999885 10.5219 1.04552 10.3579 1.13196 10.2147C1.21841 10.0715 1.34237 9.95476 1.49042 9.877L7.66233 6.6375V2.61517Z" stroke="white" stroke-linecap="round" stroke-linejoin="round"/>
</svg>
