<svg width="34" height="137" viewBox="0 0 34 137" fill="none" xmlns="http://www.w3.org/2000/svg">
<circle cx="16" cy="132" r="4.5" transform="rotate(90 16 132)" fill="#3E7DC3" stroke="#3E7DC3"/>
<line x1="16.5" y1="5" x2="16.5" y2="131" stroke="#3E7DC3"/>
<circle cx="16" cy="5" r="4.5" transform="rotate(90 16 5)" fill="#3E7DC3" stroke="#3E7DC3"/>
<g clip-path="url(#clip0_245_1464)">
<path d="M17.7417 86.951C18.3378 86.5203 18.7132 85.7998 19.0166 85.1514C19.4536 84.2138 19.8227 83.0301 19.8227 82.2155L19.7569 79.8728L24.957 77.5295C25.2791 77.3969 25.5558 77.1738 25.7536 76.8872C25.9514 76.6005 26.0618 76.2626 26.0714 75.9144L26.1294 73.8808C26.1428 73.4134 25.7122 73.0393 25.2504 73.1192L19.5943 74.1042L19.5589 72.8498C19.5589 72.1145 19.5363 71.4187 19.4409 70.8155C19.3999 70.5418 19.3348 70.2723 19.2464 70.0101L21.3557 69.0944C22.0062 68.8116 22.3902 68.1589 22.4086 67.4801L22.451 65.9951C22.4528 65.8882 22.4319 65.7821 22.3897 65.6838C22.3475 65.5855 22.285 65.4973 22.2062 65.425C22.1274 65.3526 22.0342 65.2978 21.9327 65.264C21.8312 65.2303 21.7237 65.2185 21.6173 65.2294L16.9695 65.7448L12.3217 65.2294C11.8762 65.1799 11.4767 65.5468 11.4894 65.9951L11.5305 67.4815C11.5495 68.1582 11.9328 68.813 12.5833 69.0944L14.6919 70.0094C14.6021 70.2689 14.5413 70.5418 14.4982 70.8155C14.4027 71.4187 14.3801 72.1145 14.3794 72.8491L14.3447 74.1042L8.68788 73.12C8.57852 73.1024 8.46663 73.109 8.36008 73.1393C8.25354 73.1696 8.15494 73.2229 8.07122 73.2954C7.9875 73.368 7.92069 73.458 7.8755 73.5591C7.83031 73.6602 7.80783 73.77 7.80966 73.8808L7.86834 75.9152C7.87813 76.2633 7.98869 76.6011 8.18662 76.8876C8.38454 77.1741 8.66134 77.3971 8.98345 77.5295L14.1828 79.8735L14.117 82.2162C14.117 83.0322 14.4862 84.2145 14.9231 85.1521C15.2258 85.7998 15.602 86.521 16.1981 86.9517C16.4194 87.121 16.6903 87.2128 16.969 87.2129C17.2477 87.213 17.5187 87.1215 17.7403 86.9524" fill="#3E7DC3"/>
</g>
<rect x="33.2338" y="73.9688" width="23" height="23" transform="rotate(135 33.2338 73.9688)" stroke="white"/>
<defs>
<clipPath id="clip0_245_1464">
<rect x="33.9409" y="73.9688" width="24" height="24" transform="rotate(135 33.9409 73.9688)" fill="white"/>
</clipPath>
</defs>
</svg>
