<svg width="16" height="16" viewBox="0 0 16 16" fill="none" xmlns="http://www.w3.org/2000/svg">
<path d="M7.99967 14.6668C11.6817 14.6668 14.6663 11.6822 14.6663 8.00016C14.6663 7.6915 14.2037 7.64016 14.0443 7.90483C13.7045 8.46772 13.241 8.9459 12.689 9.30314C12.137 9.66038 11.5109 9.88732 10.8582 9.96676C10.2055 10.0462 9.54329 9.97608 8.92171 9.76168C8.30012 9.54728 7.73547 9.19425 7.27053 8.72931C6.80559 8.26437 6.45255 7.69972 6.23816 7.07813C6.02376 6.45654 5.95363 5.79431 6.03307 5.14161C6.11252 4.4889 6.33945 3.86283 6.6967 3.31082C7.05394 2.75881 7.53211 2.29533 8.09501 1.9555C8.35967 1.7955 8.30834 1.3335 7.99967 1.3335C4.31767 1.3335 1.33301 4.31816 1.33301 8.00016C1.33301 11.6822 4.31767 14.6668 7.99967 14.6668Z" fill="black"/>
</svg>
