<svg width="21" height="16" viewBox="0 0 21 16" fill="none" xmlns="http://www.w3.org/2000/svg">
<path d="M18.3748 14.7188C18.3748 14.8928 18.3056 15.0597 18.1826 15.1828C18.0595 15.3059 17.8926 15.375 17.7185 15.375H5.90604C5.73199 15.375 5.56507 15.3059 5.442 15.1828C5.31893 15.0597 5.24979 14.8928 5.24979 14.7188C5.24979 14.5447 5.31893 14.3778 5.442 14.2547C5.56507 14.1316 5.73199 14.0625 5.90604 14.0625H17.7185C17.8926 14.0625 18.0595 14.1316 18.1826 14.2547C18.3056 14.3778 18.3748 14.5447 18.3748 14.7188ZM17.0623 4.875H12.0846L8.33909 1.12945C8.27809 1.06853 8.2057 1.02022 8.12603 0.987286C8.04637 0.95435 7.96099 0.937432 7.87479 0.9375H7.21854C7.01063 0.937615 6.80572 0.98712 6.62069 1.08194C6.43566 1.17676 6.2758 1.31417 6.15429 1.48287C6.03277 1.65157 5.95306 1.84673 5.92174 2.05227C5.89042 2.2578 5.90837 2.46784 5.97412 2.66508L6.71241 4.875H4.86588L3.08909 3.0982C3.02809 3.03728 2.9557 2.98897 2.87603 2.95604C2.79637 2.9231 2.71099 2.90618 2.62479 2.90625H1.96854C1.76401 2.90644 1.56236 2.95442 1.37967 3.04636C1.19698 3.13831 1.0383 3.27168 0.9163 3.43584C0.7943 3.59999 0.712351 3.79039 0.676991 3.99184C0.641631 4.19328 0.653838 4.4002 0.71264 4.59609L1.86682 8.44254C2.06658 9.12019 2.48103 9.71463 3.04779 10.1364C3.61455 10.5582 4.30296 10.7845 5.00944 10.7812H19.6873C19.8613 10.7812 20.0283 10.7121 20.1513 10.589C20.2744 10.466 20.3435 10.299 20.3435 10.125V8.15625C20.3435 7.28601 19.9978 6.45141 19.3825 5.83606C18.7671 5.2207 17.9325 4.875 17.0623 4.875Z" fill="black"/>
</svg>
