<svg width="16" height="16" viewBox="0 0 16 16" fill="none" xmlns="http://www.w3.org/2000/svg">
<g clip-path="url(#clip0_890_731)">
<path d="M8.58248 1.31723C8.58248 1.00238 8.31448 0.734375 7.99962 0.734375C7.68476 0.734375 7.41705 1.00238 7.41705 1.31723V2.72295C7.41705 3.0378 7.68505 3.3058 7.99991 3.3058C8.31419 3.3058 8.58219 3.0378 8.58219 2.72295L8.58248 1.31723ZM11.3076 3.86838C11.0868 4.09609 11.0868 4.47123 11.3076 4.69209C11.5353 4.9198 11.9036 4.92638 12.1379 4.69209L13.1359 3.69438C13.2454 3.58389 13.3068 3.43463 13.3068 3.27909C13.3068 3.12354 13.2454 2.97429 13.1359 2.8638C12.9148 2.64295 12.5399 2.64295 12.3122 2.8638L11.3076 3.86838ZM3.86133 4.69209C4.08219 4.9198 4.45733 4.9198 4.68476 4.69209C4.90591 4.4778 4.90591 4.08923 4.69162 3.86838L3.69391 2.8638C3.47962 2.64952 3.09791 2.64295 2.87019 2.8638C2.64905 3.08495 2.64905 3.46666 2.86333 3.68752L3.86133 4.69209ZM7.99962 4.58495C6.13134 4.58495 4.58448 6.1318 4.58448 8.00009C4.58448 9.86838 6.13105 11.4221 7.99962 11.4221C9.86134 11.4221 11.4082 9.86838 11.4082 8.00009C11.4082 6.1318 9.86134 4.58495 7.99962 4.58495ZM14.6625 8.58266C14.9773 8.58266 15.2453 8.31495 15.2453 8.00009C15.2453 7.68523 14.9773 7.41723 14.6625 7.41723H13.2631C12.9482 7.41723 12.6802 7.68523 12.6802 8.00009C12.6802 8.31495 12.9482 8.58266 13.2631 8.58266H14.6625ZM1.33676 7.41752C1.02191 7.41752 0.753906 7.68523 0.753906 8.00009C0.753906 8.31495 1.02191 8.58266 1.33676 8.58266H2.73619C3.05105 8.58266 3.31905 8.31495 3.31905 8.00009C3.31905 7.68523 3.05105 7.41723 2.73619 7.41723L1.33676 7.41752ZM12.131 11.3144C12.0203 11.208 11.8728 11.1485 11.7192 11.1485C11.5656 11.1485 11.418 11.208 11.3073 11.3144C11.0865 11.5355 11.0865 11.9107 11.3073 12.1381L12.3122 13.1429C12.5399 13.3638 12.9151 13.3572 13.1359 13.1364C13.3636 12.9152 13.3636 12.5404 13.1359 12.3127L12.131 11.3144ZM2.86333 12.3058C2.63562 12.5267 2.63562 12.9084 2.85648 13.1292C3.07762 13.3504 3.45933 13.3569 3.68676 13.1361L4.68448 12.1381C4.90562 11.9172 4.90562 11.5421 4.69133 11.3147C4.47019 11.0935 4.08848 11.0935 3.86105 11.3147L2.86333 12.3058ZM8.58191 13.2767C8.58191 12.9618 8.31419 12.6938 7.99934 12.6938C7.68448 12.6938 7.41676 12.9618 7.41676 13.2767V14.6829C7.41676 14.9975 7.68476 15.2655 7.99962 15.2655C8.31391 15.2655 8.58191 14.9975 8.58191 14.6827V13.2767Z" fill="black"/>
</g>
<defs>
<clipPath id="clip0_890_731">
<rect width="16" height="16" fill="white"/>
</clipPath>
</defs>
</svg>
