<svg xmlns="http://www.w3.org/2000/svg" version="1.1" xmlns:xlink="http://www.w3.org/1999/xlink" width="512" height="512" x="0" y="0" viewBox="0 0 128 128" style="enable-background:new 0 0 512 512" xml:space="preserve" class=""><g><path d="M121.693 25.052h-18.931v-3.47a3.759 3.759 0 0 0-3.755-3.755h-1.854v-6.52a6.757 6.757 0 0 0-6.75-6.75H37.6a6.757 6.757 0 0 0-6.75 6.75v6.52h-1.861a3.756 3.756 0 0 0-3.751 3.752v3.473H6.307a1.75 1.75 0 0 0-1.75 1.75v16.269a1.75 1.75 0 0 0 1.75 1.75h7.444v4.8a4.255 4.255 0 0 0 3.412 4.165l1.452 64.039a5.783 5.783 0 0 0 5.749 5.619H47.54a5.783 5.783 0 0 0 5.749-5.619l1.451-64.04a4.255 4.255 0 0 0 3.413-4.165v-4.8h11.694v4.8a4.255 4.255 0 0 0 3.413 4.165l1.451 64.039a5.783 5.783 0 0 0 5.749 5.619h23.176a5.783 5.783 0 0 0 5.749-5.619l1.452-64.039a4.255 4.255 0 0 0 3.412-4.165v-4.8h7.444a1.75 1.75 0 0 0 1.75-1.75V26.8a1.75 1.75 0 0 0-1.75-1.748zm-22.431-3.47v3.47H84.834v-3.47a.255.255 0 0 1 .255-.255h13.918a.255.255 0 0 1 .255.255zm-52.6 3.47v-3.473a3.757 3.757 0 0 0-3.752-3.752h-1.853v-3.059h45.886v3.059h-1.854a3.76 3.76 0 0 0-3.755 3.755v3.47zM34.347 11.307a3.254 3.254 0 0 1 3.25-3.25H90.4a3.254 3.254 0 0 1 3.25 3.25v6.52h-3.21v-4.809a1.75 1.75 0 0 0-1.75-1.75H39.307a1.75 1.75 0 0 0-1.75 1.75v4.809h-3.21zm-5.609 10.272a.252.252 0 0 1 .251-.252h13.925a.252.252 0 0 1 .252.252v3.473H28.738zm18.8 98.364H24.364a2.264 2.264 0 0 1-2.25-2.2L20.666 53.87h30.572l-1.448 63.874a2.264 2.264 0 0 1-2.25 2.199zm7.115-70.323a.751.751 0 0 1-.75.75H18a.751.751 0 0 1-.75-.75v-4.8h37.4zm48.983 70.323H80.46a2.264 2.264 0 0 1-2.25-2.2L76.762 53.87h30.572l-1.448 63.874a2.264 2.264 0 0 1-2.25 2.199zm7.113-70.323a.751.751 0 0 1-.75.75H74.1a.751.751 0 0 1-.75-.75v-4.8h37.4zm9.194-8.3H8.057V28.552h111.886z" fill="#000000" opacity="1" data-original="#000000" class=""></path><path d="M92.048 65.737a1.751 1.751 0 0 0-1.75 1.75v38.839a1.75 1.75 0 0 0 3.5 0V67.487a1.75 1.75 0 0 0-1.75-1.75zM35.952 65.737a1.75 1.75 0 0 0-1.75 1.75v38.839a1.75 1.75 0 0 0 3.5 0V67.487a1.751 1.751 0 0 0-1.75-1.75z" fill="#000000" opacity="1" data-original="#000000" class=""></path></g></svg>