<svg width="24" height="24" viewBox="0 0 24 24" fill="none" xmlns="http://www.w3.org/2000/svg">
<path d="M14.867 4.21404L14.9011 4.17744C14.7386 4.02626 14.5465 3.95 14.327 3.95H11.673C11.4541 3.95 11.2624 4.02629 11.0999 4.17744C10.9374 4.32865 10.854 4.50904 10.854 4.71657V6.92144L8.615 6.92144L8.61486 6.92144C8.15931 6.92272 7.76712 7.0749 7.44098 7.37777C7.11465 7.68082 6.95 8.04751 6.95 8.47531L6.95 17.5674L6.95 17.5675C6.95069 17.994 7.11534 18.3603 7.4409 18.6639C7.75451 18.9564 8.13038 19.108 8.566 19.1188V20V20.05H8.616H9.615H9.665V20V19.1194H16.335V20V20.05H16.385H17.385H17.435V20V19.1187C17.8694 19.1074 18.2448 18.9557 18.559 18.664C18.8854 18.3609 19.05 17.9942 19.05 17.5665V8.47438V8.4743C19.0493 8.04717 18.8847 7.68054 18.5591 7.37692C18.2336 7.07333 17.8413 6.92144 17.385 6.92144H15.147V4.71657C15.147 4.50904 15.0636 4.32865 14.9011 4.17744L14.867 4.21404ZM14.867 4.21404C15.0203 4.35673 15.097 4.52424 15.097 4.71657V6.92144H10.904V4.71657C10.904 4.52424 10.9807 4.35673 11.134 4.21404C11.2873 4.07135 11.467 4 11.673 4H14.327C14.5337 4 14.7137 4.07135 14.867 4.21404ZM12.45 13.844V13.894H12.5H13.5H13.55V13.844V12.9489C14.3264 12.894 15.0836 12.7783 15.8216 12.6019C16.5499 12.4278 17.2594 12.1806 17.95 11.8604V17.5665C17.95 17.7204 17.8974 17.8439 17.7929 17.9412C17.6881 18.0387 17.5536 18.0888 17.385 18.0888H8.616C8.4467 18.0888 8.31182 18.0387 8.20706 17.9412C8.10255 17.8439 8.05 17.7204 8.05 17.5665V11.8604C8.73998 12.1806 9.44946 12.4278 10.1784 12.6019C10.917 12.7783 11.6743 12.894 12.45 12.9489V13.844ZM14.046 6.92144H11.954V4.98154H14.046V6.92144ZM15.5759 11.6197C14.738 11.8284 13.8794 11.9328 13 11.9328C12.1213 11.9322 11.2631 11.8278 10.425 11.6197C9.59676 11.414 8.8051 11.1064 8.05 10.6967V8.47531C8.05 8.3207 8.10259 8.19687 8.20706 8.09965C8.31185 8.00213 8.44643 7.95205 8.615 7.95205H17.385C17.5536 7.95205 17.6881 8.00213 17.7929 8.09965C17.8974 8.19691 17.95 8.32045 17.95 8.47438V10.6967C17.1955 11.1058 16.4042 11.4134 15.5759 11.6197Z" fill="black" stroke="black" stroke-width="0.1"/>
</svg>
