<svg width="17" height="17" viewBox="0 0 17 17" fill="none" xmlns="http://www.w3.org/2000/svg">
<path d="M7.65 12.75H9.34999V7.65H7.65V12.75ZM8.5 5.95C8.74083 5.95 8.94285 5.8684 9.10604 5.7052C9.26925 5.542 9.35056 5.34027 9.34999 5.1C9.34943 4.85973 9.26783 4.658 9.1052 4.4948C8.94256 4.3316 8.74083 4.25 8.5 4.25C8.25916 4.25 8.05743 4.3316 7.8948 4.4948C7.73216 4.658 7.65056 4.85973 7.65 5.1C7.64943 5.34027 7.73103 5.54228 7.8948 5.70605C8.05856 5.86982 8.26029 5.95113 8.5 5.95ZM8.5 17C7.32416 17 6.21916 16.7767 5.185 16.3302C4.15083 15.8837 3.25125 15.2782 2.48625 14.5137C1.72125 13.7493 1.11577 12.8497 0.669801 11.815C0.223834 10.7803 0.000567742 9.67526 1.07595e-06 8.5C-0.00056559 7.32473 0.222701 6.21973 0.669801 5.185C1.1169 4.15027 1.72238 3.25068 2.48625 2.48625C3.25012 1.72182 4.1497 1.11633 5.185 0.6698C6.2203 0.223267 7.3253 0 8.5 0C9.67469 0 10.7797 0.223267 11.815 0.6698C12.8503 1.11633 13.7499 1.72182 14.5137 2.48625C15.2776 3.25068 15.8834 4.15027 16.331 5.185C16.7787 6.21973 17.0017 7.32473 17 8.5C16.9983 9.67526 16.775 10.7803 16.3302 11.815C15.8854 12.8497 15.2799 13.7493 14.5137 14.5137C13.7476 15.2782 12.848 15.8839 11.815 16.331C10.782 16.7781 9.67696 17.0011 8.5 17Z" fill="#66A928"/>
</svg>
