<svg width="18" height="18" viewBox="0 0 18 18" fill="none" xmlns="http://www.w3.org/2000/svg">
<path d="M12.7014 11.584H11.9359L11.6646 11.3027C12.8274 9.8444 13.4281 7.85482 13.0987 5.74024C12.6432 2.8444 10.3952 0.531902 7.68201 0.177735C3.58317 -0.363932 0.133559 3.3444 0.637435 7.75065C0.966892 10.6673 3.11806 13.084 5.81185 13.5736C7.77891 13.9277 9.62968 13.2819 10.9863 12.0319L11.2479 12.3236V13.1465L15.3661 17.5736C15.7634 18.0007 16.4126 18.0007 16.8099 17.5736C17.2072 17.1465 17.2072 16.4486 16.8099 16.0215L12.7014 11.584ZM6.88743 11.584C4.47464 11.584 2.52697 9.49024 2.52697 6.89649C2.52697 4.30274 4.47464 2.20899 6.88743 2.20899C9.30023 2.20899 11.2479 4.30274 11.2479 6.89649C11.2479 9.49024 9.30023 11.584 6.88743 11.584Z" fill="white"/>
</svg>
