<svg width="50" height="15" viewBox="0 0 50 15" fill="none" xmlns="http://www.w3.org/2000/svg">
<path d="M25.9241 4.79533C25.8965 6.88489 27.8633 8.05088 29.3449 8.74419C30.8671 9.45547 31.3784 9.91163 31.3724 10.5478C31.361 11.5213 30.1582 11.9509 29.0326 11.9676C27.0688 11.9968 25.9269 11.4585 25.0192 11.0513L24.3118 14.2301C25.2225 14.6331 26.9089 14.9846 28.6577 15C32.7627 15 35.4483 13.0541 35.4629 10.0372C35.4789 6.20827 29.9477 5.99634 29.9855 4.28491C29.9985 3.76597 30.5142 3.21219 31.6441 3.07138C32.2034 3.00025 33.7473 2.94582 35.4978 3.71988L36.1848 0.644325C35.2435 0.315177 34.0336 0 32.5273 0C28.6635 0 25.946 1.97235 25.9241 4.79533ZM42.7865 0.264915C42.0369 0.264915 41.4053 0.684787 41.1233 1.32911L35.2595 14.7741H39.3615L40.1778 12.6078H45.1904L45.6639 14.7741H49.2793L46.1244 0.264915H42.7865ZM43.3604 4.18439L44.5441 9.63275H41.3021L43.3604 4.18439ZM20.9507 0.265097L17.7173 14.7739H21.6262L24.858 0.264734L20.9507 0.265097ZM15.1681 0.265097L11.0996 10.1404L9.45378 1.74354C9.26067 0.806177 8.49806 0.264915 7.65117 0.264915H1.00038L0.907227 0.686239C2.2726 0.970751 3.82391 1.42963 4.76377 1.92063C5.33894 2.22057 5.50295 2.48276 5.69191 3.19549L8.80907 14.7741H12.9398L19.2727 0.264915L15.1681 0.265097Z" fill="url(#paint0_linear_269_1681)"/>
<defs>
<linearGradient id="paint0_linear_269_1681" x1="2224.77" y1="45.09" x2="2266.46" y2="-1495.53" gradientUnits="userSpaceOnUse">
<stop stop-color="#222357"/>
<stop offset="1" stop-color="#254AA5"/>
</linearGradient>
</defs>
</svg>
