<svg width="117" height="117" viewBox="0 0 117 117" fill="none" xmlns="http://www.w3.org/2000/svg">
<circle cx="58.5" cy="58.5" r="58.5" fill="#1F8F0A"/>
<path d="M58.1487 22.0002C37.8452 22.0002 21.2975 38.4652 21.2975 58.6671C21.2975 65.1421 23.008 71.4321 26.206 76.9821L21 96L40.5226 90.894C45.9146 93.817 51.9759 95.371 58.1487 95.371C78.4523 95.371 95 78.906 95 58.7041C95 48.8991 91.1698 39.6862 84.2161 32.7672C80.8064 29.3414 76.7455 26.6251 72.2701 24.7765C67.7948 22.928 62.9944 21.9842 58.1487 22.0002ZM58.1859 28.1792C66.3668 28.1792 74.0271 31.3612 79.8281 37.1332C82.6743 39.9656 84.9309 43.3288 86.4687 47.0303C88.0065 50.7318 88.7953 54.6988 88.7899 58.7041C88.7899 75.5021 75.0312 89.155 58.1487 89.155C52.6452 89.155 47.2533 87.712 42.5678 84.9L41.4523 84.271L29.8503 87.305L32.9367 76.0571L32.193 74.8731C29.1234 70.0201 27.4989 64.4011 27.5075 58.6671C27.5447 41.8691 41.2663 28.1792 58.1859 28.1792ZM45.0965 41.7211C44.5015 41.7211 43.4975 41.9431 42.6422 42.8681C41.8241 43.7931 39.407 46.0501 39.407 50.5271C39.407 55.0411 42.7166 59.3701 43.1256 59.9991C43.6462 60.6281 49.6703 69.8781 58.9296 73.8001C61.1236 74.7991 62.8342 75.3541 64.1729 75.7611C66.3668 76.4641 68.3749 76.3531 69.9739 76.1311C71.7588 75.8721 75.403 73.9111 76.1839 71.7651C76.9648 69.6191 76.9648 67.8061 76.7417 67.3991C76.4814 67.0291 75.8864 66.8071 74.9568 66.4001C74.0271 65.8821 69.4904 63.6621 68.6724 63.3661C67.8171 63.0701 67.2965 62.9221 66.5899 63.8101C65.995 64.7351 64.21 66.8071 63.6894 67.3991C63.1317 68.0281 62.611 68.1021 61.7186 67.6581C60.7518 67.1771 57.7769 66.2151 54.2814 63.1071C51.5296 60.6651 49.7075 57.6681 49.1497 56.7431C48.7035 55.8551 49.1126 55.3001 49.5588 54.8931C49.9678 54.4861 50.5628 53.8201 50.9347 53.2651C51.4181 52.7471 51.5668 52.3401 51.8643 51.7481C52.1618 51.1191 52.0131 50.6011 51.7899 50.1571C51.5668 49.7501 49.7075 45.1621 48.9266 43.3491C48.1829 41.5731 47.4392 41.7951 46.8442 41.7581C46.3236 41.7581 45.7286 41.7211 45.0965 41.7211Z" fill="white"/>
</svg>
