<svg width="22" height="22" viewBox="0 0 22 22" fill="none" xmlns="http://www.w3.org/2000/svg">
<path d="M9.38499 4.13665C9.38499 3.70828 9.55516 3.29746 9.85806 2.99456C10.161 2.69165 10.5718 2.52148 11.0002 2.52148C11.4285 2.52148 11.8394 2.69165 12.1423 2.99456C12.4452 3.29746 12.6153 3.70828 12.6153 4.13665V8.15898L18.7872 11.3994C18.9352 11.4771 19.059 11.5937 19.1455 11.7367C19.2319 11.8797 19.2776 12.0436 19.2777 12.2107V12.6057C19.2777 12.6867 19.2599 12.7667 19.2255 12.84C19.1911 12.9133 19.1409 12.9781 19.0786 13.0297C19.0162 13.0814 18.9433 13.1187 18.8648 13.1388C18.7864 13.159 18.7045 13.1617 18.625 13.1466L12.6153 12.0099V15.7747C12.6152 15.8744 12.6421 15.9722 12.6933 16.0578C12.7445 16.1434 12.818 16.2135 12.9059 16.2605L14.6127 17.1735C14.8321 17.2909 15.0154 17.4656 15.1433 17.679C15.2711 17.8924 15.3387 18.1365 15.3387 18.3853V18.7951C15.3388 18.8774 15.3203 18.9588 15.2847 19.033C15.2491 19.1073 15.1973 19.1726 15.133 19.2242C15.0688 19.2758 14.9938 19.3122 14.9136 19.3309C14.8334 19.3496 14.75 19.3501 14.6696 19.3322L11.0002 18.521L7.33074 19.3322C7.25033 19.3501 7.16694 19.3496 7.08672 19.3309C7.0065 19.3122 6.93151 19.2758 6.86728 19.2242C6.80304 19.1726 6.75121 19.1073 6.71561 19.033C6.68 18.9588 6.66154 18.8774 6.66157 18.7951V18.3853C6.66164 18.1365 6.7292 17.8924 6.85705 17.679C6.9849 17.4656 7.16825 17.2909 7.38757 17.1735L9.09441 16.2596C9.1822 16.2126 9.25559 16.1427 9.30677 16.0573C9.35794 15.9719 9.38498 15.8742 9.38499 15.7747V12.0108L3.37532 13.1457C3.29578 13.1608 3.21388 13.1581 3.13547 13.1379C3.05706 13.1177 2.98407 13.0805 2.92173 13.0288C2.85938 12.9772 2.80921 12.9124 2.7748 12.8391C2.74039 12.7658 2.72258 12.6858 2.72266 12.6048V12.2107C2.72254 12.0434 2.76818 11.8793 2.85462 11.7362C2.94106 11.593 3.06502 11.4762 3.21307 11.3985L9.38499 8.15898V4.13665Z" stroke="black" stroke-linecap="round" stroke-linejoin="round"/>
</svg>
