<svg width="22" height="21" viewBox="0 0 22 21" fill="none" xmlns="http://www.w3.org/2000/svg">
<path d="M9.11641 19.25V13.5013M10.9399 9.625H10.949M10.9399 6.125H10.949M12.7633 13.5013V19.25M13.675 14C12.8859 13.432 11.9262 13.125 10.9399 13.125C9.95351 13.125 8.99377 13.432 8.20469 14M14.5867 9.625H14.5959M14.5867 6.125H14.5959M7.29297 9.625H7.30209M7.29297 6.125H7.30209" stroke="black" stroke-linecap="round" stroke-linejoin="round"/>
<path d="M16.4106 1.75H5.46993C4.46287 1.75 3.64648 2.5335 3.64648 3.5V17.5C3.64648 18.4665 4.46287 19.25 5.46993 19.25H16.4106C17.4177 19.25 18.234 18.4665 18.234 17.5V3.5C18.234 2.5335 17.4177 1.75 16.4106 1.75Z" stroke="black" stroke-linecap="round" stroke-linejoin="round"/>
</svg>
