<svg width="19" height="19" viewBox="0 0 19 19" fill="none" xmlns="http://www.w3.org/2000/svg">
<path d="M4.75 11.875L2.375 9.5M2.375 9.5L4.75 7.125M2.375 9.5H13.4583M7.91667 12.6667V14.725C7.91667 14.9745 7.96581 15.2216 8.0613 15.4521C8.15678 15.6826 8.29673 15.8921 8.47316 16.0685C8.64959 16.2449 8.85905 16.3849 9.08957 16.4804C9.32009 16.5759 9.56715 16.625 9.81667 16.625H14.725C15.2289 16.625 15.7122 16.4248 16.0685 16.0685C16.4248 15.7122 16.625 15.2289 16.625 14.725V4.275C16.625 4.02549 16.5759 3.77842 16.4804 3.5479C16.3849 3.31738 16.2449 3.10793 16.0685 2.9315C15.7122 2.57518 15.2289 2.375 14.725 2.375H9.81667C9.56715 2.375 9.32009 2.42415 9.08957 2.51963C8.85905 2.61511 8.64959 2.75507 8.47316 2.9315C8.29673 3.10793 8.15678 3.31738 8.0613 3.5479C7.96581 3.77842 7.91667 4.02549 7.91667 4.275V6.33333" stroke="black" stroke-miterlimit="10" stroke-linecap="round" stroke-linejoin="round"/>
</svg>
