<svg width="50" height="50" viewBox="0 0 50 50" fill="none" xmlns="http://www.w3.org/2000/svg">
<circle cx="25" cy="25" r="25" fill="#F0FFF1"/>
<path d="M15 19C15 18.4696 15.2107 17.9609 15.5858 17.5858C15.9609 17.2107 16.4696 17 17 17H33C33.5304 17 34.0391 17.2107 34.4142 17.5858C34.7893 17.9609 35 18.4696 35 19V31C35 31.5304 34.7893 32.0391 34.4142 32.4142C34.0391 32.7893 33.5304 33 33 33H17C16.4696 33 15.9609 32.7893 15.5858 32.4142C15.2107 32.0391 15 31.5304 15 31V19ZM18.519 19L25 24.671L31.481 19H18.519ZM33 20.329L25.659 26.753C25.4766 26.9128 25.2424 27.0009 25 27.0009C24.7576 27.0009 24.5234 26.9128 24.341 26.753L17 20.329V31H33V20.329Z" fill="#1F8F0A"/>
</svg>
