<svg width="50" height="50" viewBox="0 0 50 50" fill="none" xmlns="http://www.w3.org/2000/svg">
<circle cx="25" cy="25" r="25" fill="#F0FFF1"/>
<path d="M21.1975 20C18.3271 20 16 22.2383 16 24.9997C16 27.7611 18.3271 30 21.1975 30C23.758 30 25.8854 28.2184 26.3149 25.8734C26.3197 25.8737 26.3245 25.8744 26.3293 25.8746H28.3304V28.6539H30.5398V25.8746H31.5816V29.897H33.7909V25.8746H35V23.7491H26.2457C26.2406 23.7495 26.2357 23.7498 26.2306 23.7502C25.6539 21.5935 23.6193 20 21.1975 20ZM21.1975 22.3131C22.7399 22.3131 23.99 23.5158 23.99 24.9997C23.99 26.4836 22.7399 27.6869 21.1975 27.6869C19.6551 27.6869 18.4043 26.4836 18.4043 24.9997C18.4043 23.5158 19.6551 22.3131 21.1975 22.3131Z" fill="#1F8F0A"/>
</svg>
