<svg width="12" height="10" viewBox="0 0 12 10" fill="none" xmlns="http://www.w3.org/2000/svg">
<path d="M11.7 8.40001H0.3C0.13425 8.40001 0 8.53426 0 8.70001V9.30001C0 9.46576 0.13425 9.60001 0.3 9.60001H11.7C11.8658 9.60001 12 9.46576 12 9.30001V8.70001C12 8.53426 11.8658 8.40001 11.7 8.40001ZM0.840188 3.85614L2.50406 5.35614C2.64058 5.47942 2.80417 5.56889 2.98163 5.61733L8.37413 7.08639C8.87063 7.22158 9.39713 7.24989 9.89288 7.11189C10.4492 6.95683 10.7074 6.7142 10.7788 6.44233C10.8506 6.17045 10.7464 5.82901 10.3406 5.41183C9.97913 5.0402 9.50906 4.79701 9.01256 4.66183L7.18425 4.16383L5.3025 0.56664C5.27419 0.457702 5.19094 0.372577 5.08388 0.343327L3.86344 0.0108896C3.66544 -0.0431104 3.47156 0.11064 3.47513 0.31914L4.37363 3.39808L2.45738 2.87608L1.94006 1.60333C1.90388 1.51164 1.82738 1.44264 1.73344 1.41714L0.9885 1.21408C0.794625 1.1612 0.603563 1.30783 0.6 1.51183L0.604313 3.4202C0.607875 3.58726 0.717375 3.74533 0.840188 3.85614Z" fill="#3E7DC3"/>
</svg>
