<svg width="12" height="9" viewBox="0 0 12 9" fill="none" xmlns="http://www.w3.org/2000/svg">
<path d="M11.6998 7.79998H0.300048C0.134301 7.79998 5.32987e-05 7.93423 5.32987e-05 8.09998V8.69997C5.32987e-05 8.86571 0.134301 8.99996 0.300048 8.99996H11.6998C11.8656 8.99996 11.9998 8.86571 11.9998 8.69997V8.09998C11.9998 7.93423 11.8656 7.79998 11.6998 7.79998ZM1.51034 5.79883C1.62809 5.92708 1.79346 5.99983 1.96652 5.99964L4.41409 5.99627C4.60725 5.99602 4.79764 5.95029 4.96983 5.86277L10.4252 3.09439C10.9266 2.83995 11.376 2.47677 11.6818 2.00109C12.0251 1.4671 12.0624 1.08067 11.9269 0.807679C11.7917 0.534497 11.463 0.333876 10.8347 0.293002C10.275 0.256627 9.71837 0.403999 9.217 0.658245L7.36998 1.59554L3.26943 0.0569436C3.22013 0.0237319 3.16285 0.00429176 3.10351 0.000632865C3.04418 -0.00302603 2.98495 0.00922915 2.93193 0.0361315L1.69915 0.661807C1.49909 0.763243 1.45071 1.03024 1.60221 1.19673L4.53128 3.03607L2.59613 4.01818L1.23959 3.33438C1.19286 3.31081 1.14124 3.29857 1.08889 3.29863C1.03655 3.2987 0.984961 3.31107 0.938285 3.33476L0.185862 3.71669C-0.009884 3.81606 -0.0614455 4.07518 0.0814267 4.24318L1.51034 5.79883Z" fill="#3E7DC3"/>
</svg>
