<svg width="83" height="83" viewBox="0 0 83 83" fill="none" xmlns="http://www.w3.org/2000/svg">
<circle cx="41.4523" cy="41.4523" r="41.4523" fill="#FFEEE3"/>
<path d="M39.8605 22.4065L55.7825 27.2598C56.2266 27.395 56.6147 27.6652 56.8902 28.0309C57.1657 28.3967 57.3142 28.8387 57.314 29.2926V33.0496H61.6774C62.2561 33.0496 62.811 33.2739 63.2201 33.6731C63.6293 34.0723 63.8591 34.6137 63.8591 35.1783V39.4355H35.4971V35.1783C35.4971 34.6137 35.7269 34.0723 36.1361 33.6731C36.5452 33.2739 37.1001 33.0496 37.6788 33.0496H52.9506V30.8572L39.8605 26.8638L26.7703 30.8572V46.6175C26.7699 47.9207 27.0762 49.2066 27.6656 50.3761C28.2549 51.5456 29.1115 52.5676 30.1693 53.3632L30.5817 53.6527L39.8605 59.8257L48.1116 54.336H37.6788C37.1001 54.336 36.5452 54.1117 36.1361 53.7125C35.7269 53.3133 35.4971 52.7719 35.4971 52.2073V43.6928H63.8591V52.2073C63.8591 52.7719 63.6293 53.3133 63.2201 53.7125C62.811 54.1117 62.2561 54.336 61.6774 54.336L54.6524 54.3381C53.8081 55.4237 52.7827 56.3816 51.598 57.1692L39.8605 64.9791L28.1229 57.1713C26.3612 55.9994 24.9196 54.4253 23.9234 52.586C22.9273 50.7467 22.4066 48.6979 22.4069 46.6175V29.2926C22.4071 28.8391 22.5558 28.3975 22.8313 28.0322C23.1068 27.6669 23.4947 27.3971 23.9384 27.2619L39.8605 22.4065Z" fill="#2A3D54"/>
</svg>
