<svg width="83" height="83" viewBox="0 0 83 83" fill="none" xmlns="http://www.w3.org/2000/svg">
<circle cx="41.4524" cy="41.4523" r="41.4523" fill="#FFEEE3"/>
<g clip-path="url(#clip0_28_13)">
<path d="M40.3326 30.2491H37.8118V42.8528H47.8948V40.3321H40.3326V30.2491Z" fill="#2A3D54"/>
<path d="M40.3326 20.1661C32.7704 20.1661 26.2164 24.1993 22.9394 30.5011L20.1666 27.7283V37.8113H30.2496L26.4685 34.0302C28.9892 28.9887 34.2828 25.2076 40.3326 25.2076C48.6511 25.2076 55.4571 32.0136 55.4571 40.3321C55.4571 48.6505 48.6511 55.4565 40.3326 55.4565C35.7953 55.4565 31.7621 53.4399 28.9892 50.163L25.2081 53.4399C28.7372 57.7252 34.2828 60.498 40.3326 60.498C51.4239 60.498 60.4986 51.4233 60.4986 40.3321C60.4986 29.2408 51.4239 20.1661 40.3326 20.1661Z" fill="#2A3D54"/>
</g>
<defs>
<clipPath id="clip0_28_13">
<rect width="40.332" height="40.332" fill="white" transform="translate(20.1666 20.1661)"/>
</clipPath>
</defs>
</svg>
